%TF.GenerationSoftware,KiCad,Pcbnew,9.0.6*%
%TF.CreationDate,2026-05-03T18:52:29-07:00*%
%TF.ProjectId,hotplate01,686f7470-6c61-4746-9530-312e6b696361,1*%
%TF.SameCoordinates,Original*%
%TF.FileFunction,Soldermask,Top*%
%TF.FilePolarity,Negative*%
%FSLAX46Y46*%
G04 Gerber Fmt 4.6, Leading zero omitted, Abs format (unit mm)*
G04 Created by KiCad (PCBNEW 9.0.6) date 2026-05-03 18:52:29*
%MOMM*%
%LPD*%
G01*
G04 APERTURE LIST*
G04 Aperture macros list*
%AMRoundRect*
0 Rectangle with rounded corners*
0 $1 Rounding radius*
0 $2 $3 $4 $5 $6 $7 $8 $9 X,Y pos of 4 corners*
0 Add a 4 corners polygon primitive as box body*
4,1,4,$2,$3,$4,$5,$6,$7,$8,$9,$2,$3,0*
0 Add four circle primitives for the rounded corners*
1,1,$1+$1,$2,$3*
1,1,$1+$1,$4,$5*
1,1,$1+$1,$6,$7*
1,1,$1+$1,$8,$9*
0 Add four rect primitives between the rounded corners*
20,1,$1+$1,$2,$3,$4,$5,0*
20,1,$1+$1,$4,$5,$6,$7,0*
20,1,$1+$1,$6,$7,$8,$9,0*
20,1,$1+$1,$8,$9,$2,$3,0*%
G04 Aperture macros list end*
%ADD10C,3.200000*%
%ADD11RoundRect,0.250000X0.337500X1.450000X-0.337500X1.450000X-0.337500X-1.450000X0.337500X-1.450000X0*%
%ADD12RoundRect,0.250000X1.450000X-0.337500X1.450000X0.337500X-1.450000X0.337500X-1.450000X-0.337500X0*%
%ADD13RoundRect,0.250000X0.550000X0.550000X-0.550000X0.550000X-0.550000X-0.550000X0.550000X-0.550000X0*%
%ADD14C,1.600000*%
%ADD15R,1.050000X1.500000*%
%ADD16O,1.050000X1.500000*%
%ADD17RoundRect,0.250000X-0.337500X-0.475000X0.337500X-0.475000X0.337500X0.475000X-0.337500X0.475000X0*%
%ADD18R,1.600000X1.600000*%
%ADD19O,1.600000X1.600000*%
%ADD20R,1.905000X2.000000*%
%ADD21O,1.905000X2.000000*%
%ADD22RoundRect,0.250000X-1.450000X0.337500X-1.450000X-0.337500X1.450000X-0.337500X1.450000X0.337500X0*%
%ADD23RoundRect,0.250000X-0.337500X-1.450000X0.337500X-1.450000X0.337500X1.450000X-0.337500X1.450000X0*%
%ADD24C,2.000000*%
%ADD25RoundRect,0.249999X0.850001X-0.850001X0.850001X0.850001X-0.850001X0.850001X-0.850001X-0.850001X0*%
%ADD26C,2.200000*%
%ADD27RoundRect,0.250000X-0.550000X-0.550000X0.550000X-0.550000X0.550000X0.550000X-0.550000X0.550000X0*%
%ADD28RoundRect,0.250000X-0.550000X0.550000X-0.550000X-0.550000X0.550000X-0.550000X0.550000X0.550000X0*%
%ADD29R,3.500000X3.500000*%
%ADD30RoundRect,0.750000X-0.750000X-1.000000X0.750000X-1.000000X0.750000X1.000000X-0.750000X1.000000X0*%
%ADD31RoundRect,0.875000X-0.875000X-0.875000X0.875000X-0.875000X0.875000X0.875000X-0.875000X0.875000X0*%
%ADD32RoundRect,0.249999X-0.850001X-0.850001X0.850001X-0.850001X0.850001X0.850001X-0.850001X0.850001X0*%
%ADD33R,1.800000X1.800000*%
%ADD34C,1.800000*%
%ADD35R,1.500000X1.050000*%
%ADD36O,1.500000X1.050000*%
%ADD37RoundRect,0.249999X0.850001X0.850001X-0.850001X0.850001X-0.850001X-0.850001X0.850001X-0.850001X0*%
%ADD38RoundRect,0.250001X-0.799999X-2.474999X0.799999X-2.474999X0.799999X2.474999X-0.799999X2.474999X0*%
G04 APERTURE END LIST*
D10*
%TO.C,REF\u002A\u002A*%
X196300000Y-184900000D03*
%TD*%
%TO.C,REF\u002A\u002A*%
X103800000Y-185100000D03*
%TD*%
%TO.C,REF\u002A\u002A*%
X196200000Y-76000000D03*
%TD*%
%TO.C,REF\u002A\u002A*%
X103600000Y-75900000D03*
%TD*%
D11*
%TO.C,R107*%
X177305000Y-90000000D03*
X175630000Y-90000000D03*
%TD*%
D12*
%TO.C,R105*%
X147000000Y-90912500D03*
X147000000Y-92587500D03*
%TD*%
%TO.C,R102*%
X131750000Y-83662500D03*
X131750000Y-85337500D03*
%TD*%
D11*
%TO.C,R109*%
X164337500Y-90000000D03*
X162662500Y-90000000D03*
%TD*%
D12*
%TO.C,R101*%
X115250000Y-94837500D03*
X115250000Y-93162500D03*
%TD*%
D13*
%TO.C,C103*%
X124750000Y-105610000D03*
D14*
X121250000Y-105610000D03*
%TD*%
D15*
%TO.C,U103*%
X196200000Y-131050000D03*
D16*
X194930000Y-131050000D03*
X193660000Y-131050000D03*
%TD*%
D17*
%TO.C,C106*%
X194702500Y-111230000D03*
X196777500Y-111230000D03*
%TD*%
D18*
%TO.C,A101*%
X157820000Y-108720000D03*
D19*
X160360000Y-108720000D03*
X162900000Y-108720000D03*
X165440000Y-108720000D03*
X167980000Y-108720000D03*
X170520000Y-108720000D03*
X173060000Y-108720000D03*
X175600000Y-108720000D03*
X178140000Y-108720000D03*
X180680000Y-108720000D03*
X183220000Y-108720000D03*
X185760000Y-108720000D03*
X188300000Y-108720000D03*
X190840000Y-108720000D03*
X193380000Y-108720000D03*
X193380000Y-93480000D03*
X190840000Y-93480000D03*
X188300000Y-93480000D03*
X185760000Y-93480000D03*
X183220000Y-93480000D03*
X180680000Y-93480000D03*
X178140000Y-93480000D03*
X175600000Y-93480000D03*
X173060000Y-93480000D03*
X170520000Y-93480000D03*
X167980000Y-93480000D03*
X165440000Y-93480000D03*
X162900000Y-93480000D03*
X160360000Y-93480000D03*
X157820000Y-93480000D03*
%TD*%
D20*
%TO.C,Q101*%
X133940000Y-87680000D03*
D21*
X131400000Y-87680000D03*
X128860000Y-87680000D03*
%TD*%
D22*
%TO.C,R103*%
X115250000Y-96750000D03*
X115250000Y-98425000D03*
%TD*%
D13*
%TO.C,C102*%
X124652651Y-96500000D03*
D14*
X121152651Y-96500000D03*
%TD*%
D23*
%TO.C,R108*%
X169662500Y-90000000D03*
X171337500Y-90000000D03*
%TD*%
D22*
%TO.C,R104*%
X151250000Y-90162500D03*
X151250000Y-91837500D03*
%TD*%
D24*
%TO.C,SW102*%
X191950000Y-81250000D03*
X198450000Y-81250000D03*
X191950000Y-85750000D03*
X198450000Y-85750000D03*
%TD*%
D12*
%TO.C,R112*%
X139250000Y-103837500D03*
X139250000Y-102162500D03*
%TD*%
D25*
%TO.C,D101*%
X138450000Y-95280000D03*
D26*
X138450000Y-85120000D03*
%TD*%
D27*
%TO.C,C104*%
X130000000Y-96500000D03*
D14*
X133500000Y-96500000D03*
%TD*%
D28*
%TO.C,C105*%
X132500000Y-103900000D03*
D14*
X132500000Y-107400000D03*
%TD*%
D29*
%TO.C,J101*%
X114260000Y-87422500D03*
D30*
X108260000Y-87422500D03*
D31*
X111260000Y-92122500D03*
%TD*%
D32*
%TO.C,D104*%
X141000000Y-108137500D03*
D26*
X151160000Y-108137500D03*
%TD*%
D33*
%TO.C,D103*%
X185575000Y-84010000D03*
D34*
X183035000Y-84010000D03*
%TD*%
D17*
%TO.C,C107*%
X183462500Y-90810000D03*
X185537500Y-90810000D03*
%TD*%
D35*
%TO.C,Q102*%
X144500000Y-97262500D03*
D36*
X144500000Y-98532500D03*
X144500000Y-99802500D03*
%TD*%
D12*
%TO.C,R111*%
X151270000Y-100240000D03*
X151270000Y-98565000D03*
%TD*%
D37*
%TO.C,D102*%
X151830000Y-87500000D03*
D26*
X141670000Y-87500000D03*
%TD*%
D24*
%TO.C,SW101*%
X182500000Y-73750000D03*
X189000000Y-73750000D03*
X182500000Y-78250000D03*
X189000000Y-78250000D03*
%TD*%
D12*
%TO.C,R106*%
X180500000Y-91087500D03*
X180500000Y-89412500D03*
%TD*%
D24*
%TO.C,U102*%
X144000000Y-75940000D03*
X144000000Y-78480000D03*
X144000000Y-81020000D03*
X144000000Y-83560000D03*
%TD*%
D20*
%TO.C,Q103*%
X144110000Y-104707500D03*
D21*
X146650000Y-104707500D03*
X149190000Y-104707500D03*
%TD*%
D22*
%TO.C,R110*%
X151250000Y-95162500D03*
X151250000Y-96837500D03*
%TD*%
D17*
%TO.C,C101*%
X126785000Y-85130000D03*
X128860000Y-85130000D03*
%TD*%
%TO.C,C108*%
X193212500Y-90750000D03*
X195287500Y-90750000D03*
%TD*%
D38*
%TO.C,F101*%
X117635000Y-85880000D03*
X124585000Y-85880000D03*
%TD*%
M02*
