M48
; DRILL file {KiCad 9.0.6} date 2026-05-03T18:52:31-0700
; FORMAT={-:-/ absolute / metric / decimal}
; #@! TF.CreationDate,2026-05-03T18:52:31-07:00
; #@! TF.GenerationSoftware,Kicad,Pcbnew,9.0.6
; #@! TF.FileFunction,Plated,1,2,PTH
FMAT,2
METRIC
; #@! TA.AperFunction,Plated,PTH,ViaDrill
T1C0.300
; #@! TA.AperFunction,Plated,PTH,ViaDrill
T2C0.400
; #@! TA.AperFunction,Plated,PTH,ComponentDrill
T3C0.750
; #@! TA.AperFunction,Plated,PTH,ComponentDrill
T4C0.800
; #@! TA.AperFunction,Plated,PTH,ComponentDrill
T5C0.900
; #@! TA.AperFunction,Plated,PTH,ComponentDrill
T6C1.000
; #@! TA.AperFunction,Plated,PTH,ComponentDrill
T7C1.100
%
G90
G05
T1
X161.0Y-100.5
X161.25Y-97.0
X161.5Y-92.0
X164.0Y-94.5
X189.75Y-86.75
X192.0Y-107.75
X194.25Y-124.5
X195.5Y-124.5
X196.5Y-124.5
T2
X117.7Y-90.7
X121.6Y-89.0
X165.25Y-87.0
X178.1Y-87.1
X179.25Y-84.75
X181.6Y-87.8
X185.2Y-102.6
X188.3Y-96.2
X190.0Y-96.4
X190.0Y-104.3
T3
X144.5Y-97.262
X144.5Y-98.532
X144.5Y-99.802
X193.66Y-131.05
X194.93Y-131.05
X196.2Y-131.05
T4
X121.153Y-96.5
X121.25Y-105.61
X124.653Y-96.5
X124.75Y-105.61
X130.0Y-96.5
X132.5Y-103.9
X132.5Y-107.4
X133.5Y-96.5
T5
X183.035Y-84.01
X185.575Y-84.01
T6
X144.0Y-75.94
X144.0Y-78.48
X144.0Y-81.02
X144.0Y-83.56
X157.82Y-93.48
X157.82Y-108.72
X160.36Y-93.48
X160.36Y-108.72
X162.9Y-93.48
X162.9Y-108.72
X165.44Y-93.48
X165.44Y-108.72
X167.98Y-93.48
X167.98Y-108.72
X170.52Y-93.48
X170.52Y-108.72
X173.06Y-93.48
X173.06Y-108.72
X175.6Y-93.48
X175.6Y-108.72
X178.14Y-93.48
X178.14Y-108.72
X180.68Y-93.48
X180.68Y-108.72
X183.22Y-93.48
X183.22Y-108.72
X185.76Y-93.48
X185.76Y-108.72
X188.3Y-93.48
X188.3Y-108.72
X190.84Y-93.48
X190.84Y-108.72
X193.38Y-93.48
X193.38Y-108.72
T7
X128.86Y-87.68
X131.4Y-87.68
X133.94Y-87.68
X138.45Y-85.12
X138.45Y-95.28
X141.0Y-108.137
X141.67Y-87.5
X144.11Y-104.707
X146.65Y-104.707
X149.19Y-104.707
X151.16Y-108.137
X151.83Y-87.5
X182.5Y-73.75
X182.5Y-78.25
X189.0Y-73.75
X189.0Y-78.25
X191.95Y-81.25
X191.95Y-85.75
X198.45Y-81.25
X198.45Y-85.75
T6
G00X108.26Y-86.422
M15
G01X108.26Y-88.422
M16
G05
G00X110.26Y-92.123
M15
G01X112.26Y-92.123
M16
G05
G00X114.26Y-86.422
M15
G01X114.26Y-88.422
M16
G05
M30
