%TF.GenerationSoftware,KiCad,Pcbnew,9.0.6*%
%TF.CreationDate,2026-05-03T18:52:29-07:00*%
%TF.ProjectId,hotplate01,686f7470-6c61-4746-9530-312e6b696361,1*%
%TF.SameCoordinates,Original*%
%TF.FileFunction,Legend,Bot*%
%TF.FilePolarity,Positive*%
%FSLAX46Y46*%
G04 Gerber Fmt 4.6, Leading zero omitted, Abs format (unit mm)*
G04 Created by KiCad (PCBNEW 9.0.6) date 2026-05-03 18:52:29*
%MOMM*%
%LPD*%
G01*
G04 APERTURE LIST*
%ADD10C,0.150000*%
G04 APERTURE END LIST*
D10*
X151342857Y-120334804D02*
X151390476Y-120382424D01*
X151390476Y-120382424D02*
X151533333Y-120430043D01*
X151533333Y-120430043D02*
X151628571Y-120430043D01*
X151628571Y-120430043D02*
X151771428Y-120382424D01*
X151771428Y-120382424D02*
X151866666Y-120287185D01*
X151866666Y-120287185D02*
X151914285Y-120191947D01*
X151914285Y-120191947D02*
X151961904Y-120001471D01*
X151961904Y-120001471D02*
X151961904Y-119858614D01*
X151961904Y-119858614D02*
X151914285Y-119668138D01*
X151914285Y-119668138D02*
X151866666Y-119572900D01*
X151866666Y-119572900D02*
X151771428Y-119477662D01*
X151771428Y-119477662D02*
X151628571Y-119430043D01*
X151628571Y-119430043D02*
X151533333Y-119430043D01*
X151533333Y-119430043D02*
X151390476Y-119477662D01*
X151390476Y-119477662D02*
X151342857Y-119525281D01*
X150914285Y-120430043D02*
X150914285Y-119763376D01*
X150914285Y-119953852D02*
X150866666Y-119858614D01*
X150866666Y-119858614D02*
X150819047Y-119810995D01*
X150819047Y-119810995D02*
X150723809Y-119763376D01*
X150723809Y-119763376D02*
X150628571Y-119763376D01*
X149914285Y-120382424D02*
X150009523Y-120430043D01*
X150009523Y-120430043D02*
X150199999Y-120430043D01*
X150199999Y-120430043D02*
X150295237Y-120382424D01*
X150295237Y-120382424D02*
X150342856Y-120287185D01*
X150342856Y-120287185D02*
X150342856Y-119906233D01*
X150342856Y-119906233D02*
X150295237Y-119810995D01*
X150295237Y-119810995D02*
X150199999Y-119763376D01*
X150199999Y-119763376D02*
X150009523Y-119763376D01*
X150009523Y-119763376D02*
X149914285Y-119810995D01*
X149914285Y-119810995D02*
X149866666Y-119906233D01*
X149866666Y-119906233D02*
X149866666Y-120001471D01*
X149866666Y-120001471D02*
X150342856Y-120096709D01*
X149009523Y-120430043D02*
X149009523Y-119430043D01*
X149009523Y-120382424D02*
X149104761Y-120430043D01*
X149104761Y-120430043D02*
X149295237Y-120430043D01*
X149295237Y-120430043D02*
X149390475Y-120382424D01*
X149390475Y-120382424D02*
X149438094Y-120334804D01*
X149438094Y-120334804D02*
X149485713Y-120239566D01*
X149485713Y-120239566D02*
X149485713Y-119953852D01*
X149485713Y-119953852D02*
X149438094Y-119858614D01*
X149438094Y-119858614D02*
X149390475Y-119810995D01*
X149390475Y-119810995D02*
X149295237Y-119763376D01*
X149295237Y-119763376D02*
X149104761Y-119763376D01*
X149104761Y-119763376D02*
X149009523Y-119810995D01*
X148533332Y-120430043D02*
X148533332Y-119763376D01*
X148533332Y-119430043D02*
X148580951Y-119477662D01*
X148580951Y-119477662D02*
X148533332Y-119525281D01*
X148533332Y-119525281D02*
X148485713Y-119477662D01*
X148485713Y-119477662D02*
X148533332Y-119430043D01*
X148533332Y-119430043D02*
X148533332Y-119525281D01*
X148199999Y-119763376D02*
X147819047Y-119763376D01*
X148057142Y-119430043D02*
X148057142Y-120287185D01*
X148057142Y-120287185D02*
X148009523Y-120382424D01*
X148009523Y-120382424D02*
X147914285Y-120430043D01*
X147914285Y-120430043D02*
X147819047Y-120430043D01*
X147485713Y-120334804D02*
X147438094Y-120382424D01*
X147438094Y-120382424D02*
X147485713Y-120430043D01*
X147485713Y-120430043D02*
X147533332Y-120382424D01*
X147533332Y-120382424D02*
X147485713Y-120334804D01*
X147485713Y-120334804D02*
X147485713Y-120430043D01*
X147485713Y-119810995D02*
X147438094Y-119858614D01*
X147438094Y-119858614D02*
X147485713Y-119906233D01*
X147485713Y-119906233D02*
X147533332Y-119858614D01*
X147533332Y-119858614D02*
X147485713Y-119810995D01*
X147485713Y-119810995D02*
X147485713Y-119906233D01*
X169557145Y-121373320D02*
X169557145Y-122182844D01*
X169557145Y-122182844D02*
X169604764Y-122278082D01*
X169604764Y-122278082D02*
X169652383Y-122325701D01*
X169652383Y-122325701D02*
X169747621Y-122373320D01*
X169747621Y-122373320D02*
X169890478Y-122373320D01*
X169890478Y-122373320D02*
X169985716Y-122325701D01*
X169557145Y-121992368D02*
X169652383Y-122039987D01*
X169652383Y-122039987D02*
X169842859Y-122039987D01*
X169842859Y-122039987D02*
X169938097Y-121992368D01*
X169938097Y-121992368D02*
X169985716Y-121944748D01*
X169985716Y-121944748D02*
X170033335Y-121849510D01*
X170033335Y-121849510D02*
X170033335Y-121563796D01*
X170033335Y-121563796D02*
X169985716Y-121468558D01*
X169985716Y-121468558D02*
X169938097Y-121420939D01*
X169938097Y-121420939D02*
X169842859Y-121373320D01*
X169842859Y-121373320D02*
X169652383Y-121373320D01*
X169652383Y-121373320D02*
X169557145Y-121420939D01*
X169080954Y-122039987D02*
X169080954Y-121373320D01*
X169080954Y-121039987D02*
X169128573Y-121087606D01*
X169128573Y-121087606D02*
X169080954Y-121135225D01*
X169080954Y-121135225D02*
X169033335Y-121087606D01*
X169033335Y-121087606D02*
X169080954Y-121039987D01*
X169080954Y-121039987D02*
X169080954Y-121135225D01*
X168747621Y-121373320D02*
X168366669Y-121373320D01*
X168604764Y-121039987D02*
X168604764Y-121897129D01*
X168604764Y-121897129D02*
X168557145Y-121992368D01*
X168557145Y-121992368D02*
X168461907Y-122039987D01*
X168461907Y-122039987D02*
X168366669Y-122039987D01*
X168033335Y-122039987D02*
X168033335Y-121039987D01*
X167604764Y-122039987D02*
X167604764Y-121516177D01*
X167604764Y-121516177D02*
X167652383Y-121420939D01*
X167652383Y-121420939D02*
X167747621Y-121373320D01*
X167747621Y-121373320D02*
X167890478Y-121373320D01*
X167890478Y-121373320D02*
X167985716Y-121420939D01*
X167985716Y-121420939D02*
X168033335Y-121468558D01*
X166700002Y-121373320D02*
X166700002Y-122039987D01*
X167128573Y-121373320D02*
X167128573Y-121897129D01*
X167128573Y-121897129D02*
X167080954Y-121992368D01*
X167080954Y-121992368D02*
X166985716Y-122039987D01*
X166985716Y-122039987D02*
X166842859Y-122039987D01*
X166842859Y-122039987D02*
X166747621Y-121992368D01*
X166747621Y-121992368D02*
X166700002Y-121944748D01*
X166223811Y-122039987D02*
X166223811Y-121039987D01*
X166223811Y-121420939D02*
X166128573Y-121373320D01*
X166128573Y-121373320D02*
X165938097Y-121373320D01*
X165938097Y-121373320D02*
X165842859Y-121420939D01*
X165842859Y-121420939D02*
X165795240Y-121468558D01*
X165795240Y-121468558D02*
X165747621Y-121563796D01*
X165747621Y-121563796D02*
X165747621Y-121849510D01*
X165747621Y-121849510D02*
X165795240Y-121944748D01*
X165795240Y-121944748D02*
X165842859Y-121992368D01*
X165842859Y-121992368D02*
X165938097Y-122039987D01*
X165938097Y-122039987D02*
X166128573Y-122039987D01*
X166128573Y-122039987D02*
X166223811Y-121992368D01*
X165319049Y-121944748D02*
X165271430Y-121992368D01*
X165271430Y-121992368D02*
X165319049Y-122039987D01*
X165319049Y-122039987D02*
X165366668Y-121992368D01*
X165366668Y-121992368D02*
X165319049Y-121944748D01*
X165319049Y-121944748D02*
X165319049Y-122039987D01*
X164414288Y-121992368D02*
X164509526Y-122039987D01*
X164509526Y-122039987D02*
X164700002Y-122039987D01*
X164700002Y-122039987D02*
X164795240Y-121992368D01*
X164795240Y-121992368D02*
X164842859Y-121944748D01*
X164842859Y-121944748D02*
X164890478Y-121849510D01*
X164890478Y-121849510D02*
X164890478Y-121563796D01*
X164890478Y-121563796D02*
X164842859Y-121468558D01*
X164842859Y-121468558D02*
X164795240Y-121420939D01*
X164795240Y-121420939D02*
X164700002Y-121373320D01*
X164700002Y-121373320D02*
X164509526Y-121373320D01*
X164509526Y-121373320D02*
X164414288Y-121420939D01*
X163842859Y-122039987D02*
X163938097Y-121992368D01*
X163938097Y-121992368D02*
X163985716Y-121944748D01*
X163985716Y-121944748D02*
X164033335Y-121849510D01*
X164033335Y-121849510D02*
X164033335Y-121563796D01*
X164033335Y-121563796D02*
X163985716Y-121468558D01*
X163985716Y-121468558D02*
X163938097Y-121420939D01*
X163938097Y-121420939D02*
X163842859Y-121373320D01*
X163842859Y-121373320D02*
X163700002Y-121373320D01*
X163700002Y-121373320D02*
X163604764Y-121420939D01*
X163604764Y-121420939D02*
X163557145Y-121468558D01*
X163557145Y-121468558D02*
X163509526Y-121563796D01*
X163509526Y-121563796D02*
X163509526Y-121849510D01*
X163509526Y-121849510D02*
X163557145Y-121944748D01*
X163557145Y-121944748D02*
X163604764Y-121992368D01*
X163604764Y-121992368D02*
X163700002Y-122039987D01*
X163700002Y-122039987D02*
X163842859Y-122039987D01*
X163080954Y-122039987D02*
X163080954Y-121373320D01*
X163080954Y-121468558D02*
X163033335Y-121420939D01*
X163033335Y-121420939D02*
X162938097Y-121373320D01*
X162938097Y-121373320D02*
X162795240Y-121373320D01*
X162795240Y-121373320D02*
X162700002Y-121420939D01*
X162700002Y-121420939D02*
X162652383Y-121516177D01*
X162652383Y-121516177D02*
X162652383Y-122039987D01*
X162652383Y-121516177D02*
X162604764Y-121420939D01*
X162604764Y-121420939D02*
X162509526Y-121373320D01*
X162509526Y-121373320D02*
X162366669Y-121373320D01*
X162366669Y-121373320D02*
X162271430Y-121420939D01*
X162271430Y-121420939D02*
X162223811Y-121516177D01*
X162223811Y-121516177D02*
X162223811Y-122039987D01*
X161033336Y-120992368D02*
X161890478Y-122278082D01*
X160700002Y-122039987D02*
X160700002Y-121039987D01*
X160700002Y-121039987D02*
X160461907Y-121039987D01*
X160461907Y-121039987D02*
X160319050Y-121087606D01*
X160319050Y-121087606D02*
X160223812Y-121182844D01*
X160223812Y-121182844D02*
X160176193Y-121278082D01*
X160176193Y-121278082D02*
X160128574Y-121468558D01*
X160128574Y-121468558D02*
X160128574Y-121611415D01*
X160128574Y-121611415D02*
X160176193Y-121801891D01*
X160176193Y-121801891D02*
X160223812Y-121897129D01*
X160223812Y-121897129D02*
X160319050Y-121992368D01*
X160319050Y-121992368D02*
X160461907Y-122039987D01*
X160461907Y-122039987D02*
X160700002Y-122039987D01*
X159319050Y-121992368D02*
X159414288Y-122039987D01*
X159414288Y-122039987D02*
X159604764Y-122039987D01*
X159604764Y-122039987D02*
X159700002Y-121992368D01*
X159700002Y-121992368D02*
X159747621Y-121897129D01*
X159747621Y-121897129D02*
X159747621Y-121516177D01*
X159747621Y-121516177D02*
X159700002Y-121420939D01*
X159700002Y-121420939D02*
X159604764Y-121373320D01*
X159604764Y-121373320D02*
X159414288Y-121373320D01*
X159414288Y-121373320D02*
X159319050Y-121420939D01*
X159319050Y-121420939D02*
X159271431Y-121516177D01*
X159271431Y-121516177D02*
X159271431Y-121611415D01*
X159271431Y-121611415D02*
X159747621Y-121706653D01*
X158842859Y-122039987D02*
X158842859Y-121373320D01*
X158842859Y-121563796D02*
X158795240Y-121468558D01*
X158795240Y-121468558D02*
X158747621Y-121420939D01*
X158747621Y-121420939D02*
X158652383Y-121373320D01*
X158652383Y-121373320D02*
X158557145Y-121373320D01*
X158271430Y-121992368D02*
X158128573Y-122039987D01*
X158128573Y-122039987D02*
X157890478Y-122039987D01*
X157890478Y-122039987D02*
X157795240Y-121992368D01*
X157795240Y-121992368D02*
X157747621Y-121944748D01*
X157747621Y-121944748D02*
X157700002Y-121849510D01*
X157700002Y-121849510D02*
X157700002Y-121754272D01*
X157700002Y-121754272D02*
X157747621Y-121659034D01*
X157747621Y-121659034D02*
X157795240Y-121611415D01*
X157795240Y-121611415D02*
X157890478Y-121563796D01*
X157890478Y-121563796D02*
X158080954Y-121516177D01*
X158080954Y-121516177D02*
X158176192Y-121468558D01*
X158176192Y-121468558D02*
X158223811Y-121420939D01*
X158223811Y-121420939D02*
X158271430Y-121325701D01*
X158271430Y-121325701D02*
X158271430Y-121230463D01*
X158271430Y-121230463D02*
X158223811Y-121135225D01*
X158223811Y-121135225D02*
X158176192Y-121087606D01*
X158176192Y-121087606D02*
X158080954Y-121039987D01*
X158080954Y-121039987D02*
X157842859Y-121039987D01*
X157842859Y-121039987D02*
X157700002Y-121087606D01*
X157271430Y-121373320D02*
X157271430Y-122373320D01*
X157271430Y-121420939D02*
X157176192Y-121373320D01*
X157176192Y-121373320D02*
X156985716Y-121373320D01*
X156985716Y-121373320D02*
X156890478Y-121420939D01*
X156890478Y-121420939D02*
X156842859Y-121468558D01*
X156842859Y-121468558D02*
X156795240Y-121563796D01*
X156795240Y-121563796D02*
X156795240Y-121849510D01*
X156795240Y-121849510D02*
X156842859Y-121944748D01*
X156842859Y-121944748D02*
X156890478Y-121992368D01*
X156890478Y-121992368D02*
X156985716Y-122039987D01*
X156985716Y-122039987D02*
X157176192Y-122039987D01*
X157176192Y-122039987D02*
X157271430Y-121992368D01*
X155938097Y-122039987D02*
X155938097Y-121516177D01*
X155938097Y-121516177D02*
X155985716Y-121420939D01*
X155985716Y-121420939D02*
X156080954Y-121373320D01*
X156080954Y-121373320D02*
X156271430Y-121373320D01*
X156271430Y-121373320D02*
X156366668Y-121420939D01*
X155938097Y-121992368D02*
X156033335Y-122039987D01*
X156033335Y-122039987D02*
X156271430Y-122039987D01*
X156271430Y-122039987D02*
X156366668Y-121992368D01*
X156366668Y-121992368D02*
X156414287Y-121897129D01*
X156414287Y-121897129D02*
X156414287Y-121801891D01*
X156414287Y-121801891D02*
X156366668Y-121706653D01*
X156366668Y-121706653D02*
X156271430Y-121659034D01*
X156271430Y-121659034D02*
X156033335Y-121659034D01*
X156033335Y-121659034D02*
X155938097Y-121611415D01*
X155604763Y-121373320D02*
X155223811Y-121373320D01*
X155461906Y-121039987D02*
X155461906Y-121897129D01*
X155461906Y-121897129D02*
X155414287Y-121992368D01*
X155414287Y-121992368D02*
X155319049Y-122039987D01*
X155319049Y-122039987D02*
X155223811Y-122039987D01*
X154985715Y-121373320D02*
X154461906Y-121373320D01*
X154461906Y-121373320D02*
X154985715Y-122039987D01*
X154985715Y-122039987D02*
X154461906Y-122039987D01*
X153366668Y-120992368D02*
X154223810Y-122278082D01*
X153033334Y-122039987D02*
X153033334Y-121039987D01*
X153033334Y-121039987D02*
X152652382Y-121039987D01*
X152652382Y-121039987D02*
X152557144Y-121087606D01*
X152557144Y-121087606D02*
X152509525Y-121135225D01*
X152509525Y-121135225D02*
X152461906Y-121230463D01*
X152461906Y-121230463D02*
X152461906Y-121373320D01*
X152461906Y-121373320D02*
X152509525Y-121468558D01*
X152509525Y-121468558D02*
X152557144Y-121516177D01*
X152557144Y-121516177D02*
X152652382Y-121563796D01*
X152652382Y-121563796D02*
X153033334Y-121563796D01*
X151461906Y-121944748D02*
X151509525Y-121992368D01*
X151509525Y-121992368D02*
X151652382Y-122039987D01*
X151652382Y-122039987D02*
X151747620Y-122039987D01*
X151747620Y-122039987D02*
X151890477Y-121992368D01*
X151890477Y-121992368D02*
X151985715Y-121897129D01*
X151985715Y-121897129D02*
X152033334Y-121801891D01*
X152033334Y-121801891D02*
X152080953Y-121611415D01*
X152080953Y-121611415D02*
X152080953Y-121468558D01*
X152080953Y-121468558D02*
X152033334Y-121278082D01*
X152033334Y-121278082D02*
X151985715Y-121182844D01*
X151985715Y-121182844D02*
X151890477Y-121087606D01*
X151890477Y-121087606D02*
X151747620Y-121039987D01*
X151747620Y-121039987D02*
X151652382Y-121039987D01*
X151652382Y-121039987D02*
X151509525Y-121087606D01*
X151509525Y-121087606D02*
X151461906Y-121135225D01*
X150700001Y-121516177D02*
X150557144Y-121563796D01*
X150557144Y-121563796D02*
X150509525Y-121611415D01*
X150509525Y-121611415D02*
X150461906Y-121706653D01*
X150461906Y-121706653D02*
X150461906Y-121849510D01*
X150461906Y-121849510D02*
X150509525Y-121944748D01*
X150509525Y-121944748D02*
X150557144Y-121992368D01*
X150557144Y-121992368D02*
X150652382Y-122039987D01*
X150652382Y-122039987D02*
X151033334Y-122039987D01*
X151033334Y-122039987D02*
X151033334Y-121039987D01*
X151033334Y-121039987D02*
X150700001Y-121039987D01*
X150700001Y-121039987D02*
X150604763Y-121087606D01*
X150604763Y-121087606D02*
X150557144Y-121135225D01*
X150557144Y-121135225D02*
X150509525Y-121230463D01*
X150509525Y-121230463D02*
X150509525Y-121325701D01*
X150509525Y-121325701D02*
X150557144Y-121420939D01*
X150557144Y-121420939D02*
X150604763Y-121468558D01*
X150604763Y-121468558D02*
X150700001Y-121516177D01*
X150700001Y-121516177D02*
X151033334Y-121516177D01*
X150033334Y-121659034D02*
X149271430Y-121659034D01*
X148795239Y-122039987D02*
X148795239Y-121373320D01*
X148795239Y-121563796D02*
X148747620Y-121468558D01*
X148747620Y-121468558D02*
X148700001Y-121420939D01*
X148700001Y-121420939D02*
X148604763Y-121373320D01*
X148604763Y-121373320D02*
X148509525Y-121373320D01*
X147795239Y-121992368D02*
X147890477Y-122039987D01*
X147890477Y-122039987D02*
X148080953Y-122039987D01*
X148080953Y-122039987D02*
X148176191Y-121992368D01*
X148176191Y-121992368D02*
X148223810Y-121897129D01*
X148223810Y-121897129D02*
X148223810Y-121516177D01*
X148223810Y-121516177D02*
X148176191Y-121420939D01*
X148176191Y-121420939D02*
X148080953Y-121373320D01*
X148080953Y-121373320D02*
X147890477Y-121373320D01*
X147890477Y-121373320D02*
X147795239Y-121420939D01*
X147795239Y-121420939D02*
X147747620Y-121516177D01*
X147747620Y-121516177D02*
X147747620Y-121611415D01*
X147747620Y-121611415D02*
X148223810Y-121706653D01*
X147461905Y-121373320D02*
X147080953Y-121373320D01*
X147319048Y-122039987D02*
X147319048Y-121182844D01*
X147319048Y-121182844D02*
X147271429Y-121087606D01*
X147271429Y-121087606D02*
X147176191Y-121039987D01*
X147176191Y-121039987D02*
X147080953Y-121039987D01*
X146604762Y-122039987D02*
X146700000Y-121992368D01*
X146700000Y-121992368D02*
X146747619Y-121897129D01*
X146747619Y-121897129D02*
X146747619Y-121039987D01*
X146080952Y-122039987D02*
X146176190Y-121992368D01*
X146176190Y-121992368D02*
X146223809Y-121944748D01*
X146223809Y-121944748D02*
X146271428Y-121849510D01*
X146271428Y-121849510D02*
X146271428Y-121563796D01*
X146271428Y-121563796D02*
X146223809Y-121468558D01*
X146223809Y-121468558D02*
X146176190Y-121420939D01*
X146176190Y-121420939D02*
X146080952Y-121373320D01*
X146080952Y-121373320D02*
X145938095Y-121373320D01*
X145938095Y-121373320D02*
X145842857Y-121420939D01*
X145842857Y-121420939D02*
X145795238Y-121468558D01*
X145795238Y-121468558D02*
X145747619Y-121563796D01*
X145747619Y-121563796D02*
X145747619Y-121849510D01*
X145747619Y-121849510D02*
X145795238Y-121944748D01*
X145795238Y-121944748D02*
X145842857Y-121992368D01*
X145842857Y-121992368D02*
X145938095Y-122039987D01*
X145938095Y-122039987D02*
X146080952Y-122039987D01*
X145414285Y-121373320D02*
X145223809Y-122039987D01*
X145223809Y-122039987D02*
X145033333Y-121563796D01*
X145033333Y-121563796D02*
X144842857Y-122039987D01*
X144842857Y-122039987D02*
X144652381Y-121373320D01*
X144271428Y-121659034D02*
X143509524Y-121659034D01*
X143080952Y-121992368D02*
X142985714Y-122039987D01*
X142985714Y-122039987D02*
X142795238Y-122039987D01*
X142795238Y-122039987D02*
X142700000Y-121992368D01*
X142700000Y-121992368D02*
X142652381Y-121897129D01*
X142652381Y-121897129D02*
X142652381Y-121849510D01*
X142652381Y-121849510D02*
X142700000Y-121754272D01*
X142700000Y-121754272D02*
X142795238Y-121706653D01*
X142795238Y-121706653D02*
X142938095Y-121706653D01*
X142938095Y-121706653D02*
X143033333Y-121659034D01*
X143033333Y-121659034D02*
X143080952Y-121563796D01*
X143080952Y-121563796D02*
X143080952Y-121516177D01*
X143080952Y-121516177D02*
X143033333Y-121420939D01*
X143033333Y-121420939D02*
X142938095Y-121373320D01*
X142938095Y-121373320D02*
X142795238Y-121373320D01*
X142795238Y-121373320D02*
X142700000Y-121420939D01*
X142080952Y-122039987D02*
X142176190Y-121992368D01*
X142176190Y-121992368D02*
X142223809Y-121944748D01*
X142223809Y-121944748D02*
X142271428Y-121849510D01*
X142271428Y-121849510D02*
X142271428Y-121563796D01*
X142271428Y-121563796D02*
X142223809Y-121468558D01*
X142223809Y-121468558D02*
X142176190Y-121420939D01*
X142176190Y-121420939D02*
X142080952Y-121373320D01*
X142080952Y-121373320D02*
X141938095Y-121373320D01*
X141938095Y-121373320D02*
X141842857Y-121420939D01*
X141842857Y-121420939D02*
X141795238Y-121468558D01*
X141795238Y-121468558D02*
X141747619Y-121563796D01*
X141747619Y-121563796D02*
X141747619Y-121849510D01*
X141747619Y-121849510D02*
X141795238Y-121944748D01*
X141795238Y-121944748D02*
X141842857Y-121992368D01*
X141842857Y-121992368D02*
X141938095Y-122039987D01*
X141938095Y-122039987D02*
X142080952Y-122039987D01*
X141176190Y-122039987D02*
X141271428Y-121992368D01*
X141271428Y-121992368D02*
X141319047Y-121897129D01*
X141319047Y-121897129D02*
X141319047Y-121039987D01*
X140366666Y-122039987D02*
X140366666Y-121039987D01*
X140366666Y-121992368D02*
X140461904Y-122039987D01*
X140461904Y-122039987D02*
X140652380Y-122039987D01*
X140652380Y-122039987D02*
X140747618Y-121992368D01*
X140747618Y-121992368D02*
X140795237Y-121944748D01*
X140795237Y-121944748D02*
X140842856Y-121849510D01*
X140842856Y-121849510D02*
X140842856Y-121563796D01*
X140842856Y-121563796D02*
X140795237Y-121468558D01*
X140795237Y-121468558D02*
X140747618Y-121420939D01*
X140747618Y-121420939D02*
X140652380Y-121373320D01*
X140652380Y-121373320D02*
X140461904Y-121373320D01*
X140461904Y-121373320D02*
X140366666Y-121420939D01*
X139509523Y-121992368D02*
X139604761Y-122039987D01*
X139604761Y-122039987D02*
X139795237Y-122039987D01*
X139795237Y-122039987D02*
X139890475Y-121992368D01*
X139890475Y-121992368D02*
X139938094Y-121897129D01*
X139938094Y-121897129D02*
X139938094Y-121516177D01*
X139938094Y-121516177D02*
X139890475Y-121420939D01*
X139890475Y-121420939D02*
X139795237Y-121373320D01*
X139795237Y-121373320D02*
X139604761Y-121373320D01*
X139604761Y-121373320D02*
X139509523Y-121420939D01*
X139509523Y-121420939D02*
X139461904Y-121516177D01*
X139461904Y-121516177D02*
X139461904Y-121611415D01*
X139461904Y-121611415D02*
X139938094Y-121706653D01*
X139033332Y-122039987D02*
X139033332Y-121373320D01*
X139033332Y-121563796D02*
X138985713Y-121468558D01*
X138985713Y-121468558D02*
X138938094Y-121420939D01*
X138938094Y-121420939D02*
X138842856Y-121373320D01*
X138842856Y-121373320D02*
X138747618Y-121373320D01*
X138414284Y-121659034D02*
X137652380Y-121659034D01*
X137176189Y-122039987D02*
X137176189Y-121039987D01*
X136747618Y-122039987D02*
X136747618Y-121516177D01*
X136747618Y-121516177D02*
X136795237Y-121420939D01*
X136795237Y-121420939D02*
X136890475Y-121373320D01*
X136890475Y-121373320D02*
X137033332Y-121373320D01*
X137033332Y-121373320D02*
X137128570Y-121420939D01*
X137128570Y-121420939D02*
X137176189Y-121468558D01*
X135890475Y-121992368D02*
X135985713Y-122039987D01*
X135985713Y-122039987D02*
X136176189Y-122039987D01*
X136176189Y-122039987D02*
X136271427Y-121992368D01*
X136271427Y-121992368D02*
X136319046Y-121897129D01*
X136319046Y-121897129D02*
X136319046Y-121516177D01*
X136319046Y-121516177D02*
X136271427Y-121420939D01*
X136271427Y-121420939D02*
X136176189Y-121373320D01*
X136176189Y-121373320D02*
X135985713Y-121373320D01*
X135985713Y-121373320D02*
X135890475Y-121420939D01*
X135890475Y-121420939D02*
X135842856Y-121516177D01*
X135842856Y-121516177D02*
X135842856Y-121611415D01*
X135842856Y-121611415D02*
X136319046Y-121706653D01*
X134985713Y-122039987D02*
X134985713Y-121516177D01*
X134985713Y-121516177D02*
X135033332Y-121420939D01*
X135033332Y-121420939D02*
X135128570Y-121373320D01*
X135128570Y-121373320D02*
X135319046Y-121373320D01*
X135319046Y-121373320D02*
X135414284Y-121420939D01*
X134985713Y-121992368D02*
X135080951Y-122039987D01*
X135080951Y-122039987D02*
X135319046Y-122039987D01*
X135319046Y-122039987D02*
X135414284Y-121992368D01*
X135414284Y-121992368D02*
X135461903Y-121897129D01*
X135461903Y-121897129D02*
X135461903Y-121801891D01*
X135461903Y-121801891D02*
X135414284Y-121706653D01*
X135414284Y-121706653D02*
X135319046Y-121659034D01*
X135319046Y-121659034D02*
X135080951Y-121659034D01*
X135080951Y-121659034D02*
X134985713Y-121611415D01*
X134652379Y-121373320D02*
X134271427Y-121373320D01*
X134509522Y-121039987D02*
X134509522Y-121897129D01*
X134509522Y-121897129D02*
X134461903Y-121992368D01*
X134461903Y-121992368D02*
X134366665Y-122039987D01*
X134366665Y-122039987D02*
X134271427Y-122039987D01*
X133938093Y-121659034D02*
X133176189Y-121659034D01*
X132699998Y-121373320D02*
X132699998Y-122373320D01*
X132699998Y-121420939D02*
X132604760Y-121373320D01*
X132604760Y-121373320D02*
X132414284Y-121373320D01*
X132414284Y-121373320D02*
X132319046Y-121420939D01*
X132319046Y-121420939D02*
X132271427Y-121468558D01*
X132271427Y-121468558D02*
X132223808Y-121563796D01*
X132223808Y-121563796D02*
X132223808Y-121849510D01*
X132223808Y-121849510D02*
X132271427Y-121944748D01*
X132271427Y-121944748D02*
X132319046Y-121992368D01*
X132319046Y-121992368D02*
X132414284Y-122039987D01*
X132414284Y-122039987D02*
X132604760Y-122039987D01*
X132604760Y-122039987D02*
X132699998Y-121992368D01*
X131652379Y-122039987D02*
X131747617Y-121992368D01*
X131747617Y-121992368D02*
X131795236Y-121897129D01*
X131795236Y-121897129D02*
X131795236Y-121039987D01*
X130842855Y-122039987D02*
X130842855Y-121516177D01*
X130842855Y-121516177D02*
X130890474Y-121420939D01*
X130890474Y-121420939D02*
X130985712Y-121373320D01*
X130985712Y-121373320D02*
X131176188Y-121373320D01*
X131176188Y-121373320D02*
X131271426Y-121420939D01*
X130842855Y-121992368D02*
X130938093Y-122039987D01*
X130938093Y-122039987D02*
X131176188Y-122039987D01*
X131176188Y-122039987D02*
X131271426Y-121992368D01*
X131271426Y-121992368D02*
X131319045Y-121897129D01*
X131319045Y-121897129D02*
X131319045Y-121801891D01*
X131319045Y-121801891D02*
X131271426Y-121706653D01*
X131271426Y-121706653D02*
X131176188Y-121659034D01*
X131176188Y-121659034D02*
X130938093Y-121659034D01*
X130938093Y-121659034D02*
X130842855Y-121611415D01*
X130509521Y-121373320D02*
X130128569Y-121373320D01*
X130366664Y-121039987D02*
X130366664Y-121897129D01*
X130366664Y-121897129D02*
X130319045Y-121992368D01*
X130319045Y-121992368D02*
X130223807Y-122039987D01*
X130223807Y-122039987D02*
X130128569Y-122039987D01*
X129414283Y-121992368D02*
X129509521Y-122039987D01*
X129509521Y-122039987D02*
X129699997Y-122039987D01*
X129699997Y-122039987D02*
X129795235Y-121992368D01*
X129795235Y-121992368D02*
X129842854Y-121897129D01*
X129842854Y-121897129D02*
X129842854Y-121516177D01*
X129842854Y-121516177D02*
X129795235Y-121420939D01*
X129795235Y-121420939D02*
X129699997Y-121373320D01*
X129699997Y-121373320D02*
X129509521Y-121373320D01*
X129509521Y-121373320D02*
X129414283Y-121420939D01*
X129414283Y-121420939D02*
X129366664Y-121516177D01*
X129366664Y-121516177D02*
X129366664Y-121611415D01*
X129366664Y-121611415D02*
X129842854Y-121706653D01*
X154914285Y-123126121D02*
X154771428Y-123173740D01*
X154771428Y-123173740D02*
X154723809Y-123221359D01*
X154723809Y-123221359D02*
X154676190Y-123316597D01*
X154676190Y-123316597D02*
X154676190Y-123459454D01*
X154676190Y-123459454D02*
X154723809Y-123554692D01*
X154723809Y-123554692D02*
X154771428Y-123602312D01*
X154771428Y-123602312D02*
X154866666Y-123649931D01*
X154866666Y-123649931D02*
X155247618Y-123649931D01*
X155247618Y-123649931D02*
X155247618Y-122649931D01*
X155247618Y-122649931D02*
X154914285Y-122649931D01*
X154914285Y-122649931D02*
X154819047Y-122697550D01*
X154819047Y-122697550D02*
X154771428Y-122745169D01*
X154771428Y-122745169D02*
X154723809Y-122840407D01*
X154723809Y-122840407D02*
X154723809Y-122935645D01*
X154723809Y-122935645D02*
X154771428Y-123030883D01*
X154771428Y-123030883D02*
X154819047Y-123078502D01*
X154819047Y-123078502D02*
X154914285Y-123126121D01*
X154914285Y-123126121D02*
X155247618Y-123126121D01*
X153819047Y-123649931D02*
X153819047Y-123126121D01*
X153819047Y-123126121D02*
X153866666Y-123030883D01*
X153866666Y-123030883D02*
X153961904Y-122983264D01*
X153961904Y-122983264D02*
X154152380Y-122983264D01*
X154152380Y-122983264D02*
X154247618Y-123030883D01*
X153819047Y-123602312D02*
X153914285Y-123649931D01*
X153914285Y-123649931D02*
X154152380Y-123649931D01*
X154152380Y-123649931D02*
X154247618Y-123602312D01*
X154247618Y-123602312D02*
X154295237Y-123507073D01*
X154295237Y-123507073D02*
X154295237Y-123411835D01*
X154295237Y-123411835D02*
X154247618Y-123316597D01*
X154247618Y-123316597D02*
X154152380Y-123268978D01*
X154152380Y-123268978D02*
X153914285Y-123268978D01*
X153914285Y-123268978D02*
X153819047Y-123221359D01*
X153390475Y-123602312D02*
X153295237Y-123649931D01*
X153295237Y-123649931D02*
X153104761Y-123649931D01*
X153104761Y-123649931D02*
X153009523Y-123602312D01*
X153009523Y-123602312D02*
X152961904Y-123507073D01*
X152961904Y-123507073D02*
X152961904Y-123459454D01*
X152961904Y-123459454D02*
X153009523Y-123364216D01*
X153009523Y-123364216D02*
X153104761Y-123316597D01*
X153104761Y-123316597D02*
X153247618Y-123316597D01*
X153247618Y-123316597D02*
X153342856Y-123268978D01*
X153342856Y-123268978D02*
X153390475Y-123173740D01*
X153390475Y-123173740D02*
X153390475Y-123126121D01*
X153390475Y-123126121D02*
X153342856Y-123030883D01*
X153342856Y-123030883D02*
X153247618Y-122983264D01*
X153247618Y-122983264D02*
X153104761Y-122983264D01*
X153104761Y-122983264D02*
X153009523Y-123030883D01*
X152676189Y-122983264D02*
X152295237Y-122983264D01*
X152533332Y-122649931D02*
X152533332Y-123507073D01*
X152533332Y-123507073D02*
X152485713Y-123602312D01*
X152485713Y-123602312D02*
X152390475Y-123649931D01*
X152390475Y-123649931D02*
X152295237Y-123649931D01*
X151961903Y-123649931D02*
X151961903Y-122983264D01*
X151961903Y-122649931D02*
X152009522Y-122697550D01*
X152009522Y-122697550D02*
X151961903Y-122745169D01*
X151961903Y-122745169D02*
X151914284Y-122697550D01*
X151914284Y-122697550D02*
X151961903Y-122649931D01*
X151961903Y-122649931D02*
X151961903Y-122745169D01*
X151057142Y-123649931D02*
X151057142Y-123126121D01*
X151057142Y-123126121D02*
X151104761Y-123030883D01*
X151104761Y-123030883D02*
X151199999Y-122983264D01*
X151199999Y-122983264D02*
X151390475Y-122983264D01*
X151390475Y-122983264D02*
X151485713Y-123030883D01*
X151057142Y-123602312D02*
X151152380Y-123649931D01*
X151152380Y-123649931D02*
X151390475Y-123649931D01*
X151390475Y-123649931D02*
X151485713Y-123602312D01*
X151485713Y-123602312D02*
X151533332Y-123507073D01*
X151533332Y-123507073D02*
X151533332Y-123411835D01*
X151533332Y-123411835D02*
X151485713Y-123316597D01*
X151485713Y-123316597D02*
X151390475Y-123268978D01*
X151390475Y-123268978D02*
X151152380Y-123268978D01*
X151152380Y-123268978D02*
X151057142Y-123221359D01*
X150580951Y-122983264D02*
X150580951Y-123649931D01*
X150580951Y-123078502D02*
X150533332Y-123030883D01*
X150533332Y-123030883D02*
X150438094Y-122983264D01*
X150438094Y-122983264D02*
X150295237Y-122983264D01*
X150295237Y-122983264D02*
X150199999Y-123030883D01*
X150199999Y-123030883D02*
X150152380Y-123126121D01*
X150152380Y-123126121D02*
X150152380Y-123649931D01*
X148914284Y-123649931D02*
X148914284Y-122649931D01*
X148914284Y-122649931D02*
X148580951Y-123364216D01*
X148580951Y-123364216D02*
X148247618Y-122649931D01*
X148247618Y-122649931D02*
X148247618Y-123649931D01*
X147628570Y-123649931D02*
X147723808Y-123602312D01*
X147723808Y-123602312D02*
X147771427Y-123554692D01*
X147771427Y-123554692D02*
X147819046Y-123459454D01*
X147819046Y-123459454D02*
X147819046Y-123173740D01*
X147819046Y-123173740D02*
X147771427Y-123078502D01*
X147771427Y-123078502D02*
X147723808Y-123030883D01*
X147723808Y-123030883D02*
X147628570Y-122983264D01*
X147628570Y-122983264D02*
X147485713Y-122983264D01*
X147485713Y-122983264D02*
X147390475Y-123030883D01*
X147390475Y-123030883D02*
X147342856Y-123078502D01*
X147342856Y-123078502D02*
X147295237Y-123173740D01*
X147295237Y-123173740D02*
X147295237Y-123459454D01*
X147295237Y-123459454D02*
X147342856Y-123554692D01*
X147342856Y-123554692D02*
X147390475Y-123602312D01*
X147390475Y-123602312D02*
X147485713Y-123649931D01*
X147485713Y-123649931D02*
X147628570Y-123649931D01*
X146866665Y-123649931D02*
X146866665Y-122649931D01*
X146438094Y-123649931D02*
X146438094Y-123126121D01*
X146438094Y-123126121D02*
X146485713Y-123030883D01*
X146485713Y-123030883D02*
X146580951Y-122983264D01*
X146580951Y-122983264D02*
X146723808Y-122983264D01*
X146723808Y-122983264D02*
X146819046Y-123030883D01*
X146819046Y-123030883D02*
X146866665Y-123078502D01*
X145961903Y-123649931D02*
X145961903Y-122983264D01*
X145961903Y-122649931D02*
X146009522Y-122697550D01*
X146009522Y-122697550D02*
X145961903Y-122745169D01*
X145961903Y-122745169D02*
X145914284Y-122697550D01*
X145914284Y-122697550D02*
X145961903Y-122649931D01*
X145961903Y-122649931D02*
X145961903Y-122745169D01*
X145485713Y-122983264D02*
X145485713Y-123649931D01*
X145485713Y-123078502D02*
X145438094Y-123030883D01*
X145438094Y-123030883D02*
X145342856Y-122983264D01*
X145342856Y-122983264D02*
X145199999Y-122983264D01*
X145199999Y-122983264D02*
X145104761Y-123030883D01*
X145104761Y-123030883D02*
X145057142Y-123126121D01*
X145057142Y-123126121D02*
X145057142Y-123649931D01*
X144152380Y-122983264D02*
X144152380Y-123792788D01*
X144152380Y-123792788D02*
X144199999Y-123888026D01*
X144199999Y-123888026D02*
X144247618Y-123935645D01*
X144247618Y-123935645D02*
X144342856Y-123983264D01*
X144342856Y-123983264D02*
X144485713Y-123983264D01*
X144485713Y-123983264D02*
X144580951Y-123935645D01*
X144152380Y-123602312D02*
X144247618Y-123649931D01*
X144247618Y-123649931D02*
X144438094Y-123649931D01*
X144438094Y-123649931D02*
X144533332Y-123602312D01*
X144533332Y-123602312D02*
X144580951Y-123554692D01*
X144580951Y-123554692D02*
X144628570Y-123459454D01*
X144628570Y-123459454D02*
X144628570Y-123173740D01*
X144628570Y-123173740D02*
X144580951Y-123078502D01*
X144580951Y-123078502D02*
X144533332Y-123030883D01*
X144533332Y-123030883D02*
X144438094Y-122983264D01*
X144438094Y-122983264D02*
X144247618Y-122983264D01*
X144247618Y-122983264D02*
X144152380Y-123030883D01*
X154390476Y-125259875D02*
X154390476Y-124259875D01*
X154390476Y-124259875D02*
X153819048Y-125259875D01*
X153819048Y-125259875D02*
X153819048Y-124259875D01*
X152914286Y-125259875D02*
X152914286Y-124736065D01*
X152914286Y-124736065D02*
X152961905Y-124640827D01*
X152961905Y-124640827D02*
X153057143Y-124593208D01*
X153057143Y-124593208D02*
X153247619Y-124593208D01*
X153247619Y-124593208D02*
X153342857Y-124640827D01*
X152914286Y-125212256D02*
X153009524Y-125259875D01*
X153009524Y-125259875D02*
X153247619Y-125259875D01*
X153247619Y-125259875D02*
X153342857Y-125212256D01*
X153342857Y-125212256D02*
X153390476Y-125117017D01*
X153390476Y-125117017D02*
X153390476Y-125021779D01*
X153390476Y-125021779D02*
X153342857Y-124926541D01*
X153342857Y-124926541D02*
X153247619Y-124878922D01*
X153247619Y-124878922D02*
X153009524Y-124878922D01*
X153009524Y-124878922D02*
X152914286Y-124831303D01*
X152580952Y-124593208D02*
X152200000Y-124593208D01*
X152438095Y-124259875D02*
X152438095Y-125117017D01*
X152438095Y-125117017D02*
X152390476Y-125212256D01*
X152390476Y-125212256D02*
X152295238Y-125259875D01*
X152295238Y-125259875D02*
X152200000Y-125259875D01*
X151866666Y-125259875D02*
X151866666Y-124259875D01*
X151438095Y-125259875D02*
X151438095Y-124736065D01*
X151438095Y-124736065D02*
X151485714Y-124640827D01*
X151485714Y-124640827D02*
X151580952Y-124593208D01*
X151580952Y-124593208D02*
X151723809Y-124593208D01*
X151723809Y-124593208D02*
X151819047Y-124640827D01*
X151819047Y-124640827D02*
X151866666Y-124688446D01*
X150533333Y-125259875D02*
X150533333Y-124736065D01*
X150533333Y-124736065D02*
X150580952Y-124640827D01*
X150580952Y-124640827D02*
X150676190Y-124593208D01*
X150676190Y-124593208D02*
X150866666Y-124593208D01*
X150866666Y-124593208D02*
X150961904Y-124640827D01*
X150533333Y-125212256D02*
X150628571Y-125259875D01*
X150628571Y-125259875D02*
X150866666Y-125259875D01*
X150866666Y-125259875D02*
X150961904Y-125212256D01*
X150961904Y-125212256D02*
X151009523Y-125117017D01*
X151009523Y-125117017D02*
X151009523Y-125021779D01*
X151009523Y-125021779D02*
X150961904Y-124926541D01*
X150961904Y-124926541D02*
X150866666Y-124878922D01*
X150866666Y-124878922D02*
X150628571Y-124878922D01*
X150628571Y-124878922D02*
X150533333Y-124831303D01*
X150057142Y-124593208D02*
X150057142Y-125259875D01*
X150057142Y-124688446D02*
X150009523Y-124640827D01*
X150009523Y-124640827D02*
X149914285Y-124593208D01*
X149914285Y-124593208D02*
X149771428Y-124593208D01*
X149771428Y-124593208D02*
X149676190Y-124640827D01*
X149676190Y-124640827D02*
X149628571Y-124736065D01*
X149628571Y-124736065D02*
X149628571Y-125259875D01*
X148390475Y-125259875D02*
X148390475Y-124259875D01*
X148390475Y-124736065D02*
X147819047Y-124736065D01*
X147819047Y-125259875D02*
X147819047Y-124259875D01*
X146961904Y-125212256D02*
X147057142Y-125259875D01*
X147057142Y-125259875D02*
X147247618Y-125259875D01*
X147247618Y-125259875D02*
X147342856Y-125212256D01*
X147342856Y-125212256D02*
X147390475Y-125117017D01*
X147390475Y-125117017D02*
X147390475Y-124736065D01*
X147390475Y-124736065D02*
X147342856Y-124640827D01*
X147342856Y-124640827D02*
X147247618Y-124593208D01*
X147247618Y-124593208D02*
X147057142Y-124593208D01*
X147057142Y-124593208D02*
X146961904Y-124640827D01*
X146961904Y-124640827D02*
X146914285Y-124736065D01*
X146914285Y-124736065D02*
X146914285Y-124831303D01*
X146914285Y-124831303D02*
X147390475Y-124926541D01*
X146485713Y-125259875D02*
X146485713Y-124593208D01*
X146485713Y-124259875D02*
X146533332Y-124307494D01*
X146533332Y-124307494D02*
X146485713Y-124355113D01*
X146485713Y-124355113D02*
X146438094Y-124307494D01*
X146438094Y-124307494D02*
X146485713Y-124259875D01*
X146485713Y-124259875D02*
X146485713Y-124355113D01*
X145580952Y-125259875D02*
X145580952Y-124259875D01*
X145580952Y-125212256D02*
X145676190Y-125259875D01*
X145676190Y-125259875D02*
X145866666Y-125259875D01*
X145866666Y-125259875D02*
X145961904Y-125212256D01*
X145961904Y-125212256D02*
X146009523Y-125164636D01*
X146009523Y-125164636D02*
X146057142Y-125069398D01*
X146057142Y-125069398D02*
X146057142Y-124783684D01*
X146057142Y-124783684D02*
X146009523Y-124688446D01*
X146009523Y-124688446D02*
X145961904Y-124640827D01*
X145961904Y-124640827D02*
X145866666Y-124593208D01*
X145866666Y-124593208D02*
X145676190Y-124593208D01*
X145676190Y-124593208D02*
X145580952Y-124640827D01*
X145247618Y-124593208D02*
X144866666Y-124593208D01*
X145104761Y-124259875D02*
X145104761Y-125117017D01*
X145104761Y-125117017D02*
X145057142Y-125212256D01*
X145057142Y-125212256D02*
X144961904Y-125259875D01*
X144961904Y-125259875D02*
X144866666Y-125259875D01*
X154033333Y-126869819D02*
X154033333Y-125869819D01*
X154033333Y-125869819D02*
X153700000Y-126584104D01*
X153700000Y-126584104D02*
X153366667Y-125869819D01*
X153366667Y-125869819D02*
X153366667Y-126869819D01*
X152461905Y-126869819D02*
X152461905Y-126346009D01*
X152461905Y-126346009D02*
X152509524Y-126250771D01*
X152509524Y-126250771D02*
X152604762Y-126203152D01*
X152604762Y-126203152D02*
X152795238Y-126203152D01*
X152795238Y-126203152D02*
X152890476Y-126250771D01*
X152461905Y-126822200D02*
X152557143Y-126869819D01*
X152557143Y-126869819D02*
X152795238Y-126869819D01*
X152795238Y-126869819D02*
X152890476Y-126822200D01*
X152890476Y-126822200D02*
X152938095Y-126726961D01*
X152938095Y-126726961D02*
X152938095Y-126631723D01*
X152938095Y-126631723D02*
X152890476Y-126536485D01*
X152890476Y-126536485D02*
X152795238Y-126488866D01*
X152795238Y-126488866D02*
X152557143Y-126488866D01*
X152557143Y-126488866D02*
X152461905Y-126441247D01*
X151985714Y-126869819D02*
X151985714Y-126203152D01*
X151985714Y-126393628D02*
X151938095Y-126298390D01*
X151938095Y-126298390D02*
X151890476Y-126250771D01*
X151890476Y-126250771D02*
X151795238Y-126203152D01*
X151795238Y-126203152D02*
X151700000Y-126203152D01*
X151223809Y-126869819D02*
X151319047Y-126822200D01*
X151319047Y-126822200D02*
X151366666Y-126726961D01*
X151366666Y-126726961D02*
X151366666Y-125869819D01*
X150842856Y-126869819D02*
X150842856Y-126203152D01*
X150842856Y-125869819D02*
X150890475Y-125917438D01*
X150890475Y-125917438D02*
X150842856Y-125965057D01*
X150842856Y-125965057D02*
X150795237Y-125917438D01*
X150795237Y-125917438D02*
X150842856Y-125869819D01*
X150842856Y-125869819D02*
X150842856Y-125965057D01*
X150366666Y-126203152D02*
X150366666Y-126869819D01*
X150366666Y-126298390D02*
X150319047Y-126250771D01*
X150319047Y-126250771D02*
X150223809Y-126203152D01*
X150223809Y-126203152D02*
X150080952Y-126203152D01*
X150080952Y-126203152D02*
X149985714Y-126250771D01*
X149985714Y-126250771D02*
X149938095Y-126346009D01*
X149938095Y-126346009D02*
X149938095Y-126869819D01*
X148747618Y-126822200D02*
X148604761Y-126869819D01*
X148604761Y-126869819D02*
X148366666Y-126869819D01*
X148366666Y-126869819D02*
X148271428Y-126822200D01*
X148271428Y-126822200D02*
X148223809Y-126774580D01*
X148223809Y-126774580D02*
X148176190Y-126679342D01*
X148176190Y-126679342D02*
X148176190Y-126584104D01*
X148176190Y-126584104D02*
X148223809Y-126488866D01*
X148223809Y-126488866D02*
X148271428Y-126441247D01*
X148271428Y-126441247D02*
X148366666Y-126393628D01*
X148366666Y-126393628D02*
X148557142Y-126346009D01*
X148557142Y-126346009D02*
X148652380Y-126298390D01*
X148652380Y-126298390D02*
X148699999Y-126250771D01*
X148699999Y-126250771D02*
X148747618Y-126155533D01*
X148747618Y-126155533D02*
X148747618Y-126060295D01*
X148747618Y-126060295D02*
X148699999Y-125965057D01*
X148699999Y-125965057D02*
X148652380Y-125917438D01*
X148652380Y-125917438D02*
X148557142Y-125869819D01*
X148557142Y-125869819D02*
X148319047Y-125869819D01*
X148319047Y-125869819D02*
X148176190Y-125917438D01*
X147747618Y-126869819D02*
X147747618Y-125869819D01*
X147319047Y-126869819D02*
X147319047Y-126346009D01*
X147319047Y-126346009D02*
X147366666Y-126250771D01*
X147366666Y-126250771D02*
X147461904Y-126203152D01*
X147461904Y-126203152D02*
X147604761Y-126203152D01*
X147604761Y-126203152D02*
X147699999Y-126250771D01*
X147699999Y-126250771D02*
X147747618Y-126298390D01*
X146414285Y-126869819D02*
X146414285Y-126346009D01*
X146414285Y-126346009D02*
X146461904Y-126250771D01*
X146461904Y-126250771D02*
X146557142Y-126203152D01*
X146557142Y-126203152D02*
X146747618Y-126203152D01*
X146747618Y-126203152D02*
X146842856Y-126250771D01*
X146414285Y-126822200D02*
X146509523Y-126869819D01*
X146509523Y-126869819D02*
X146747618Y-126869819D01*
X146747618Y-126869819D02*
X146842856Y-126822200D01*
X146842856Y-126822200D02*
X146890475Y-126726961D01*
X146890475Y-126726961D02*
X146890475Y-126631723D01*
X146890475Y-126631723D02*
X146842856Y-126536485D01*
X146842856Y-126536485D02*
X146747618Y-126488866D01*
X146747618Y-126488866D02*
X146509523Y-126488866D01*
X146509523Y-126488866D02*
X146414285Y-126441247D01*
X146033332Y-126203152D02*
X145842856Y-126869819D01*
X145842856Y-126869819D02*
X145652380Y-126393628D01*
X145652380Y-126393628D02*
X145461904Y-126869819D01*
X145461904Y-126869819D02*
X145271428Y-126203152D01*
M02*
