%TF.GenerationSoftware,KiCad,Pcbnew,9.0.6*%
%TF.CreationDate,2026-05-03T18:52:29-07:00*%
%TF.ProjectId,hotplate01,686f7470-6c61-4746-9530-312e6b696361,1*%
%TF.SameCoordinates,Original*%
%TF.FileFunction,Profile,NP*%
%FSLAX46Y46*%
G04 Gerber Fmt 4.6, Leading zero omitted, Abs format (unit mm)*
G04 Created by KiCad (PCBNEW 9.0.6) date 2026-05-03 18:52:29*
%MOMM*%
%LPD*%
G01*
G04 APERTURE LIST*
%TA.AperFunction,Profile*%
%ADD10C,0.100000*%
%TD*%
G04 APERTURE END LIST*
D10*
X196950000Y-72210000D02*
X102971320Y-72220904D01*
X99935759Y-75256465D02*
G75*
G02*
X102971320Y-72220859I3035641J-35D01*
G01*
X200028680Y-185728700D02*
X199950000Y-75210000D01*
X200028680Y-185728680D02*
G75*
G02*
X197028680Y-188728680I-2999980J-20D01*
G01*
X196950000Y-72210000D02*
G75*
G02*
X199950000Y-75210000I0J-3000000D01*
G01*
X103021320Y-188778680D02*
G75*
G02*
X100021320Y-185778680I-20J2999980D01*
G01*
X99935759Y-75256500D02*
X100021321Y-185778679D01*
X103021300Y-188778680D02*
X197028700Y-188728680D01*
X110000000Y-112000000D02*
X147500000Y-112000000D01*
X110000000Y-115000000D02*
G75*
G02*
X109500000Y-114500000I0J500000D01*
G01*
X109500000Y-112500000D02*
G75*
G02*
X110000000Y-112000000I500000J0D01*
G01*
X147500000Y-112000000D02*
G75*
G02*
X148000000Y-112500000I0J-500000D01*
G01*
X148000000Y-114500000D02*
G75*
G02*
X147500000Y-115000000I-500000J0D01*
G01*
X109500000Y-114500000D02*
X109500000Y-112500000D01*
X147500000Y-115000000D02*
X110000000Y-115000000D01*
X148000000Y-112500000D02*
X148000000Y-114500000D01*
X190146447Y-115000000D02*
X152646447Y-115000000D01*
X152146447Y-112500000D02*
G75*
G02*
X152646447Y-112000000I500001J-1D01*
G01*
X190146447Y-112000000D02*
G75*
G02*
X190646447Y-112500000I-1J-500001D01*
G01*
X190646447Y-114500000D02*
G75*
G02*
X190146447Y-115000000I-500001J1D01*
G01*
X190646447Y-112500000D02*
X190646447Y-114500000D01*
X152646447Y-115000000D02*
G75*
G02*
X152146447Y-114500000I1J500001D01*
G01*
X152146447Y-114500000D02*
X152146447Y-112500000D01*
X152646447Y-112000000D02*
X190146447Y-112000000D01*
M02*
