%TF.GenerationSoftware,KiCad,Pcbnew,9.0.6*%
%TF.CreationDate,2026-05-03T18:52:29-07:00*%
%TF.ProjectId,hotplate01,686f7470-6c61-4746-9530-312e6b696361,1*%
%TF.SameCoordinates,Original*%
%TF.FileFunction,Copper,L1,Top*%
%TF.FilePolarity,Positive*%
%FSLAX46Y46*%
G04 Gerber Fmt 4.6, Leading zero omitted, Abs format (unit mm)*
G04 Created by KiCad (PCBNEW 9.0.6) date 2026-05-03 18:52:29*
%MOMM*%
%LPD*%
G01*
G04 APERTURE LIST*
G04 Aperture macros list*
%AMRoundRect*
0 Rectangle with rounded corners*
0 $1 Rounding radius*
0 $2 $3 $4 $5 $6 $7 $8 $9 X,Y pos of 4 corners*
0 Add a 4 corners polygon primitive as box body*
4,1,4,$2,$3,$4,$5,$6,$7,$8,$9,$2,$3,0*
0 Add four circle primitives for the rounded corners*
1,1,$1+$1,$2,$3*
1,1,$1+$1,$4,$5*
1,1,$1+$1,$6,$7*
1,1,$1+$1,$8,$9*
0 Add four rect primitives between the rounded corners*
20,1,$1+$1,$2,$3,$4,$5,0*
20,1,$1+$1,$4,$5,$6,$7,0*
20,1,$1+$1,$6,$7,$8,$9,0*
20,1,$1+$1,$8,$9,$2,$3,0*%
G04 Aperture macros list end*
%TA.AperFunction,EtchedComponent*%
%ADD10C,0.000000*%
%TD*%
%TA.AperFunction,SMDPad,CuDef*%
%ADD11RoundRect,0.250000X0.337500X1.450000X-0.337500X1.450000X-0.337500X-1.450000X0.337500X-1.450000X0*%
%TD*%
%TA.AperFunction,SMDPad,CuDef*%
%ADD12RoundRect,0.250000X1.450000X-0.337500X1.450000X0.337500X-1.450000X0.337500X-1.450000X-0.337500X0*%
%TD*%
%TA.AperFunction,ComponentPad*%
%ADD13RoundRect,0.250000X0.550000X0.550000X-0.550000X0.550000X-0.550000X-0.550000X0.550000X-0.550000X0*%
%TD*%
%TA.AperFunction,ComponentPad*%
%ADD14C,1.600000*%
%TD*%
%TA.AperFunction,ComponentPad*%
%ADD15R,1.050000X1.500000*%
%TD*%
%TA.AperFunction,ComponentPad*%
%ADD16O,1.050000X1.500000*%
%TD*%
%TA.AperFunction,SMDPad,CuDef*%
%ADD17RoundRect,0.250000X-0.337500X-0.475000X0.337500X-0.475000X0.337500X0.475000X-0.337500X0.475000X0*%
%TD*%
%TA.AperFunction,ComponentPad*%
%ADD18R,1.600000X1.600000*%
%TD*%
%TA.AperFunction,ComponentPad*%
%ADD19O,1.600000X1.600000*%
%TD*%
%TA.AperFunction,ComponentPad*%
%ADD20R,1.905000X2.000000*%
%TD*%
%TA.AperFunction,ComponentPad*%
%ADD21O,1.905000X2.000000*%
%TD*%
%TA.AperFunction,SMDPad,CuDef*%
%ADD22RoundRect,0.250000X-1.450000X0.337500X-1.450000X-0.337500X1.450000X-0.337500X1.450000X0.337500X0*%
%TD*%
%TA.AperFunction,SMDPad,CuDef*%
%ADD23C,1.300000*%
%TD*%
%TA.AperFunction,SMDPad,CuDef*%
%ADD24RoundRect,0.250000X-0.337500X-1.450000X0.337500X-1.450000X0.337500X1.450000X-0.337500X1.450000X0*%
%TD*%
%TA.AperFunction,ComponentPad*%
%ADD25C,2.000000*%
%TD*%
%TA.AperFunction,ComponentPad*%
%ADD26RoundRect,0.249999X0.850001X-0.850001X0.850001X0.850001X-0.850001X0.850001X-0.850001X-0.850001X0*%
%TD*%
%TA.AperFunction,ComponentPad*%
%ADD27C,2.200000*%
%TD*%
%TA.AperFunction,ComponentPad*%
%ADD28RoundRect,0.250000X-0.550000X-0.550000X0.550000X-0.550000X0.550000X0.550000X-0.550000X0.550000X0*%
%TD*%
%TA.AperFunction,ComponentPad*%
%ADD29RoundRect,0.250000X-0.550000X0.550000X-0.550000X-0.550000X0.550000X-0.550000X0.550000X0.550000X0*%
%TD*%
%TA.AperFunction,ComponentPad*%
%ADD30R,3.500000X3.500000*%
%TD*%
%TA.AperFunction,ComponentPad*%
%ADD31RoundRect,0.750000X-0.750000X-1.000000X0.750000X-1.000000X0.750000X1.000000X-0.750000X1.000000X0*%
%TD*%
%TA.AperFunction,ComponentPad*%
%ADD32RoundRect,0.875000X-0.875000X-0.875000X0.875000X-0.875000X0.875000X0.875000X-0.875000X0.875000X0*%
%TD*%
%TA.AperFunction,ComponentPad*%
%ADD33RoundRect,0.249999X-0.850001X-0.850001X0.850001X-0.850001X0.850001X0.850001X-0.850001X0.850001X0*%
%TD*%
%TA.AperFunction,ComponentPad*%
%ADD34R,1.800000X1.800000*%
%TD*%
%TA.AperFunction,ComponentPad*%
%ADD35C,1.800000*%
%TD*%
%TA.AperFunction,ComponentPad*%
%ADD36R,1.500000X1.050000*%
%TD*%
%TA.AperFunction,ComponentPad*%
%ADD37O,1.500000X1.050000*%
%TD*%
%TA.AperFunction,ComponentPad*%
%ADD38RoundRect,0.249999X0.850001X0.850001X-0.850001X0.850001X-0.850001X-0.850001X0.850001X-0.850001X0*%
%TD*%
%TA.AperFunction,SMDPad,CuDef*%
%ADD39RoundRect,0.250001X-0.799999X-2.474999X0.799999X-2.474999X0.799999X2.474999X-0.799999X2.474999X0*%
%TD*%
%TA.AperFunction,ViaPad*%
%ADD40C,0.800000*%
%TD*%
%TA.AperFunction,ViaPad*%
%ADD41C,0.600000*%
%TD*%
%TA.AperFunction,Conductor*%
%ADD42C,0.500000*%
%TD*%
%TA.AperFunction,Conductor*%
%ADD43C,1.300000*%
%TD*%
%TA.AperFunction,Conductor*%
%ADD44C,0.250000*%
%TD*%
G04 APERTURE END LIST*
D10*
%TA.AperFunction,EtchedComponent*%
%TO.C,NT101*%
G36*
X148789746Y-117250000D02*
G01*
X144789746Y-117250000D01*
X144789746Y-115950000D01*
X148789746Y-115950000D01*
X148789746Y-117250000D01*
G37*
%TD.AperFunction*%
%TA.AperFunction,EtchedComponent*%
%TO.C,NT102*%
G36*
X155189746Y-117250000D02*
G01*
X151189746Y-117250000D01*
X151189746Y-115950000D01*
X155189746Y-115950000D01*
X155189746Y-117250000D01*
G37*
%TD.AperFunction*%
%TD*%
D11*
%TO.P,R107,1*%
%TO.N,+5V*%
X177305000Y-90000000D03*
%TO.P,R107,2*%
%TO.N,/SDA*%
X175630000Y-90000000D03*
%TD*%
D12*
%TO.P,R105,2*%
%TO.N,GND*%
X147000000Y-90912500D03*
%TO.P,R105,1*%
%TO.N,/AREF*%
X147000000Y-92587500D03*
%TD*%
%TO.P,R102,2*%
%TO.N,GND*%
X131750000Y-83662500D03*
%TO.P,R102,1*%
%TO.N,Net-(Q101-G)*%
X131750000Y-85337500D03*
%TD*%
D11*
%TO.P,R109,1*%
%TO.N,Net-(D103-A)*%
X164337500Y-90000000D03*
%TO.P,R109,2*%
%TO.N,/LED*%
X162662500Y-90000000D03*
%TD*%
D12*
%TO.P,R101,1*%
%TO.N,Net-(J101-Pad3)*%
X115250000Y-94837500D03*
%TO.P,R101,2*%
%TO.N,Net-(Q101-D)*%
X115250000Y-93162500D03*
%TD*%
D13*
%TO.P,C103,1*%
%TO.N,VCC*%
X124750000Y-105610000D03*
D14*
%TO.P,C103,2*%
%TO.N,GND*%
X121250000Y-105610000D03*
%TD*%
D15*
%TO.P,U103,1,V_{DD}*%
%TO.N,+5V*%
X196200000Y-131050000D03*
D16*
%TO.P,U103,2,OUT*%
%TO.N,Net-(U103-OUT)*%
X194930000Y-131050000D03*
%TO.P,U103,3,GND*%
%TO.N,GND*%
X193660000Y-131050000D03*
%TD*%
D17*
%TO.P,C106,1*%
%TO.N,/SW1*%
X194702500Y-111230000D03*
%TO.P,C106,2*%
%TO.N,GND*%
X196777500Y-111230000D03*
%TD*%
D18*
%TO.P,A101,1,D1/TX*%
%TO.N,unconnected-(A101-D1{slash}TX-Pad1)*%
X157820000Y-108720000D03*
D19*
%TO.P,A101,2,D0/RX*%
%TO.N,unconnected-(A101-D0{slash}RX-Pad2)*%
X160360000Y-108720000D03*
%TO.P,A101,3,~{RESET}*%
%TO.N,unconnected-(A101-~{RESET}-Pad3)*%
X162900000Y-108720000D03*
%TO.P,A101,4,GND*%
%TO.N,GND*%
X165440000Y-108720000D03*
%TO.P,A101,5,D2*%
%TO.N,unconnected-(A101-D2-Pad5)*%
X167980000Y-108720000D03*
%TO.P,A101,6,D3*%
%TO.N,/GATE*%
X170520000Y-108720000D03*
%TO.P,A101,7,D4*%
%TO.N,unconnected-(A101-D4-Pad7)*%
X173060000Y-108720000D03*
%TO.P,A101,8,D5*%
%TO.N,unconnected-(A101-D5-Pad8)*%
X175600000Y-108720000D03*
%TO.P,A101,9,D6*%
%TO.N,unconnected-(A101-D6-Pad9)*%
X178140000Y-108720000D03*
%TO.P,A101,10,D7*%
%TO.N,unconnected-(A101-D7-Pad10)*%
X180680000Y-108720000D03*
%TO.P,A101,11,D8*%
%TO.N,unconnected-(A101-D8-Pad11)*%
X183220000Y-108720000D03*
%TO.P,A101,12,D9*%
%TO.N,unconnected-(A101-D9-Pad12)*%
X185760000Y-108720000D03*
%TO.P,A101,13,D10*%
%TO.N,unconnected-(A101-D10-Pad13)*%
X188300000Y-108720000D03*
%TO.P,A101,14,D11*%
%TO.N,/LED*%
X190840000Y-108720000D03*
%TO.P,A101,15,D12*%
%TO.N,/SW1*%
X193380000Y-108720000D03*
%TO.P,A101,16,D13*%
%TO.N,/SW2*%
X193380000Y-93480000D03*
%TO.P,A101,17,3V3*%
%TO.N,unconnected-(A101-3V3-Pad17)*%
X190840000Y-93480000D03*
%TO.P,A101,18,AREF*%
%TO.N,/AREF*%
X188300000Y-93480000D03*
%TO.P,A101,19,A0*%
%TO.N,unconnected-(A101-A0-Pad19)*%
X185760000Y-93480000D03*
%TO.P,A101,20,A1*%
%TO.N,/TEMP*%
X183220000Y-93480000D03*
%TO.P,A101,21,A2*%
%TO.N,unconnected-(A101-A2-Pad21)*%
X180680000Y-93480000D03*
%TO.P,A101,22,A3*%
%TO.N,unconnected-(A101-A3-Pad22)*%
X178140000Y-93480000D03*
%TO.P,A101,23,A4*%
%TO.N,/SDA*%
X175600000Y-93480000D03*
%TO.P,A101,24,A5*%
%TO.N,/SCL*%
X173060000Y-93480000D03*
%TO.P,A101,25,A6*%
%TO.N,unconnected-(A101-A6-Pad25)*%
X170520000Y-93480000D03*
%TO.P,A101,26,A7*%
%TO.N,unconnected-(A101-A7-Pad26)*%
X167980000Y-93480000D03*
%TO.P,A101,27,+5V*%
%TO.N,+5V*%
X165440000Y-93480000D03*
%TO.P,A101,28,~{RESET}*%
%TO.N,unconnected-(A101-~{RESET}-Pad28)*%
X162900000Y-93480000D03*
%TO.P,A101,29,GND*%
%TO.N,GND*%
X160360000Y-93480000D03*
%TO.P,A101,30,VIN*%
%TO.N,Net-(A101-VIN)*%
X157820000Y-93480000D03*
%TD*%
D20*
%TO.P,Q101,1,G*%
%TO.N,Net-(Q101-G)*%
X133940000Y-87680000D03*
D21*
%TO.P,Q101,2,D*%
%TO.N,VCC*%
X131400000Y-87680000D03*
%TO.P,Q101,3,S*%
%TO.N,Net-(Q101-D)*%
X128860000Y-87680000D03*
%TD*%
D22*
%TO.P,R103,1*%
%TO.N,Net-(J101-Pad3)*%
X115250000Y-96750000D03*
%TO.P,R103,2*%
%TO.N,VCC*%
X115250000Y-98425000D03*
%TD*%
D23*
%TO.P,NT101,1,1*%
%TO.N,/HOTPLATE*%
X144700000Y-116600000D03*
%TO.P,NT101,2,2*%
%TO.N,VCC*%
X148900000Y-116600000D03*
%TD*%
D13*
%TO.P,C102,1*%
%TO.N,VCC*%
X124652651Y-96500000D03*
D14*
%TO.P,C102,2*%
%TO.N,GND*%
X121152651Y-96500000D03*
%TD*%
D24*
%TO.P,R108,1*%
%TO.N,+5V*%
X169662500Y-90000000D03*
%TO.P,R108,2*%
%TO.N,/SCL*%
X171337500Y-90000000D03*
%TD*%
D22*
%TO.P,R104,1*%
%TO.N,Net-(D101-K)*%
X151250000Y-90162500D03*
%TO.P,R104,2*%
%TO.N,/AREF*%
X151250000Y-91837500D03*
%TD*%
D25*
%TO.P,SW102,1,1*%
%TO.N,GND*%
X191950000Y-81250000D03*
X198450000Y-81250000D03*
%TO.P,SW102,2,2*%
%TO.N,/SW2*%
X191950000Y-85750000D03*
X198450000Y-85750000D03*
%TD*%
D12*
%TO.P,R112,1*%
%TO.N,VCC*%
X139250000Y-103837500D03*
%TO.P,R112,2*%
%TO.N,Net-(Q102-C)*%
X139250000Y-102162500D03*
%TD*%
D26*
%TO.P,D101,1,K*%
%TO.N,Net-(D101-K)*%
X138450000Y-95280000D03*
D27*
%TO.P,D101,2,A*%
%TO.N,VCC*%
X138450000Y-85120000D03*
%TD*%
D28*
%TO.P,C104,1*%
%TO.N,VCC*%
X130000000Y-96500000D03*
D14*
%TO.P,C104,2*%
%TO.N,GND*%
X133500000Y-96500000D03*
%TD*%
D29*
%TO.P,C105,1*%
%TO.N,VCC*%
X132500000Y-103900000D03*
D14*
%TO.P,C105,2*%
%TO.N,GND*%
X132500000Y-107400000D03*
%TD*%
D30*
%TO.P,J101,1*%
%TO.N,Net-(F101-Pad1)*%
X114260000Y-87422500D03*
D31*
%TO.P,J101,2*%
%TO.N,GND*%
X108260000Y-87422500D03*
D32*
%TO.P,J101,3*%
%TO.N,Net-(J101-Pad3)*%
X111260000Y-92122500D03*
%TD*%
D33*
%TO.P,D104,1,K*%
%TO.N,VCC*%
X141000000Y-108137500D03*
D27*
%TO.P,D104,2,A*%
%TO.N,Net-(D104-A)*%
X151160000Y-108137500D03*
%TD*%
D34*
%TO.P,D103,1,K*%
%TO.N,GND*%
X185575000Y-84010000D03*
D35*
%TO.P,D103,2,A*%
%TO.N,Net-(D103-A)*%
X183035000Y-84010000D03*
%TD*%
D17*
%TO.P,C107,1*%
%TO.N,/TEMP*%
X183462500Y-90810000D03*
%TO.P,C107,2*%
%TO.N,GND*%
X185537500Y-90810000D03*
%TD*%
D36*
%TO.P,Q102,1,E*%
%TO.N,GND*%
X144500000Y-97262500D03*
D37*
%TO.P,Q102,2,B*%
%TO.N,Net-(Q102-B)*%
X144500000Y-98532500D03*
%TO.P,Q102,3,C*%
%TO.N,Net-(Q102-C)*%
X144500000Y-99802500D03*
%TD*%
D12*
%TO.P,R111,1*%
%TO.N,+5V*%
X151270000Y-100240000D03*
%TO.P,R111,2*%
%TO.N,Net-(Q102-B)*%
X151270000Y-98565000D03*
%TD*%
D38*
%TO.P,D102,1,K*%
%TO.N,Net-(A101-VIN)*%
X151830000Y-87500000D03*
D27*
%TO.P,D102,2,A*%
%TO.N,VCC*%
X141670000Y-87500000D03*
%TD*%
D25*
%TO.P,SW101,1,1*%
%TO.N,GND*%
X182500000Y-73750000D03*
X189000000Y-73750000D03*
%TO.P,SW101,2,2*%
%TO.N,/SW1*%
X182500000Y-78250000D03*
X189000000Y-78250000D03*
%TD*%
D23*
%TO.P,NT102,1,1*%
%TO.N,Net-(D104-A)*%
X151100000Y-116600000D03*
%TO.P,NT102,2,2*%
%TO.N,/HOTPLATE*%
X155300000Y-116600000D03*
%TD*%
D12*
%TO.P,R106,1*%
%TO.N,/TEMP*%
X180500000Y-91087500D03*
%TO.P,R106,2*%
%TO.N,Net-(U103-OUT)*%
X180500000Y-89412500D03*
%TD*%
D25*
%TO.P,U102,1,SDA*%
%TO.N,/SDA*%
X144000000Y-75940000D03*
%TO.P,U102,2,SCL*%
%TO.N,/SCL*%
X144000000Y-78480000D03*
%TO.P,U102,3,VCC*%
%TO.N,+5V*%
X144000000Y-81020000D03*
%TO.P,U102,4,GND*%
%TO.N,GND*%
X144000000Y-83560000D03*
%TD*%
D20*
%TO.P,Q103,1,G*%
%TO.N,Net-(Q102-C)*%
X144110000Y-104707500D03*
D21*
%TO.P,Q103,2,D*%
%TO.N,Net-(D104-A)*%
X146650000Y-104707500D03*
%TO.P,Q103,3,S*%
%TO.N,GND*%
X149190000Y-104707500D03*
%TD*%
D22*
%TO.P,R110,1*%
%TO.N,/GATE*%
X151250000Y-95162500D03*
%TO.P,R110,2*%
%TO.N,Net-(Q102-B)*%
X151250000Y-96837500D03*
%TD*%
D17*
%TO.P,C101,1*%
%TO.N,Net-(Q101-D)*%
X126785000Y-85130000D03*
%TO.P,C101,2*%
%TO.N,Net-(Q101-G)*%
X128860000Y-85130000D03*
%TD*%
%TO.P,C108,1*%
%TO.N,/SW2*%
X193212500Y-90750000D03*
%TO.P,C108,2*%
%TO.N,GND*%
X195287500Y-90750000D03*
%TD*%
D39*
%TO.P,F101,1*%
%TO.N,Net-(F101-Pad1)*%
X117635000Y-85880000D03*
%TO.P,F101,2*%
%TO.N,Net-(Q101-D)*%
X124585000Y-85880000D03*
%TD*%
D40*
%TO.N,Net-(D103-A)*%
X179250000Y-84750000D03*
%TO.N,Net-(U103-OUT)*%
X188300000Y-96200000D03*
X185200000Y-102600000D03*
%TO.N,+5V*%
X190000000Y-96400000D03*
X190000000Y-104300000D03*
%TO.N,Net-(Q101-D)*%
X121600000Y-89000000D03*
X117700000Y-90700000D03*
%TO.N,+5V*%
X178100000Y-87100000D03*
X181600000Y-87800000D03*
D41*
X196500000Y-124500000D03*
X164000000Y-94500000D03*
X161000000Y-100500000D03*
%TO.N,/SW1*%
X192000000Y-107750000D03*
X189750000Y-86750000D03*
%TO.N,GND*%
X194250000Y-124500000D03*
%TO.N,/LED*%
X161500000Y-92000000D03*
X161250000Y-97000000D03*
D40*
%TO.N,Net-(D103-A)*%
X165250000Y-87000000D03*
D41*
%TO.N,Net-(U103-OUT)*%
X195500000Y-124500000D03*
%TD*%
D42*
%TO.N,/TEMP*%
X183200000Y-93460000D02*
X183220000Y-93480000D01*
X183462500Y-90810000D02*
X183200000Y-91072500D01*
X183200000Y-91072500D02*
X183200000Y-93460000D01*
D43*
%TO.N,VCC*%
X149000000Y-111000000D02*
X141000000Y-111000000D01*
X149000000Y-116500000D02*
X149000000Y-111000000D01*
X141000000Y-111000000D02*
X141000000Y-108137500D01*
X148900000Y-116600000D02*
X149000000Y-116500000D01*
%TO.N,Net-(D104-A)*%
X151160000Y-116540000D02*
X151160000Y-108137500D01*
D42*
X151100000Y-116600000D02*
X151160000Y-116540000D01*
D43*
X151160000Y-108137500D02*
X151000000Y-108297500D01*
D42*
%TO.N,/SW2*%
X191950000Y-86150000D02*
X191950000Y-85750000D01*
X193212500Y-90750000D02*
X193212500Y-87412500D01*
X193212500Y-87412500D02*
X191950000Y-86150000D01*
X193212500Y-90750000D02*
X193200000Y-90737500D01*
%TO.N,GND*%
X198400000Y-81200000D02*
X198450000Y-81250000D01*
X192000000Y-81200000D02*
X198400000Y-81200000D01*
X191950000Y-81250000D02*
X192000000Y-81200000D01*
%TO.N,Net-(Q101-G)*%
X129067500Y-85337500D02*
X128860000Y-85130000D01*
X131750000Y-85337500D02*
X129067500Y-85337500D01*
X133637500Y-85337500D02*
X131750000Y-85337500D01*
X133940000Y-85640000D02*
X133637500Y-85337500D01*
D44*
%TO.N,Net-(U103-OUT)*%
X189500000Y-94700000D02*
X189500000Y-92250000D01*
X188300000Y-95900000D02*
X189500000Y-94700000D01*
X188300000Y-96200000D02*
X188300000Y-95900000D01*
X185200000Y-102700000D02*
X185200000Y-102600000D01*
X189500000Y-107000000D02*
X185200000Y-102700000D01*
%TO.N,+5V*%
X190000000Y-96400000D02*
X190000000Y-95500000D01*
X190000000Y-105250000D02*
X190000000Y-104300000D01*
%TO.N,Net-(Q101-D)*%
X121600000Y-89000000D02*
X121600000Y-88865000D01*
X117512500Y-90887500D02*
X117700000Y-90700000D01*
X121600000Y-88865000D02*
X124585000Y-85880000D01*
X117512500Y-90900000D02*
X117512500Y-90887500D01*
%TO.N,+5V*%
X177305000Y-87895000D02*
X177305000Y-90000000D01*
X178100000Y-87100000D02*
X177305000Y-87895000D01*
X181650000Y-87750000D02*
X181600000Y-87800000D01*
X192000000Y-87750000D02*
X181650000Y-87750000D01*
D42*
%TO.N,Net-(J101-Pad3)*%
X111300000Y-92162500D02*
X111260000Y-92122500D01*
X111300000Y-94800000D02*
X111300000Y-92162500D01*
X111400000Y-94900000D02*
X111300000Y-94800000D01*
X115250000Y-94837500D02*
X115187500Y-94900000D01*
X115187500Y-94900000D02*
X111400000Y-94900000D01*
%TO.N,Net-(Q101-D)*%
X115287500Y-93200000D02*
X115187500Y-93300000D01*
X115250000Y-93162500D02*
X117512500Y-90900000D01*
%TO.N,Net-(A101-VIN)*%
X151830000Y-87500000D02*
X157810000Y-93480000D01*
X157810000Y-93480000D02*
X157820000Y-93480000D01*
D44*
%TO.N,+5V*%
X199500000Y-110500000D02*
X199500000Y-116750000D01*
X192250000Y-94250000D02*
X191500000Y-95000000D01*
X196600000Y-119650000D02*
X196600000Y-124400000D01*
X151270000Y-100240000D02*
X159740000Y-100240000D01*
X169662500Y-90000000D02*
X169662500Y-92087500D01*
X194250000Y-105250000D02*
X199500000Y-110500000D01*
X192250000Y-88000000D02*
X192250000Y-94250000D01*
X160500000Y-101000000D02*
X161000000Y-100500000D01*
X176750000Y-95000000D02*
X174250000Y-95000000D01*
X177305000Y-90000000D02*
X176750000Y-90555000D01*
X190000000Y-105250000D02*
X194250000Y-105250000D01*
X164420000Y-94500000D02*
X165440000Y-93480000D01*
X169250000Y-92500000D02*
X169250000Y-95000000D01*
X167500000Y-91250000D02*
X165440000Y-93310000D01*
X144000000Y-81020000D02*
X160520000Y-81020000D01*
X159740000Y-100240000D02*
X160500000Y-101000000D01*
X192000000Y-87750000D02*
X192250000Y-88000000D01*
X191500000Y-95000000D02*
X190500000Y-95000000D01*
X164000000Y-94500000D02*
X164420000Y-94500000D01*
X196600000Y-130650000D02*
X196200000Y-131050000D01*
X160520000Y-81020000D02*
X167500000Y-88000000D01*
X196600000Y-124400000D02*
X196500000Y-124500000D01*
X169250000Y-95000000D02*
X166960000Y-95000000D01*
X190500000Y-95000000D02*
X190000000Y-95500000D01*
X176750000Y-90555000D02*
X176750000Y-95000000D01*
X174250000Y-95000000D02*
X171750000Y-95000000D01*
X167500000Y-88000000D02*
X167500000Y-91250000D01*
X169662500Y-92087500D02*
X169250000Y-92500000D01*
X166960000Y-95000000D02*
X165440000Y-93480000D01*
X199500000Y-116750000D02*
X196600000Y-119650000D01*
X171750000Y-95000000D02*
X169250000Y-95000000D01*
X165440000Y-93310000D02*
X165440000Y-93480000D01*
%TO.N,/SW1*%
X194702500Y-111230000D02*
X194702500Y-110042500D01*
X193380000Y-108720000D02*
X192410000Y-107750000D01*
X192410000Y-107750000D02*
X192000000Y-107750000D01*
D42*
X182500000Y-78250000D02*
X189000000Y-78250000D01*
D44*
X189750000Y-79000000D02*
X189000000Y-78250000D01*
X194702500Y-110042500D02*
X193380000Y-108720000D01*
X189750000Y-86750000D02*
X189750000Y-79000000D01*
%TO.N,GND*%
X196777500Y-116472500D02*
X194250000Y-119000000D01*
X194250000Y-119000000D02*
X194250000Y-124500000D01*
D42*
X182500000Y-73750000D02*
X189000000Y-73750000D01*
D44*
X193660000Y-131050000D02*
X194060000Y-130650000D01*
X196777500Y-116472500D02*
X196777500Y-111230000D01*
%TO.N,/GATE*%
X151412500Y-95000000D02*
X151250000Y-95162500D01*
X154000000Y-95000000D02*
X151412500Y-95000000D01*
X170520000Y-108720000D02*
X170520000Y-108520000D01*
X170520000Y-108520000D02*
X160000000Y-98000000D01*
X160000000Y-98000000D02*
X157000000Y-98000000D01*
X157000000Y-98000000D02*
X154000000Y-95000000D01*
%TO.N,/SDA*%
X164440000Y-75940000D02*
X175630000Y-87130000D01*
X175630000Y-87130000D02*
X175630000Y-90000000D01*
X175630000Y-93450000D02*
X175600000Y-93480000D01*
X175630000Y-90000000D02*
X175630000Y-93450000D01*
X144000000Y-75940000D02*
X164440000Y-75940000D01*
%TO.N,/LED*%
X190220000Y-108720000D02*
X185750000Y-104250000D01*
X161500000Y-91162500D02*
X162662500Y-90000000D01*
X190840000Y-108720000D02*
X190220000Y-108720000D01*
X161500000Y-92000000D02*
X161500000Y-91162500D01*
X185750000Y-104250000D02*
X178500000Y-97000000D01*
X178500000Y-97000000D02*
X161250000Y-97000000D01*
D42*
%TO.N,/AREF*%
X151250000Y-91837500D02*
X151837500Y-91837500D01*
X150500000Y-92587500D02*
X147000000Y-92587500D01*
X186030000Y-95750000D02*
X188300000Y-93480000D01*
X155750000Y-95750000D02*
X186030000Y-95750000D01*
X151837500Y-91837500D02*
X155750000Y-95750000D01*
X151250000Y-91837500D02*
X150500000Y-92587500D01*
D44*
%TO.N,/SCL*%
X171250000Y-89912500D02*
X171337500Y-90000000D01*
X144000000Y-78480000D02*
X163730000Y-78480000D01*
X171337500Y-91757500D02*
X173060000Y-93480000D01*
X171337500Y-90000000D02*
X171337500Y-91757500D01*
X163730000Y-78480000D02*
X171250000Y-86000000D01*
X171250000Y-86000000D02*
X171250000Y-89912500D01*
D42*
%TO.N,/SW2*%
X191950000Y-85750000D02*
X198450000Y-85750000D01*
X193380000Y-90917500D02*
X193212500Y-90750000D01*
X193380000Y-93480000D02*
X193380000Y-90917500D01*
%TO.N,/TEMP*%
X180500000Y-91087500D02*
X183185000Y-91087500D01*
X183185000Y-91087500D02*
X183462500Y-90810000D01*
%TO.N,Net-(Q101-G)*%
X133940000Y-87680000D02*
X133940000Y-85640000D01*
%TO.N,VCC*%
X139250000Y-103837500D02*
X130302500Y-103837500D01*
X138450000Y-90000000D02*
X139170000Y-90000000D01*
X138450000Y-85120000D02*
X138450000Y-90000000D01*
X139170000Y-90000000D02*
X141670000Y-87500000D01*
X138450000Y-85120000D02*
X139290000Y-85120000D01*
X135500000Y-93250000D02*
X130000000Y-93250000D01*
X130302500Y-103837500D02*
X130300000Y-103840000D01*
X138450000Y-90000000D02*
X138450000Y-90300000D01*
X138450000Y-90300000D02*
X135500000Y-93250000D01*
X115250000Y-98425000D02*
X124425000Y-98425000D01*
%TO.N,Net-(D101-K)*%
X141500000Y-92230000D02*
X141500000Y-89500000D01*
X141500000Y-89500000D02*
X150587500Y-89500000D01*
X138450000Y-95280000D02*
X141500000Y-92230000D01*
X150587500Y-89500000D02*
X151250000Y-90162500D01*
D44*
%TO.N,Net-(D103-A)*%
X164250000Y-89912500D02*
X164250000Y-87000000D01*
X164250000Y-87000000D02*
X165250000Y-87000000D01*
X182295000Y-84750000D02*
X183035000Y-84010000D01*
X179250000Y-84750000D02*
X182295000Y-84750000D01*
X164337500Y-90000000D02*
X164250000Y-89912500D01*
D42*
%TO.N,Net-(D104-A)*%
X146650000Y-104707500D02*
X150080000Y-108137500D01*
X150080000Y-108137500D02*
X151160000Y-108137500D01*
%TO.N,Net-(J101-Pad3)*%
X115250000Y-96750000D02*
X115250000Y-94800000D01*
D43*
%TO.N,/HOTPLATE*%
X182400000Y-118200000D02*
X182400000Y-183600000D01*
X161400000Y-183600000D02*
X161400000Y-118200000D01*
X174200000Y-118200000D02*
X172600000Y-118200000D01*
X142200000Y-183600000D02*
X142200000Y-118200000D01*
X169400000Y-118200000D02*
X169400000Y-183600000D01*
X155000000Y-118200000D02*
X153400000Y-118200000D01*
X158200000Y-118200000D02*
X156600000Y-118200000D01*
X151800000Y-183600000D02*
X151800000Y-118200000D01*
X166200000Y-118200000D02*
X166200000Y-183600000D01*
X182400000Y-183600000D02*
X180600000Y-183600000D01*
X167800000Y-118200000D02*
X166200000Y-118200000D01*
X187800000Y-183600000D02*
X187800000Y-118200000D01*
X121400000Y-183600000D02*
X119800000Y-183600000D01*
X134200000Y-118200000D02*
X134200000Y-183600000D01*
X137400000Y-118200000D02*
X137400000Y-183600000D01*
X139000000Y-118200000D02*
X137400000Y-118200000D01*
X179000000Y-118200000D02*
X179000000Y-183600000D01*
X126200000Y-183600000D02*
X126200000Y-118200000D01*
X164600000Y-118200000D02*
X163000000Y-118200000D01*
X129400000Y-118200000D02*
X127800000Y-118200000D01*
X189600000Y-116600000D02*
X189600000Y-183600000D01*
X171000000Y-118200000D02*
X169400000Y-118200000D01*
X135800000Y-183600000D02*
X135800000Y-118200000D01*
X153400000Y-118200000D02*
X153400000Y-183600000D01*
X134200000Y-183600000D02*
X132600000Y-183600000D01*
X148600000Y-118200000D02*
X147000000Y-118200000D01*
X179000000Y-183600000D02*
X177400000Y-183600000D01*
X123000000Y-118200000D02*
X121400000Y-118200000D01*
X110200000Y-116600000D02*
X144700000Y-116600000D01*
X169400000Y-183600000D02*
X167800000Y-183600000D01*
X184200000Y-183600000D02*
X184200000Y-118200000D01*
X159800000Y-183600000D02*
X158200000Y-183600000D01*
X113400000Y-183600000D02*
X113400000Y-118200000D01*
X175800000Y-118200000D02*
X175800000Y-183600000D01*
X163000000Y-183600000D02*
X161400000Y-183600000D01*
X186000000Y-118200000D02*
X186000000Y-183600000D01*
X145400000Y-183600000D02*
X145400000Y-118200000D01*
X123000000Y-183600000D02*
X123000000Y-118200000D01*
X153400000Y-183600000D02*
X151800000Y-183600000D01*
X132600000Y-118200000D02*
X131000000Y-118200000D01*
X110200000Y-183600000D02*
X110200000Y-116600000D01*
X159800000Y-118200000D02*
X159800000Y-183600000D01*
X140600000Y-118200000D02*
X140600000Y-183600000D01*
X187800000Y-118200000D02*
X186000000Y-118200000D01*
X137400000Y-183600000D02*
X135800000Y-183600000D01*
X131000000Y-183600000D02*
X129400000Y-183600000D01*
X167800000Y-183600000D02*
X167800000Y-118200000D01*
X143800000Y-183600000D02*
X142200000Y-183600000D01*
X158200000Y-183600000D02*
X158200000Y-118200000D01*
X119800000Y-118200000D02*
X118200000Y-118200000D01*
X156600000Y-118200000D02*
X156600000Y-183600000D01*
X151800000Y-118200000D02*
X150200000Y-118200000D01*
X142200000Y-118200000D02*
X140600000Y-118200000D01*
X186000000Y-183600000D02*
X184200000Y-183600000D01*
X129400000Y-183600000D02*
X129400000Y-118200000D01*
X113400000Y-118200000D02*
X111800000Y-118200000D01*
X140600000Y-183600000D02*
X139000000Y-183600000D01*
X118200000Y-118200000D02*
X118200000Y-183600000D01*
X156600000Y-183600000D02*
X155000000Y-183600000D01*
X139000000Y-183600000D02*
X139000000Y-118200000D01*
X150200000Y-183600000D02*
X148600000Y-183600000D01*
X111800000Y-183600000D02*
X110200000Y-183600000D01*
X126200000Y-118200000D02*
X124600000Y-118200000D01*
X127800000Y-118200000D02*
X127800000Y-183600000D01*
X145400000Y-118200000D02*
X143800000Y-118200000D01*
X155000000Y-183600000D02*
X155000000Y-118200000D01*
X147000000Y-183600000D02*
X145400000Y-183600000D01*
X147000000Y-118200000D02*
X147000000Y-183600000D01*
X121400000Y-118200000D02*
X121400000Y-183600000D01*
X189600000Y-183600000D02*
X187800000Y-183600000D01*
X124600000Y-118200000D02*
X124600000Y-183600000D01*
X143800000Y-118200000D02*
X143800000Y-183600000D01*
X116600000Y-118200000D02*
X115000000Y-118200000D01*
X124600000Y-183600000D02*
X123000000Y-183600000D01*
X163000000Y-118200000D02*
X163000000Y-183600000D01*
X174200000Y-183600000D02*
X174200000Y-118200000D01*
X116600000Y-183600000D02*
X116600000Y-118200000D01*
X177400000Y-118200000D02*
X175800000Y-118200000D01*
X172600000Y-183600000D02*
X171000000Y-183600000D01*
X118200000Y-183600000D02*
X116600000Y-183600000D01*
X119800000Y-183600000D02*
X119800000Y-118200000D01*
X161400000Y-118200000D02*
X159800000Y-118200000D01*
X171000000Y-183600000D02*
X171000000Y-118200000D01*
X184200000Y-118200000D02*
X182400000Y-118200000D01*
X180600000Y-183600000D02*
X180600000Y-118200000D01*
X131000000Y-118200000D02*
X131000000Y-183600000D01*
X180600000Y-118200000D02*
X179000000Y-118200000D01*
X115000000Y-118200000D02*
X115000000Y-183600000D01*
X172600000Y-118200000D02*
X172600000Y-183600000D01*
X148600000Y-183600000D02*
X148600000Y-118200000D01*
X177400000Y-183600000D02*
X177400000Y-118200000D01*
X155400000Y-116600000D02*
X189600000Y-116600000D01*
X175800000Y-183600000D02*
X174200000Y-183600000D01*
X115000000Y-183600000D02*
X113400000Y-183600000D01*
X164600000Y-183600000D02*
X164600000Y-118200000D01*
X166200000Y-183600000D02*
X164600000Y-183600000D01*
X150200000Y-118200000D02*
X150200000Y-183600000D01*
X132600000Y-183600000D02*
X132600000Y-118200000D01*
X127800000Y-183600000D02*
X126200000Y-183600000D01*
X111800000Y-118200000D02*
X111800000Y-183600000D01*
X135800000Y-118200000D02*
X134200000Y-118200000D01*
D42*
%TO.N,Net-(Q102-B)*%
X144532500Y-98565000D02*
X144500000Y-98532500D01*
X151270000Y-98565000D02*
X144532500Y-98565000D01*
X151237500Y-98532500D02*
X151270000Y-98565000D01*
X151250000Y-96837500D02*
X151250000Y-98545000D01*
X151250000Y-98545000D02*
X151270000Y-98565000D01*
%TO.N,Net-(Q102-C)*%
X141565000Y-102162500D02*
X139250000Y-102162500D01*
X143910000Y-102162500D02*
X143910000Y-100392500D01*
X143910000Y-102162500D02*
X139250000Y-102162500D01*
X144110000Y-104707500D02*
X141565000Y-102162500D01*
X143910000Y-100392500D02*
X144500000Y-99802500D01*
D44*
%TO.N,Net-(U103-OUT)*%
X199000000Y-115750000D02*
X195500000Y-119250000D01*
X195500000Y-119250000D02*
X195500000Y-124500000D01*
X199000000Y-110750000D02*
X199000000Y-115750000D01*
X180500000Y-89412500D02*
X186662500Y-89412500D01*
X195250000Y-107000000D02*
X199000000Y-110750000D01*
X186662500Y-89412500D02*
X189500000Y-92250000D01*
X195330000Y-130650000D02*
X194930000Y-131050000D01*
X189500000Y-107000000D02*
X195250000Y-107000000D01*
%TD*%
%TA.AperFunction,Conductor*%
%TO.N,VCC*%
G36*
X132813811Y-86169685D02*
G01*
X132859566Y-86222489D01*
X132869510Y-86291647D01*
X132868046Y-86299859D01*
X132810991Y-86567436D01*
X132806031Y-86590696D01*
X132798633Y-86601769D01*
X132787000Y-86660252D01*
X132787000Y-86679960D01*
X132784274Y-86692746D01*
X132784274Y-86692747D01*
X131695296Y-91800000D01*
X131652651Y-92000001D01*
X131652651Y-102100000D01*
X131652650Y-102100000D01*
X132954938Y-102339557D01*
X137514515Y-103178295D01*
X137561473Y-103197483D01*
X140971094Y-105500000D01*
X142543320Y-106561724D01*
X142587861Y-106615556D01*
X142597863Y-106668360D01*
X142503634Y-109683688D01*
X142481866Y-109750080D01*
X142427658Y-109794163D01*
X142383693Y-109803751D01*
X139516899Y-109896229D01*
X139449260Y-109878716D01*
X139401826Y-109827414D01*
X139389411Y-109783523D01*
X139000000Y-105500000D01*
X134500000Y-105350000D01*
X130000001Y-105200000D01*
X130000000Y-105200000D01*
X125132837Y-108117815D01*
X125129437Y-108119853D01*
X125065679Y-108137500D01*
X123225009Y-108137500D01*
X123157970Y-108117815D01*
X123112215Y-108065011D01*
X123101013Y-108012495D01*
X123123810Y-105200001D01*
X123199414Y-95872284D01*
X123219641Y-95805407D01*
X123263188Y-95764895D01*
X130400000Y-91800000D01*
X129926457Y-86284606D01*
X129940334Y-86216130D01*
X129989031Y-86166026D01*
X130050002Y-86150000D01*
X132746772Y-86150000D01*
X132813811Y-86169685D01*
G37*
%TD.AperFunction*%
%TD*%
%TA.AperFunction,Conductor*%
%TO.N,Net-(F101-Pad1)*%
G36*
X118496507Y-83166956D02*
G01*
X118533134Y-83179772D01*
X118565812Y-83197043D01*
X118595160Y-83218703D01*
X118595961Y-83219504D01*
X118596509Y-83219713D01*
X118621296Y-83244839D01*
X118642956Y-83274187D01*
X118660228Y-83306867D01*
X118673041Y-83343485D01*
X118679999Y-83384439D01*
X118679999Y-88375558D01*
X118673041Y-88416511D01*
X118660228Y-88453130D01*
X118659697Y-88454133D01*
X118659660Y-88454718D01*
X118642957Y-88485809D01*
X118621297Y-88515158D01*
X118595158Y-88541297D01*
X118565809Y-88562957D01*
X118533132Y-88580227D01*
X118496515Y-88593040D01*
X118455560Y-88599999D01*
X116814440Y-88599999D01*
X116810351Y-88599304D01*
X116808119Y-88599838D01*
X116773488Y-88593041D01*
X116736864Y-88580226D01*
X116704190Y-88562958D01*
X116674835Y-88541293D01*
X116648702Y-88515159D01*
X116599622Y-88448656D01*
X116599603Y-88448632D01*
X116585145Y-88431151D01*
X116566579Y-88411073D01*
X116566577Y-88411072D01*
X116501074Y-88363670D01*
X116501069Y-88363667D01*
X116437521Y-88334645D01*
X116414049Y-88325617D01*
X116414046Y-88325616D01*
X116322903Y-88318163D01*
X116322901Y-88318163D01*
X116253745Y-88328107D01*
X116229127Y-88333200D01*
X116229126Y-88333200D01*
X116148416Y-88376209D01*
X116148413Y-88376211D01*
X116095604Y-88421970D01*
X116077660Y-88439552D01*
X116077654Y-88439559D01*
X116033011Y-88519369D01*
X116033009Y-88519374D01*
X116013326Y-88586406D01*
X116013325Y-88586411D01*
X116013325Y-88586412D01*
X116010111Y-88608769D01*
X116005000Y-88644313D01*
X116005000Y-89043500D01*
X115985315Y-89110539D01*
X115932511Y-89156294D01*
X115881000Y-89167500D01*
X112639000Y-89167500D01*
X112571961Y-89147815D01*
X112526206Y-89095011D01*
X112515000Y-89043500D01*
X112515000Y-85801500D01*
X112534685Y-85734461D01*
X112587489Y-85688706D01*
X112639000Y-85677500D01*
X115963356Y-85677500D01*
X116030395Y-85697185D01*
X116037222Y-85701902D01*
X116093923Y-85743954D01*
X116093924Y-85743954D01*
X116093929Y-85743958D01*
X116157485Y-85772983D01*
X116180949Y-85782008D01*
X116180950Y-85782008D01*
X116180953Y-85782009D01*
X116272096Y-85789462D01*
X116272098Y-85789462D01*
X116272098Y-85789461D01*
X116272100Y-85789462D01*
X116341258Y-85779518D01*
X116365873Y-85774426D01*
X116446585Y-85731416D01*
X116499389Y-85685661D01*
X116517343Y-85668070D01*
X116561990Y-85588253D01*
X116581675Y-85521214D01*
X116590000Y-85463316D01*
X116590000Y-83384437D01*
X116590694Y-83380350D01*
X116590161Y-83378120D01*
X116596957Y-83343487D01*
X116596958Y-83343485D01*
X116609770Y-83306865D01*
X116627039Y-83274191D01*
X116648706Y-83244833D01*
X116674833Y-83218706D01*
X116704193Y-83197037D01*
X116736867Y-83179771D01*
X116773487Y-83166958D01*
X116814439Y-83160000D01*
X118455557Y-83160000D01*
X118496507Y-83166956D01*
G37*
%TD.AperFunction*%
%TD*%
%TA.AperFunction,Conductor*%
%TO.N,Net-(Q101-D)*%
G36*
X127780439Y-82769685D02*
G01*
X127826194Y-82822489D01*
X127837400Y-82874000D01*
X127837400Y-85950000D01*
X128256694Y-85990365D01*
X128302751Y-86004164D01*
X128309613Y-86007791D01*
X128309617Y-86007792D01*
X128309618Y-86007793D01*
X128437801Y-86052646D01*
X128447945Y-86053597D01*
X128468230Y-86055500D01*
X128927330Y-86055500D01*
X128939212Y-86056071D01*
X128966963Y-86058742D01*
X129612701Y-86120907D01*
X129677543Y-86146924D01*
X129718027Y-86203869D01*
X129724614Y-86251417D01*
X129721709Y-86302185D01*
X129941783Y-88865393D01*
X129927906Y-88933870D01*
X129879209Y-88983974D01*
X129818238Y-89000000D01*
X127499999Y-89000000D01*
X127425017Y-89837063D01*
X127399430Y-89902079D01*
X127342754Y-89942940D01*
X127301512Y-89950000D01*
X123338900Y-89950000D01*
X123271861Y-89930315D01*
X123226106Y-89877511D01*
X123214900Y-89826000D01*
X123214900Y-82874000D01*
X123234585Y-82806961D01*
X123287389Y-82761206D01*
X123338900Y-82750000D01*
X127713400Y-82750000D01*
X127780439Y-82769685D01*
G37*
%TD.AperFunction*%
%TD*%
%TA.AperFunction,Conductor*%
%TO.N,/HOTPLATE*%
G36*
X198443039Y-128019685D02*
G01*
X198488794Y-128072489D01*
X198500000Y-128124000D01*
X198500000Y-134876000D01*
X198480315Y-134943039D01*
X198427511Y-134988794D01*
X198376000Y-135000000D01*
X189624000Y-135000000D01*
X189556961Y-134980315D01*
X189511206Y-134927511D01*
X189500000Y-134876000D01*
X189500000Y-131346457D01*
X192934499Y-131346457D01*
X192962379Y-131486614D01*
X192962381Y-131486620D01*
X193017069Y-131618650D01*
X193017074Y-131618659D01*
X193096467Y-131737478D01*
X193096470Y-131737482D01*
X193197517Y-131838529D01*
X193197521Y-131838532D01*
X193316340Y-131917925D01*
X193316346Y-131917928D01*
X193316347Y-131917929D01*
X193448380Y-131972619D01*
X193448384Y-131972619D01*
X193448385Y-131972620D01*
X193588542Y-132000500D01*
X193588545Y-132000500D01*
X193731457Y-132000500D01*
X193825751Y-131981742D01*
X193871620Y-131972619D01*
X194003653Y-131917929D01*
X194122479Y-131838532D01*
X194141263Y-131819748D01*
X194207319Y-131753693D01*
X194268642Y-131720208D01*
X194338334Y-131725192D01*
X194382681Y-131753693D01*
X194467517Y-131838529D01*
X194467521Y-131838532D01*
X194586340Y-131917925D01*
X194586346Y-131917928D01*
X194586347Y-131917929D01*
X194718380Y-131972619D01*
X194718384Y-131972619D01*
X194718385Y-131972620D01*
X194858542Y-132000500D01*
X194858545Y-132000500D01*
X195001457Y-132000500D01*
X195095751Y-131981742D01*
X195141620Y-131972619D01*
X195273653Y-131917929D01*
X195284584Y-131910625D01*
X195335785Y-131876414D01*
X195402462Y-131855536D01*
X195469842Y-131874020D01*
X195507778Y-131910625D01*
X195530447Y-131944552D01*
X195596769Y-131988867D01*
X195596770Y-131988868D01*
X195655247Y-132000499D01*
X195655250Y-132000500D01*
X195655252Y-132000500D01*
X196744750Y-132000500D01*
X196744751Y-132000499D01*
X196759568Y-131997552D01*
X196803229Y-131988868D01*
X196803229Y-131988867D01*
X196803231Y-131988867D01*
X196869552Y-131944552D01*
X196913867Y-131878231D01*
X196913867Y-131878229D01*
X196913868Y-131878229D01*
X196925499Y-131819752D01*
X196925500Y-131819750D01*
X196925500Y-130280249D01*
X196925499Y-130280247D01*
X196913868Y-130221770D01*
X196913867Y-130221769D01*
X196869552Y-130155447D01*
X196803230Y-130111132D01*
X196803229Y-130111131D01*
X196744752Y-130099500D01*
X196744748Y-130099500D01*
X195655252Y-130099500D01*
X195655247Y-130099500D01*
X195596770Y-130111131D01*
X195596769Y-130111132D01*
X195530446Y-130155448D01*
X195507777Y-130189375D01*
X195454164Y-130234180D01*
X195384839Y-130242886D01*
X195335786Y-130223586D01*
X195273657Y-130182073D01*
X195273650Y-130182069D01*
X195141620Y-130127381D01*
X195141614Y-130127379D01*
X195001457Y-130099500D01*
X195001455Y-130099500D01*
X194858545Y-130099500D01*
X194858543Y-130099500D01*
X194718385Y-130127379D01*
X194718379Y-130127381D01*
X194586349Y-130182069D01*
X194586340Y-130182074D01*
X194467521Y-130261467D01*
X194467517Y-130261470D01*
X194382681Y-130346307D01*
X194321358Y-130379792D01*
X194251666Y-130374808D01*
X194207319Y-130346307D01*
X194122482Y-130261470D01*
X194122478Y-130261467D01*
X194003659Y-130182074D01*
X194003650Y-130182069D01*
X193871620Y-130127381D01*
X193871614Y-130127379D01*
X193731457Y-130099500D01*
X193731455Y-130099500D01*
X193588545Y-130099500D01*
X193588543Y-130099500D01*
X193448385Y-130127379D01*
X193448379Y-130127381D01*
X193316349Y-130182069D01*
X193316340Y-130182074D01*
X193197521Y-130261467D01*
X193197517Y-130261470D01*
X193096470Y-130362517D01*
X193096467Y-130362521D01*
X193017074Y-130481340D01*
X193017069Y-130481349D01*
X192962381Y-130613379D01*
X192962379Y-130613385D01*
X192934500Y-130753542D01*
X192934500Y-130753545D01*
X192934500Y-131346455D01*
X192934500Y-131346457D01*
X192934499Y-131346457D01*
X189500000Y-131346457D01*
X189500000Y-128124000D01*
X189519685Y-128056961D01*
X189572489Y-128011206D01*
X189624000Y-128000000D01*
X198376000Y-128000000D01*
X198443039Y-128019685D01*
G37*
%TD.AperFunction*%
%TD*%
%TA.AperFunction,Conductor*%
%TO.N,GND*%
G36*
X196953237Y-72210669D02*
G01*
X197230182Y-72225184D01*
X197237575Y-72225794D01*
X197299875Y-72232813D01*
X197305353Y-72233555D01*
X197547128Y-72271848D01*
X197555289Y-72273423D01*
X197610830Y-72286100D01*
X197615181Y-72287179D01*
X197858157Y-72352284D01*
X197866999Y-72355013D01*
X197909629Y-72369930D01*
X197913079Y-72371195D01*
X198159378Y-72465739D01*
X198168711Y-72469770D01*
X198189307Y-72479689D01*
X198191754Y-72480900D01*
X198443968Y-72609411D01*
X198455199Y-72615896D01*
X198707608Y-72779812D01*
X198718109Y-72787441D01*
X198952010Y-72976850D01*
X198961655Y-72985535D01*
X199174464Y-73198344D01*
X199183149Y-73207989D01*
X199372558Y-73441890D01*
X199380187Y-73452391D01*
X199544101Y-73704796D01*
X199550591Y-73716036D01*
X199679075Y-73968199D01*
X199680309Y-73970691D01*
X199690223Y-73991277D01*
X199694268Y-74000643D01*
X199788791Y-74246887D01*
X199790068Y-74250369D01*
X199804985Y-74292999D01*
X199807719Y-74301860D01*
X199872806Y-74544766D01*
X199873923Y-74549269D01*
X199886569Y-74604679D01*
X199888150Y-74612872D01*
X199926440Y-74854627D01*
X199927187Y-74860142D01*
X199934204Y-74922424D01*
X199934814Y-74929816D01*
X199949330Y-75206755D01*
X199949500Y-75213152D01*
X199949537Y-75261805D01*
X199949536Y-75261806D01*
X199949537Y-75261811D01*
X199966307Y-98816769D01*
X199974419Y-110212644D01*
X199974421Y-110214644D01*
X199954784Y-110281697D01*
X199902013Y-110327490D01*
X199832861Y-110337482D01*
X199769285Y-110308503D01*
X199762740Y-110302413D01*
X194449864Y-104989537D01*
X194449862Y-104989535D01*
X194412750Y-104968108D01*
X194375640Y-104946682D01*
X194334246Y-104935591D01*
X194292853Y-104924500D01*
X194292852Y-104924500D01*
X190524098Y-104924500D01*
X190457059Y-104904815D01*
X190411304Y-104852011D01*
X190401360Y-104782853D01*
X190430385Y-104719297D01*
X190436417Y-104712819D01*
X190480520Y-104668716D01*
X190559577Y-104531784D01*
X190600500Y-104379057D01*
X190600500Y-104220943D01*
X190559577Y-104068216D01*
X190514151Y-103989535D01*
X190480524Y-103931290D01*
X190480518Y-103931282D01*
X190368717Y-103819481D01*
X190368709Y-103819475D01*
X190231790Y-103740426D01*
X190231786Y-103740424D01*
X190231784Y-103740423D01*
X190079057Y-103699500D01*
X189920943Y-103699500D01*
X189768216Y-103740423D01*
X189768209Y-103740426D01*
X189631290Y-103819475D01*
X189631282Y-103819481D01*
X189519481Y-103931282D01*
X189519475Y-103931290D01*
X189440426Y-104068209D01*
X189440423Y-104068216D01*
X189399500Y-104220943D01*
X189399500Y-104379057D01*
X189428424Y-104487001D01*
X189440423Y-104531783D01*
X189440426Y-104531790D01*
X189519475Y-104668709D01*
X189519481Y-104668717D01*
X189637031Y-104786267D01*
X189634785Y-104788512D01*
X189667179Y-104832855D01*
X189674500Y-104874830D01*
X189674500Y-105207147D01*
X189674500Y-105292853D01*
X189692306Y-105359304D01*
X189696682Y-105375637D01*
X189696685Y-105375644D01*
X189739530Y-105449855D01*
X189739534Y-105449860D01*
X189739535Y-105449862D01*
X189800138Y-105510465D01*
X189800140Y-105510466D01*
X189800144Y-105510469D01*
X189874355Y-105553314D01*
X189874362Y-105553318D01*
X189957147Y-105575500D01*
X194063811Y-105575500D01*
X194130850Y-105595185D01*
X194151492Y-105611819D01*
X195002492Y-106462819D01*
X195035977Y-106524142D01*
X195030993Y-106593834D01*
X194989121Y-106649767D01*
X194923657Y-106674184D01*
X194914811Y-106674500D01*
X189686189Y-106674500D01*
X189619150Y-106654815D01*
X189598508Y-106638181D01*
X185817074Y-102856747D01*
X185783589Y-102795424D01*
X185784980Y-102736974D01*
X185800500Y-102679057D01*
X185800500Y-102520943D01*
X185759577Y-102368216D01*
X185741200Y-102336386D01*
X185680524Y-102231290D01*
X185680518Y-102231282D01*
X185568717Y-102119481D01*
X185568709Y-102119475D01*
X185431790Y-102040426D01*
X185431786Y-102040424D01*
X185431784Y-102040423D01*
X185279057Y-101999500D01*
X185120943Y-101999500D01*
X184968216Y-102040423D01*
X184968209Y-102040426D01*
X184831290Y-102119475D01*
X184831282Y-102119481D01*
X184719481Y-102231282D01*
X184719475Y-102231290D01*
X184640426Y-102368209D01*
X184640423Y-102368214D01*
X184640423Y-102368216D01*
X184630101Y-102406734D01*
X184593738Y-102466393D01*
X184530891Y-102496922D01*
X184461515Y-102488627D01*
X184422647Y-102462320D01*
X178699864Y-96739537D01*
X178699862Y-96739535D01*
X178662750Y-96718108D01*
X178625640Y-96696682D01*
X178565320Y-96680520D01*
X178542853Y-96674500D01*
X178542852Y-96674500D01*
X161683676Y-96674500D01*
X161616637Y-96654815D01*
X161595995Y-96638181D01*
X161557316Y-96599502D01*
X161557314Y-96599500D01*
X161500250Y-96566554D01*
X161443187Y-96533608D01*
X161379539Y-96516554D01*
X161315892Y-96499500D01*
X161184108Y-96499500D01*
X161056812Y-96533608D01*
X160942686Y-96599500D01*
X160942683Y-96599502D01*
X160849502Y-96692683D01*
X160849500Y-96692686D01*
X160783608Y-96806812D01*
X160749500Y-96934108D01*
X160749500Y-97065891D01*
X160783608Y-97193187D01*
X160816554Y-97250250D01*
X160849500Y-97307314D01*
X160942686Y-97400500D01*
X161056814Y-97466392D01*
X161184108Y-97500500D01*
X161184110Y-97500500D01*
X161315890Y-97500500D01*
X161315892Y-97500500D01*
X161443186Y-97466392D01*
X161557314Y-97400500D01*
X161595995Y-97361819D01*
X161657318Y-97328334D01*
X161683676Y-97325500D01*
X178313811Y-97325500D01*
X178380850Y-97345185D01*
X178401492Y-97361819D01*
X188559673Y-107520000D01*
X188593158Y-107581323D01*
X188588174Y-107651015D01*
X188546302Y-107706948D01*
X188480838Y-107731365D01*
X188447800Y-107729298D01*
X188398543Y-107719500D01*
X188398541Y-107719500D01*
X188201459Y-107719500D01*
X188201457Y-107719500D01*
X188008170Y-107757947D01*
X188008160Y-107757950D01*
X187826092Y-107833364D01*
X187826079Y-107833371D01*
X187662218Y-107942860D01*
X187662214Y-107942863D01*
X187522863Y-108082214D01*
X187522860Y-108082218D01*
X187413371Y-108246079D01*
X187413364Y-108246092D01*
X187337950Y-108428160D01*
X187337947Y-108428170D01*
X187299500Y-108621456D01*
X187299500Y-108621457D01*
X187299500Y-108621459D01*
X187299500Y-108818541D01*
X187299500Y-108818543D01*
X187299499Y-108818543D01*
X187337947Y-109011829D01*
X187337950Y-109011839D01*
X187413364Y-109193907D01*
X187413371Y-109193920D01*
X187522860Y-109357781D01*
X187522863Y-109357785D01*
X187662214Y-109497136D01*
X187662218Y-109497139D01*
X187826079Y-109606628D01*
X187826092Y-109606635D01*
X188001190Y-109679162D01*
X188008165Y-109682051D01*
X188008169Y-109682051D01*
X188008170Y-109682052D01*
X188201456Y-109720500D01*
X188201459Y-109720500D01*
X188398543Y-109720500D01*
X188551355Y-109690103D01*
X188591835Y-109682051D01*
X188773914Y-109606632D01*
X188937782Y-109497139D01*
X189077139Y-109357782D01*
X189186632Y-109193914D01*
X189262051Y-109011835D01*
X189298240Y-108829903D01*
X189300500Y-108818543D01*
X189300500Y-108621457D01*
X189290701Y-108572199D01*
X189296928Y-108502607D01*
X189339790Y-108447429D01*
X189405679Y-108424184D01*
X189473676Y-108440251D01*
X189499999Y-108460325D01*
X189808254Y-108768580D01*
X189841739Y-108829903D01*
X189842190Y-108832069D01*
X189877947Y-109011829D01*
X189877950Y-109011839D01*
X189953364Y-109193907D01*
X189953371Y-109193920D01*
X190062860Y-109357781D01*
X190062863Y-109357785D01*
X190202214Y-109497136D01*
X190202218Y-109497139D01*
X190366079Y-109606628D01*
X190366092Y-109606635D01*
X190541190Y-109679162D01*
X190548165Y-109682051D01*
X190548169Y-109682051D01*
X190548170Y-109682052D01*
X190741456Y-109720500D01*
X190741459Y-109720500D01*
X190938543Y-109720500D01*
X191091355Y-109690103D01*
X191131835Y-109682051D01*
X191313914Y-109606632D01*
X191477782Y-109497139D01*
X191617139Y-109357782D01*
X191726632Y-109193914D01*
X191802051Y-109011835D01*
X191838240Y-108829903D01*
X191840500Y-108818543D01*
X191840500Y-108621456D01*
X191802052Y-108428170D01*
X191802051Y-108428169D01*
X191802051Y-108428165D01*
X191798788Y-108420288D01*
X191791319Y-108350823D01*
X191822592Y-108288343D01*
X191882680Y-108252689D01*
X191929543Y-108249898D01*
X191934103Y-108250498D01*
X191934108Y-108250500D01*
X191934113Y-108250500D01*
X192065890Y-108250500D01*
X192065892Y-108250500D01*
X192193186Y-108216392D01*
X192252085Y-108182386D01*
X192279147Y-108175820D01*
X192305238Y-108166089D01*
X192312629Y-108167696D01*
X192319982Y-108165913D01*
X192346302Y-108175022D01*
X192373511Y-108180941D01*
X192382200Y-108187445D01*
X192386009Y-108188764D01*
X192401765Y-108202092D01*
X192420837Y-108221164D01*
X192454322Y-108282487D01*
X192449338Y-108352179D01*
X192447737Y-108356247D01*
X192417949Y-108428165D01*
X192417947Y-108428171D01*
X192379500Y-108621456D01*
X192379500Y-108621457D01*
X192379500Y-108621459D01*
X192379500Y-108818541D01*
X192379500Y-108818543D01*
X192379499Y-108818543D01*
X192417947Y-109011829D01*
X192417950Y-109011839D01*
X192493364Y-109193907D01*
X192493371Y-109193920D01*
X192602860Y-109357781D01*
X192602863Y-109357785D01*
X192742214Y-109497136D01*
X192742218Y-109497139D01*
X192906079Y-109606628D01*
X192906092Y-109606635D01*
X193081190Y-109679162D01*
X193088165Y-109682051D01*
X193088169Y-109682051D01*
X193088170Y-109682052D01*
X193281456Y-109720500D01*
X193281459Y-109720500D01*
X193478543Y-109720500D01*
X193631355Y-109690103D01*
X193671835Y-109682051D01*
X193743705Y-109652281D01*
X193813169Y-109644813D01*
X193875649Y-109676087D01*
X193878835Y-109679162D01*
X194308712Y-110109039D01*
X194342197Y-110170362D01*
X194337213Y-110240054D01*
X194295341Y-110295987D01*
X194261987Y-110313761D01*
X194152117Y-110352207D01*
X194042850Y-110432850D01*
X193962207Y-110542117D01*
X193962206Y-110542119D01*
X193917353Y-110670298D01*
X193917353Y-110670300D01*
X193914500Y-110700730D01*
X193914500Y-111759269D01*
X193917353Y-111789699D01*
X193917353Y-111789701D01*
X193962206Y-111917880D01*
X193962207Y-111917882D01*
X194042850Y-112027150D01*
X194152118Y-112107793D01*
X194194845Y-112122744D01*
X194280299Y-112152646D01*
X194310730Y-112155500D01*
X194310734Y-112155500D01*
X195094270Y-112155500D01*
X195124699Y-112152646D01*
X195124701Y-112152646D01*
X195188790Y-112130219D01*
X195252882Y-112107793D01*
X195362150Y-112027150D01*
X195442793Y-111917882D01*
X195466371Y-111850500D01*
X195487646Y-111789701D01*
X195487646Y-111789699D01*
X195490500Y-111759269D01*
X195490500Y-110700730D01*
X195487646Y-110670300D01*
X195487646Y-110670298D01*
X195442793Y-110542119D01*
X195442792Y-110542117D01*
X195362150Y-110432850D01*
X195252882Y-110352207D01*
X195252880Y-110352206D01*
X195117577Y-110304861D01*
X195118070Y-110303451D01*
X195064241Y-110273997D01*
X195030811Y-110212644D01*
X195028000Y-110186393D01*
X195028000Y-109999649D01*
X195028000Y-109999647D01*
X195005818Y-109916862D01*
X194991747Y-109892490D01*
X194962969Y-109842644D01*
X194962963Y-109842636D01*
X194339162Y-109218835D01*
X194305677Y-109157512D01*
X194310661Y-109087820D01*
X194312251Y-109083776D01*
X194342051Y-109011835D01*
X194378240Y-108829903D01*
X194380500Y-108818543D01*
X194380500Y-108621456D01*
X194342052Y-108428170D01*
X194342051Y-108428169D01*
X194342051Y-108428165D01*
X194303690Y-108335552D01*
X194266635Y-108246092D01*
X194266628Y-108246079D01*
X194157139Y-108082218D01*
X194157136Y-108082214D01*
X194017785Y-107942863D01*
X194017781Y-107942860D01*
X193853920Y-107833371D01*
X193853907Y-107833364D01*
X193671839Y-107757950D01*
X193671829Y-107757947D01*
X193478543Y-107719500D01*
X193478541Y-107719500D01*
X193281459Y-107719500D01*
X193281457Y-107719500D01*
X193088171Y-107757947D01*
X193088167Y-107757948D01*
X193088165Y-107757949D01*
X193016293Y-107787718D01*
X192946827Y-107795186D01*
X192884348Y-107763910D01*
X192881164Y-107760837D01*
X192657508Y-107537181D01*
X192624023Y-107475858D01*
X192629007Y-107406166D01*
X192670879Y-107350233D01*
X192736343Y-107325816D01*
X192745189Y-107325500D01*
X195063811Y-107325500D01*
X195130850Y-107345185D01*
X195151492Y-107361819D01*
X198638181Y-110848508D01*
X198671666Y-110909831D01*
X198674500Y-110936189D01*
X198674500Y-114376000D01*
X198654815Y-114443039D01*
X198602011Y-114488794D01*
X198550500Y-114500000D01*
X190770947Y-114500000D01*
X190703908Y-114480315D01*
X190658153Y-114427511D01*
X190646947Y-114376000D01*
X190646947Y-112487907D01*
X190646900Y-112487679D01*
X190646900Y-112443611D01*
X190621806Y-112333659D01*
X190611653Y-112312575D01*
X190610381Y-112307826D01*
X190606583Y-112301247D01*
X190602249Y-112293046D01*
X190572877Y-112232048D01*
X190556051Y-112210947D01*
X190556051Y-112210946D01*
X190550257Y-112203681D01*
X190544838Y-112194293D01*
X190534632Y-112184086D01*
X190530286Y-112178636D01*
X190502565Y-112143873D01*
X190502563Y-112143870D01*
X190502561Y-112143868D01*
X190502559Y-112143866D01*
X190467798Y-112116142D01*
X190462349Y-112111796D01*
X190452145Y-112101591D01*
X190442755Y-112096169D01*
X190435488Y-112090373D01*
X190414392Y-112073548D01*
X190414390Y-112073547D01*
X190355729Y-112045293D01*
X190352545Y-112043759D01*
X190349207Y-112042151D01*
X190338618Y-112036037D01*
X190333874Y-112034765D01*
X190323394Y-112029717D01*
X190323393Y-112029716D01*
X190312798Y-112024613D01*
X190312783Y-112024608D01*
X190226569Y-112004923D01*
X190202836Y-111999505D01*
X190146654Y-111999500D01*
X152646240Y-111999500D01*
X152634596Y-111999500D01*
X152634375Y-111999545D01*
X152590056Y-111999542D01*
X152480100Y-112024629D01*
X152459943Y-112034334D01*
X152454192Y-112035875D01*
X152452658Y-112036760D01*
X152452655Y-112036761D01*
X152445377Y-112040963D01*
X152437183Y-112045293D01*
X152378482Y-112073558D01*
X152358388Y-112089580D01*
X152358387Y-112089579D01*
X152351113Y-112095378D01*
X152340610Y-112101442D01*
X152329195Y-112112855D01*
X152323737Y-112117208D01*
X152323736Y-112117210D01*
X152290308Y-112143866D01*
X152290300Y-112143873D01*
X152263634Y-112177308D01*
X152259288Y-112182756D01*
X152247871Y-112194173D01*
X152241808Y-112204673D01*
X152236014Y-112211938D01*
X152236011Y-112211944D01*
X152231447Y-112217667D01*
X152174258Y-112257807D01*
X152104446Y-112260657D01*
X152044177Y-112225311D01*
X152012584Y-112162992D01*
X152010500Y-112140354D01*
X152010500Y-109177547D01*
X152030185Y-109110508D01*
X152046819Y-109089866D01*
X152052985Y-109083700D01*
X152151966Y-108984719D01*
X152151968Y-108984715D01*
X152151971Y-108984713D01*
X152204732Y-108912090D01*
X152272287Y-108819110D01*
X152365220Y-108636719D01*
X152428477Y-108442034D01*
X152460500Y-108239852D01*
X152460500Y-108035148D01*
X152455677Y-108004695D01*
X152441242Y-107913558D01*
X152439134Y-107900247D01*
X156819500Y-107900247D01*
X156819500Y-109539752D01*
X156831131Y-109598229D01*
X156831132Y-109598230D01*
X156875447Y-109664552D01*
X156941769Y-109708867D01*
X156941770Y-109708868D01*
X157000247Y-109720499D01*
X157000250Y-109720500D01*
X157000252Y-109720500D01*
X158639750Y-109720500D01*
X158639751Y-109720499D01*
X158654568Y-109717552D01*
X158698229Y-109708868D01*
X158698229Y-109708867D01*
X158698231Y-109708867D01*
X158764552Y-109664552D01*
X158808867Y-109598231D01*
X158808867Y-109598229D01*
X158808868Y-109598229D01*
X158820499Y-109539752D01*
X158820500Y-109539750D01*
X158820500Y-108818543D01*
X159359499Y-108818543D01*
X159397947Y-109011829D01*
X159397950Y-109011839D01*
X159473364Y-109193907D01*
X159473371Y-109193920D01*
X159582860Y-109357781D01*
X159582863Y-109357785D01*
X159722214Y-109497136D01*
X159722218Y-109497139D01*
X159886079Y-109606628D01*
X159886092Y-109606635D01*
X160061190Y-109679162D01*
X160068165Y-109682051D01*
X160068169Y-109682051D01*
X160068170Y-109682052D01*
X160261456Y-109720500D01*
X160261459Y-109720500D01*
X160458543Y-109720500D01*
X160611355Y-109690103D01*
X160651835Y-109682051D01*
X160833914Y-109606632D01*
X160997782Y-109497139D01*
X161137139Y-109357782D01*
X161246632Y-109193914D01*
X161322051Y-109011835D01*
X161358240Y-108829903D01*
X161360500Y-108818543D01*
X161899499Y-108818543D01*
X161937947Y-109011829D01*
X161937950Y-109011839D01*
X162013364Y-109193907D01*
X162013371Y-109193920D01*
X162122860Y-109357781D01*
X162122863Y-109357785D01*
X162262214Y-109497136D01*
X162262218Y-109497139D01*
X162426079Y-109606628D01*
X162426092Y-109606635D01*
X162601190Y-109679162D01*
X162608165Y-109682051D01*
X162608169Y-109682051D01*
X162608170Y-109682052D01*
X162801456Y-109720500D01*
X162801459Y-109720500D01*
X162998543Y-109720500D01*
X163151355Y-109690103D01*
X163191835Y-109682051D01*
X163373914Y-109606632D01*
X163537782Y-109497139D01*
X163677139Y-109357782D01*
X163786632Y-109193914D01*
X163862051Y-109011835D01*
X163898240Y-108829903D01*
X163900500Y-108818543D01*
X166979499Y-108818543D01*
X167017947Y-109011829D01*
X167017950Y-109011839D01*
X167093364Y-109193907D01*
X167093371Y-109193920D01*
X167202860Y-109357781D01*
X167202863Y-109357785D01*
X167342214Y-109497136D01*
X167342218Y-109497139D01*
X167506079Y-109606628D01*
X167506092Y-109606635D01*
X167681190Y-109679162D01*
X167688165Y-109682051D01*
X167688169Y-109682051D01*
X167688170Y-109682052D01*
X167881456Y-109720500D01*
X167881459Y-109720500D01*
X168078543Y-109720500D01*
X168231355Y-109690103D01*
X168271835Y-109682051D01*
X168453914Y-109606632D01*
X168617782Y-109497139D01*
X168757139Y-109357782D01*
X168866632Y-109193914D01*
X168942051Y-109011835D01*
X168978240Y-108829903D01*
X168980500Y-108818543D01*
X168980500Y-108621456D01*
X168942052Y-108428170D01*
X168942051Y-108428169D01*
X168942051Y-108428165D01*
X168903690Y-108335552D01*
X168866635Y-108246092D01*
X168866628Y-108246079D01*
X168757139Y-108082218D01*
X168757136Y-108082214D01*
X168617785Y-107942863D01*
X168617781Y-107942860D01*
X168453920Y-107833371D01*
X168453907Y-107833364D01*
X168271839Y-107757950D01*
X168271829Y-107757947D01*
X168078543Y-107719500D01*
X168078541Y-107719500D01*
X167881459Y-107719500D01*
X167881457Y-107719500D01*
X167688170Y-107757947D01*
X167688160Y-107757950D01*
X167506092Y-107833364D01*
X167506079Y-107833371D01*
X167342218Y-107942860D01*
X167342214Y-107942863D01*
X167202863Y-108082214D01*
X167202860Y-108082218D01*
X167093371Y-108246079D01*
X167093364Y-108246092D01*
X167017950Y-108428160D01*
X167017947Y-108428170D01*
X166979500Y-108621456D01*
X166979500Y-108621457D01*
X166979500Y-108621459D01*
X166979500Y-108818541D01*
X166979500Y-108818543D01*
X166979499Y-108818543D01*
X163900500Y-108818543D01*
X163900500Y-108621456D01*
X163862052Y-108428170D01*
X163862051Y-108428169D01*
X163862051Y-108428165D01*
X163823690Y-108335552D01*
X163786635Y-108246092D01*
X163786628Y-108246079D01*
X163677139Y-108082218D01*
X163677136Y-108082214D01*
X163537785Y-107942863D01*
X163537781Y-107942860D01*
X163373920Y-107833371D01*
X163373907Y-107833364D01*
X163191839Y-107757950D01*
X163191829Y-107757947D01*
X162998543Y-107719500D01*
X162998541Y-107719500D01*
X162801459Y-107719500D01*
X162801457Y-107719500D01*
X162608170Y-107757947D01*
X162608160Y-107757950D01*
X162426092Y-107833364D01*
X162426079Y-107833371D01*
X162262218Y-107942860D01*
X162262214Y-107942863D01*
X162122863Y-108082214D01*
X162122860Y-108082218D01*
X162013371Y-108246079D01*
X162013364Y-108246092D01*
X161937950Y-108428160D01*
X161937947Y-108428170D01*
X161899500Y-108621456D01*
X161899500Y-108621457D01*
X161899500Y-108621459D01*
X161899500Y-108818541D01*
X161899500Y-108818543D01*
X161899499Y-108818543D01*
X161360500Y-108818543D01*
X161360500Y-108621456D01*
X161322052Y-108428170D01*
X161322051Y-108428169D01*
X161322051Y-108428165D01*
X161283690Y-108335552D01*
X161246635Y-108246092D01*
X161246628Y-108246079D01*
X161137139Y-108082218D01*
X161137136Y-108082214D01*
X160997785Y-107942863D01*
X160997781Y-107942860D01*
X160833920Y-107833371D01*
X160833907Y-107833364D01*
X160651839Y-107757950D01*
X160651829Y-107757947D01*
X160458543Y-107719500D01*
X160458541Y-107719500D01*
X160261459Y-107719500D01*
X160261457Y-107719500D01*
X160068170Y-107757947D01*
X160068160Y-107757950D01*
X159886092Y-107833364D01*
X159886079Y-107833371D01*
X159722218Y-107942860D01*
X159722214Y-107942863D01*
X159582863Y-108082214D01*
X159582860Y-108082218D01*
X159473371Y-108246079D01*
X159473364Y-108246092D01*
X159397950Y-108428160D01*
X159397947Y-108428170D01*
X159359500Y-108621456D01*
X159359500Y-108621457D01*
X159359500Y-108621459D01*
X159359500Y-108818541D01*
X159359500Y-108818543D01*
X159359499Y-108818543D01*
X158820500Y-108818543D01*
X158820500Y-107900249D01*
X158820499Y-107900247D01*
X158808868Y-107841770D01*
X158808867Y-107841769D01*
X158764552Y-107775447D01*
X158698230Y-107731132D01*
X158698229Y-107731131D01*
X158639752Y-107719500D01*
X158639748Y-107719500D01*
X157000252Y-107719500D01*
X157000247Y-107719500D01*
X156941770Y-107731131D01*
X156941769Y-107731132D01*
X156875447Y-107775447D01*
X156831132Y-107841769D01*
X156831131Y-107841770D01*
X156819500Y-107900247D01*
X152439134Y-107900247D01*
X152428477Y-107832965D01*
X152380110Y-107684108D01*
X152365220Y-107638281D01*
X152365218Y-107638278D01*
X152365218Y-107638276D01*
X152313707Y-107537181D01*
X152272287Y-107455890D01*
X152223090Y-107388175D01*
X152151971Y-107290286D01*
X152007213Y-107145528D01*
X151841613Y-107025215D01*
X151841612Y-107025214D01*
X151841610Y-107025213D01*
X151784653Y-106996191D01*
X151659223Y-106932281D01*
X151464534Y-106869022D01*
X151289995Y-106841378D01*
X151262352Y-106837000D01*
X151057648Y-106837000D01*
X151033329Y-106840851D01*
X150855465Y-106869022D01*
X150660776Y-106932281D01*
X150478386Y-107025215D01*
X150312786Y-107145528D01*
X150168032Y-107290282D01*
X150127907Y-107345510D01*
X150072577Y-107388175D01*
X150002963Y-107394154D01*
X149941168Y-107361548D01*
X149939908Y-107360305D01*
X147786647Y-105207044D01*
X147753162Y-105145721D01*
X147756398Y-105081043D01*
X147774607Y-105025002D01*
X147774607Y-105025000D01*
X147774609Y-105024995D01*
X147803000Y-104845743D01*
X147803000Y-104569257D01*
X147774609Y-104390005D01*
X147774608Y-104390001D01*
X147774608Y-104390000D01*
X147718528Y-104217404D01*
X147642513Y-104068216D01*
X147636134Y-104055696D01*
X147529459Y-103908871D01*
X147401129Y-103780541D01*
X147254304Y-103673866D01*
X147092595Y-103591471D01*
X146919998Y-103535391D01*
X146785556Y-103514097D01*
X146740743Y-103507000D01*
X146559257Y-103507000D01*
X146499506Y-103516463D01*
X146380003Y-103535391D01*
X146380000Y-103535391D01*
X146207404Y-103591471D01*
X146045695Y-103673866D01*
X145961926Y-103734728D01*
X145898871Y-103780541D01*
X145898869Y-103780543D01*
X145898868Y-103780543D01*
X145770543Y-103908868D01*
X145770543Y-103908869D01*
X145770541Y-103908871D01*
X145754257Y-103931284D01*
X145663866Y-104055695D01*
X145581471Y-104217404D01*
X145525391Y-104390000D01*
X145525391Y-104390003D01*
X145509473Y-104490506D01*
X145479544Y-104553641D01*
X145420232Y-104590572D01*
X145350370Y-104589574D01*
X145292137Y-104550964D01*
X145264023Y-104487001D01*
X145263000Y-104471108D01*
X145263000Y-103687749D01*
X145262999Y-103687747D01*
X145251368Y-103629270D01*
X145251367Y-103629269D01*
X145207052Y-103562947D01*
X145140730Y-103518632D01*
X145140729Y-103518631D01*
X145082252Y-103507000D01*
X145082248Y-103507000D01*
X143597965Y-103507000D01*
X143530926Y-103487315D01*
X143510284Y-103470681D01*
X142864284Y-102824681D01*
X142830799Y-102763358D01*
X142835783Y-102693666D01*
X142877655Y-102637733D01*
X142943119Y-102613316D01*
X142951965Y-102613000D01*
X143969306Y-102613000D01*
X143969309Y-102613000D01*
X144083886Y-102582299D01*
X144186613Y-102522989D01*
X144270489Y-102439113D01*
X144329799Y-102336386D01*
X144360500Y-102221809D01*
X144360500Y-100652000D01*
X144380185Y-100584961D01*
X144432989Y-100539206D01*
X144484500Y-100528000D01*
X144796457Y-100528000D01*
X144890751Y-100509242D01*
X144936620Y-100500119D01*
X145068653Y-100445429D01*
X145187479Y-100366032D01*
X145288532Y-100264979D01*
X145367929Y-100146153D01*
X145422619Y-100014120D01*
X145446351Y-99894815D01*
X145450500Y-99873957D01*
X145450500Y-99731042D01*
X145422620Y-99590885D01*
X145422619Y-99590884D01*
X145422619Y-99590880D01*
X145367929Y-99458847D01*
X145367928Y-99458846D01*
X145367925Y-99458840D01*
X145288532Y-99340021D01*
X145288529Y-99340017D01*
X145203692Y-99255180D01*
X145199353Y-99247234D01*
X145192105Y-99241808D01*
X145182870Y-99217048D01*
X145170207Y-99193857D01*
X145170852Y-99184826D01*
X145167689Y-99176343D01*
X145173305Y-99150524D01*
X145175191Y-99124165D01*
X145181010Y-99115109D01*
X145182542Y-99108070D01*
X145203687Y-99079823D01*
X145231695Y-99051815D01*
X145293017Y-99018333D01*
X145319373Y-99015500D01*
X149294274Y-99015500D01*
X149361313Y-99035185D01*
X149407068Y-99087989D01*
X149411316Y-99098547D01*
X149417205Y-99115379D01*
X149417206Y-99115381D01*
X149417207Y-99115382D01*
X149497850Y-99224650D01*
X149587795Y-99291032D01*
X149603645Y-99302730D01*
X149645895Y-99358378D01*
X149651354Y-99428034D01*
X149618286Y-99489583D01*
X149603645Y-99502270D01*
X149497850Y-99580350D01*
X149417207Y-99689617D01*
X149417206Y-99689619D01*
X149372353Y-99817798D01*
X149372353Y-99817800D01*
X149369500Y-99848230D01*
X149369500Y-100631769D01*
X149372353Y-100662199D01*
X149372353Y-100662201D01*
X149417206Y-100790380D01*
X149417207Y-100790382D01*
X149497850Y-100899650D01*
X149607118Y-100980293D01*
X149649845Y-100995244D01*
X149735299Y-101025146D01*
X149765730Y-101028000D01*
X149765734Y-101028000D01*
X152774270Y-101028000D01*
X152804699Y-101025146D01*
X152804701Y-101025146D01*
X152875136Y-101000499D01*
X152932882Y-100980293D01*
X153042150Y-100899650D01*
X153122793Y-100790382D01*
X153156803Y-100693187D01*
X153170139Y-100655077D01*
X153171548Y-100655570D01*
X153201003Y-100601741D01*
X153262356Y-100568311D01*
X153288607Y-100565500D01*
X159553811Y-100565500D01*
X159620850Y-100585185D01*
X159641492Y-100601819D01*
X160239534Y-101199861D01*
X160239535Y-101199862D01*
X160300138Y-101260465D01*
X160374361Y-101303318D01*
X160457147Y-101325500D01*
X160457149Y-101325500D01*
X160542851Y-101325500D01*
X160542853Y-101325500D01*
X160625639Y-101303318D01*
X160699862Y-101260465D01*
X160923508Y-101036819D01*
X160984831Y-101003334D01*
X161011189Y-101000500D01*
X161065890Y-101000500D01*
X161065892Y-101000500D01*
X161193186Y-100966392D01*
X161307314Y-100900500D01*
X161400500Y-100807314D01*
X161466392Y-100693186D01*
X161500500Y-100565892D01*
X161500500Y-100434108D01*
X161466392Y-100306814D01*
X161418107Y-100223183D01*
X161401635Y-100155285D01*
X161424487Y-100089258D01*
X161479408Y-100046067D01*
X161548961Y-100039425D01*
X161611064Y-100071440D01*
X161613176Y-100073503D01*
X169622449Y-108082775D01*
X169655934Y-108144098D01*
X169650950Y-108213790D01*
X169637874Y-108239342D01*
X169633370Y-108246082D01*
X169633364Y-108246093D01*
X169557950Y-108428160D01*
X169557947Y-108428170D01*
X169519500Y-108621456D01*
X169519500Y-108621457D01*
X169519500Y-108621459D01*
X169519500Y-108818541D01*
X169519500Y-108818543D01*
X169519499Y-108818543D01*
X169557947Y-109011829D01*
X169557950Y-109011839D01*
X169633364Y-109193907D01*
X169633371Y-109193920D01*
X169742860Y-109357781D01*
X169742863Y-109357785D01*
X169882214Y-109497136D01*
X169882218Y-109497139D01*
X170046079Y-109606628D01*
X170046092Y-109606635D01*
X170221190Y-109679162D01*
X170228165Y-109682051D01*
X170228169Y-109682051D01*
X170228170Y-109682052D01*
X170421456Y-109720500D01*
X170421459Y-109720500D01*
X170618543Y-109720500D01*
X170771355Y-109690103D01*
X170811835Y-109682051D01*
X170993914Y-109606632D01*
X171157782Y-109497139D01*
X171297139Y-109357782D01*
X171406632Y-109193914D01*
X171482051Y-109011835D01*
X171518240Y-108829903D01*
X171520500Y-108818543D01*
X172059499Y-108818543D01*
X172097947Y-109011829D01*
X172097950Y-109011839D01*
X172173364Y-109193907D01*
X172173371Y-109193920D01*
X172282860Y-109357781D01*
X172282863Y-109357785D01*
X172422214Y-109497136D01*
X172422218Y-109497139D01*
X172586079Y-109606628D01*
X172586092Y-109606635D01*
X172761190Y-109679162D01*
X172768165Y-109682051D01*
X172768169Y-109682051D01*
X172768170Y-109682052D01*
X172961456Y-109720500D01*
X172961459Y-109720500D01*
X173158543Y-109720500D01*
X173311355Y-109690103D01*
X173351835Y-109682051D01*
X173533914Y-109606632D01*
X173697782Y-109497139D01*
X173837139Y-109357782D01*
X173946632Y-109193914D01*
X174022051Y-109011835D01*
X174058240Y-108829903D01*
X174060500Y-108818543D01*
X174599499Y-108818543D01*
X174637947Y-109011829D01*
X174637950Y-109011839D01*
X174713364Y-109193907D01*
X174713371Y-109193920D01*
X174822860Y-109357781D01*
X174822863Y-109357785D01*
X174962214Y-109497136D01*
X174962218Y-109497139D01*
X175126079Y-109606628D01*
X175126092Y-109606635D01*
X175301190Y-109679162D01*
X175308165Y-109682051D01*
X175308169Y-109682051D01*
X175308170Y-109682052D01*
X175501456Y-109720500D01*
X175501459Y-109720500D01*
X175698543Y-109720500D01*
X175851355Y-109690103D01*
X175891835Y-109682051D01*
X176073914Y-109606632D01*
X176237782Y-109497139D01*
X176377139Y-109357782D01*
X176486632Y-109193914D01*
X176562051Y-109011835D01*
X176598240Y-108829903D01*
X176600500Y-108818543D01*
X177139499Y-108818543D01*
X177177947Y-109011829D01*
X177177950Y-109011839D01*
X177253364Y-109193907D01*
X177253371Y-109193920D01*
X177362860Y-109357781D01*
X177362863Y-109357785D01*
X177502214Y-109497136D01*
X177502218Y-109497139D01*
X177666079Y-109606628D01*
X177666092Y-109606635D01*
X177841190Y-109679162D01*
X177848165Y-109682051D01*
X177848169Y-109682051D01*
X177848170Y-109682052D01*
X178041456Y-109720500D01*
X178041459Y-109720500D01*
X178238543Y-109720500D01*
X178391355Y-109690103D01*
X178431835Y-109682051D01*
X178613914Y-109606632D01*
X178777782Y-109497139D01*
X178917139Y-109357782D01*
X179026632Y-109193914D01*
X179102051Y-109011835D01*
X179138240Y-108829903D01*
X179140500Y-108818543D01*
X179679499Y-108818543D01*
X179717947Y-109011829D01*
X179717950Y-109011839D01*
X179793364Y-109193907D01*
X179793371Y-109193920D01*
X179902860Y-109357781D01*
X179902863Y-109357785D01*
X180042214Y-109497136D01*
X180042218Y-109497139D01*
X180206079Y-109606628D01*
X180206092Y-109606635D01*
X180381190Y-109679162D01*
X180388165Y-109682051D01*
X180388169Y-109682051D01*
X180388170Y-109682052D01*
X180581456Y-109720500D01*
X180581459Y-109720500D01*
X180778543Y-109720500D01*
X180931355Y-109690103D01*
X180971835Y-109682051D01*
X181153914Y-109606632D01*
X181317782Y-109497139D01*
X181457139Y-109357782D01*
X181566632Y-109193914D01*
X181642051Y-109011835D01*
X181678240Y-108829903D01*
X181680500Y-108818543D01*
X182219499Y-108818543D01*
X182257947Y-109011829D01*
X182257950Y-109011839D01*
X182333364Y-109193907D01*
X182333371Y-109193920D01*
X182442860Y-109357781D01*
X182442863Y-109357785D01*
X182582214Y-109497136D01*
X182582218Y-109497139D01*
X182746079Y-109606628D01*
X182746092Y-109606635D01*
X182921190Y-109679162D01*
X182928165Y-109682051D01*
X182928169Y-109682051D01*
X182928170Y-109682052D01*
X183121456Y-109720500D01*
X183121459Y-109720500D01*
X183318543Y-109720500D01*
X183471355Y-109690103D01*
X183511835Y-109682051D01*
X183693914Y-109606632D01*
X183857782Y-109497139D01*
X183997139Y-109357782D01*
X184106632Y-109193914D01*
X184182051Y-109011835D01*
X184218240Y-108829903D01*
X184220500Y-108818543D01*
X184759499Y-108818543D01*
X184797947Y-109011829D01*
X184797950Y-109011839D01*
X184873364Y-109193907D01*
X184873371Y-109193920D01*
X184982860Y-109357781D01*
X184982863Y-109357785D01*
X185122214Y-109497136D01*
X185122218Y-109497139D01*
X185286079Y-109606628D01*
X185286092Y-109606635D01*
X185461190Y-109679162D01*
X185468165Y-109682051D01*
X185468169Y-109682051D01*
X185468170Y-109682052D01*
X185661456Y-109720500D01*
X185661459Y-109720500D01*
X185858543Y-109720500D01*
X186011355Y-109690103D01*
X186051835Y-109682051D01*
X186233914Y-109606632D01*
X186397782Y-109497139D01*
X186537139Y-109357782D01*
X186646632Y-109193914D01*
X186722051Y-109011835D01*
X186758240Y-108829903D01*
X186760500Y-108818543D01*
X186760500Y-108621456D01*
X186722052Y-108428170D01*
X186722051Y-108428169D01*
X186722051Y-108428165D01*
X186683690Y-108335552D01*
X186646635Y-108246092D01*
X186646628Y-108246079D01*
X186537139Y-108082218D01*
X186537136Y-108082214D01*
X186397785Y-107942863D01*
X186397781Y-107942860D01*
X186233920Y-107833371D01*
X186233907Y-107833364D01*
X186051839Y-107757950D01*
X186051829Y-107757947D01*
X185858543Y-107719500D01*
X185858541Y-107719500D01*
X185661459Y-107719500D01*
X185661457Y-107719500D01*
X185468170Y-107757947D01*
X185468160Y-107757950D01*
X185286092Y-107833364D01*
X185286079Y-107833371D01*
X185122218Y-107942860D01*
X185122214Y-107942863D01*
X184982863Y-108082214D01*
X184982860Y-108082218D01*
X184873371Y-108246079D01*
X184873364Y-108246092D01*
X184797950Y-108428160D01*
X184797947Y-108428170D01*
X184759500Y-108621456D01*
X184759500Y-108621457D01*
X184759500Y-108621459D01*
X184759500Y-108818541D01*
X184759500Y-108818543D01*
X184759499Y-108818543D01*
X184220500Y-108818543D01*
X184220500Y-108621456D01*
X184182052Y-108428170D01*
X184182051Y-108428169D01*
X184182051Y-108428165D01*
X184143690Y-108335552D01*
X184106635Y-108246092D01*
X184106628Y-108246079D01*
X183997139Y-108082218D01*
X183997136Y-108082214D01*
X183857785Y-107942863D01*
X183857781Y-107942860D01*
X183693920Y-107833371D01*
X183693907Y-107833364D01*
X183511839Y-107757950D01*
X183511829Y-107757947D01*
X183318543Y-107719500D01*
X183318541Y-107719500D01*
X183121459Y-107719500D01*
X183121457Y-107719500D01*
X182928170Y-107757947D01*
X182928160Y-107757950D01*
X182746092Y-107833364D01*
X182746079Y-107833371D01*
X182582218Y-107942860D01*
X182582214Y-107942863D01*
X182442863Y-108082214D01*
X182442860Y-108082218D01*
X182333371Y-108246079D01*
X182333364Y-108246092D01*
X182257950Y-108428160D01*
X182257947Y-108428170D01*
X182219500Y-108621456D01*
X182219500Y-108621457D01*
X182219500Y-108621459D01*
X182219500Y-108818541D01*
X182219500Y-108818543D01*
X182219499Y-108818543D01*
X181680500Y-108818543D01*
X181680500Y-108621456D01*
X181642052Y-108428170D01*
X181642051Y-108428169D01*
X181642051Y-108428165D01*
X181603690Y-108335552D01*
X181566635Y-108246092D01*
X181566628Y-108246079D01*
X181457139Y-108082218D01*
X181457136Y-108082214D01*
X181317785Y-107942863D01*
X181317781Y-107942860D01*
X181153920Y-107833371D01*
X181153907Y-107833364D01*
X180971839Y-107757950D01*
X180971829Y-107757947D01*
X180778543Y-107719500D01*
X180778541Y-107719500D01*
X180581459Y-107719500D01*
X180581457Y-107719500D01*
X180388170Y-107757947D01*
X180388160Y-107757950D01*
X180206092Y-107833364D01*
X180206079Y-107833371D01*
X180042218Y-107942860D01*
X180042214Y-107942863D01*
X179902863Y-108082214D01*
X179902860Y-108082218D01*
X179793371Y-108246079D01*
X179793364Y-108246092D01*
X179717950Y-108428160D01*
X179717947Y-108428170D01*
X179679500Y-108621456D01*
X179679500Y-108621457D01*
X179679500Y-108621459D01*
X179679500Y-108818541D01*
X179679500Y-108818543D01*
X179679499Y-108818543D01*
X179140500Y-108818543D01*
X179140500Y-108621456D01*
X179102052Y-108428170D01*
X179102051Y-108428169D01*
X179102051Y-108428165D01*
X179063690Y-108335552D01*
X179026635Y-108246092D01*
X179026628Y-108246079D01*
X178917139Y-108082218D01*
X178917136Y-108082214D01*
X178777785Y-107942863D01*
X178777781Y-107942860D01*
X178613920Y-107833371D01*
X178613907Y-107833364D01*
X178431839Y-107757950D01*
X178431829Y-107757947D01*
X178238543Y-107719500D01*
X178238541Y-107719500D01*
X178041459Y-107719500D01*
X178041457Y-107719500D01*
X177848170Y-107757947D01*
X177848160Y-107757950D01*
X177666092Y-107833364D01*
X177666079Y-107833371D01*
X177502218Y-107942860D01*
X177502214Y-107942863D01*
X177362863Y-108082214D01*
X177362860Y-108082218D01*
X177253371Y-108246079D01*
X177253364Y-108246092D01*
X177177950Y-108428160D01*
X177177947Y-108428170D01*
X177139500Y-108621456D01*
X177139500Y-108621457D01*
X177139500Y-108621459D01*
X177139500Y-108818541D01*
X177139500Y-108818543D01*
X177139499Y-108818543D01*
X176600500Y-108818543D01*
X176600500Y-108621456D01*
X176562052Y-108428170D01*
X176562051Y-108428169D01*
X176562051Y-108428165D01*
X176523690Y-108335552D01*
X176486635Y-108246092D01*
X176486628Y-108246079D01*
X176377139Y-108082218D01*
X176377136Y-108082214D01*
X176237785Y-107942863D01*
X176237781Y-107942860D01*
X176073920Y-107833371D01*
X176073907Y-107833364D01*
X175891839Y-107757950D01*
X175891829Y-107757947D01*
X175698543Y-107719500D01*
X175698541Y-107719500D01*
X175501459Y-107719500D01*
X175501457Y-107719500D01*
X175308170Y-107757947D01*
X175308160Y-107757950D01*
X175126092Y-107833364D01*
X175126079Y-107833371D01*
X174962218Y-107942860D01*
X174962214Y-107942863D01*
X174822863Y-108082214D01*
X174822860Y-108082218D01*
X174713371Y-108246079D01*
X174713364Y-108246092D01*
X174637950Y-108428160D01*
X174637947Y-108428170D01*
X174599500Y-108621456D01*
X174599500Y-108621457D01*
X174599500Y-108621459D01*
X174599500Y-108818541D01*
X174599500Y-108818543D01*
X174599499Y-108818543D01*
X174060500Y-108818543D01*
X174060500Y-108621456D01*
X174022052Y-108428170D01*
X174022051Y-108428169D01*
X174022051Y-108428165D01*
X173983690Y-108335552D01*
X173946635Y-108246092D01*
X173946628Y-108246079D01*
X173837139Y-108082218D01*
X173837136Y-108082214D01*
X173697785Y-107942863D01*
X173697781Y-107942860D01*
X173533920Y-107833371D01*
X173533907Y-107833364D01*
X173351839Y-107757950D01*
X173351829Y-107757947D01*
X173158543Y-107719500D01*
X173158541Y-107719500D01*
X172961459Y-107719500D01*
X172961457Y-107719500D01*
X172768170Y-107757947D01*
X172768160Y-107757950D01*
X172586092Y-107833364D01*
X172586079Y-107833371D01*
X172422218Y-107942860D01*
X172422214Y-107942863D01*
X172282863Y-108082214D01*
X172282860Y-108082218D01*
X172173371Y-108246079D01*
X172173364Y-108246092D01*
X172097950Y-108428160D01*
X172097947Y-108428170D01*
X172059500Y-108621456D01*
X172059500Y-108621457D01*
X172059500Y-108621459D01*
X172059500Y-108818541D01*
X172059500Y-108818543D01*
X172059499Y-108818543D01*
X171520500Y-108818543D01*
X171520500Y-108621456D01*
X171482052Y-108428170D01*
X171482051Y-108428169D01*
X171482051Y-108428165D01*
X171443690Y-108335552D01*
X171406635Y-108246092D01*
X171406628Y-108246079D01*
X171297139Y-108082218D01*
X171297136Y-108082214D01*
X171157785Y-107942863D01*
X171157781Y-107942860D01*
X170993920Y-107833371D01*
X170993907Y-107833364D01*
X170811839Y-107757950D01*
X170811829Y-107757947D01*
X170618543Y-107719500D01*
X170618541Y-107719500D01*
X170421459Y-107719500D01*
X170421454Y-107719500D01*
X170284920Y-107746658D01*
X170215328Y-107740431D01*
X170173048Y-107712722D01*
X165197297Y-102736971D01*
X160199862Y-97739535D01*
X160162750Y-97718108D01*
X160125640Y-97696682D01*
X160080947Y-97684707D01*
X160042853Y-97674500D01*
X160042852Y-97674500D01*
X157186188Y-97674500D01*
X157119149Y-97654815D01*
X157098507Y-97638181D01*
X155872508Y-96412181D01*
X155839023Y-96350858D01*
X155844007Y-96281166D01*
X155885879Y-96225233D01*
X155951343Y-96200816D01*
X155960189Y-96200500D01*
X186089308Y-96200500D01*
X186089309Y-96200500D01*
X186160580Y-96181401D01*
X186179666Y-96176288D01*
X186179667Y-96176287D01*
X186179673Y-96176286D01*
X186203887Y-96169799D01*
X186306614Y-96110489D01*
X187933680Y-94483422D01*
X187995001Y-94449939D01*
X188045551Y-94449488D01*
X188201456Y-94480500D01*
X188201459Y-94480500D01*
X188398543Y-94480500D01*
X188528582Y-94454632D01*
X188591835Y-94442051D01*
X188773914Y-94366632D01*
X188937782Y-94257139D01*
X188949885Y-94245036D01*
X188962819Y-94232103D01*
X188982255Y-94221490D01*
X188998989Y-94206990D01*
X189012320Y-94205073D01*
X189024142Y-94198618D01*
X189046228Y-94200197D01*
X189068147Y-94197046D01*
X189080398Y-94202641D01*
X189093834Y-94203602D01*
X189111560Y-94216872D01*
X189131703Y-94226071D01*
X189138985Y-94237402D01*
X189149767Y-94245474D01*
X189157504Y-94266219D01*
X189169477Y-94284849D01*
X189172628Y-94306767D01*
X189174184Y-94310938D01*
X189174500Y-94319784D01*
X189174500Y-94513810D01*
X189154815Y-94580849D01*
X189138181Y-94601491D01*
X188134102Y-95605569D01*
X188078519Y-95637662D01*
X188068215Y-95640423D01*
X188068212Y-95640424D01*
X187931287Y-95719477D01*
X187931282Y-95719481D01*
X187819481Y-95831282D01*
X187819475Y-95831290D01*
X187740426Y-95968209D01*
X187740423Y-95968216D01*
X187699500Y-96120943D01*
X187699500Y-96279057D01*
X187736007Y-96415301D01*
X187740423Y-96431783D01*
X187740426Y-96431790D01*
X187819475Y-96568709D01*
X187819479Y-96568714D01*
X187819480Y-96568716D01*
X187931284Y-96680520D01*
X187931286Y-96680521D01*
X187931290Y-96680524D01*
X188033502Y-96739535D01*
X188068216Y-96759577D01*
X188220943Y-96800500D01*
X188220945Y-96800500D01*
X188379055Y-96800500D01*
X188379057Y-96800500D01*
X188531784Y-96759577D01*
X188668716Y-96680520D01*
X188780520Y-96568716D01*
X188859577Y-96431784D01*
X188900500Y-96279057D01*
X188900500Y-96120943D01*
X188859577Y-95968216D01*
X188845853Y-95944446D01*
X188829381Y-95876547D01*
X188852234Y-95810520D01*
X188865560Y-95794766D01*
X189277865Y-95382461D01*
X189760465Y-94899862D01*
X189803318Y-94825639D01*
X189825500Y-94742853D01*
X189825500Y-94657147D01*
X189825500Y-94171319D01*
X189845185Y-94104280D01*
X189897989Y-94058525D01*
X189967147Y-94048581D01*
X190030703Y-94077606D01*
X190052603Y-94102430D01*
X190062859Y-94117780D01*
X190062863Y-94117785D01*
X190202214Y-94257136D01*
X190202218Y-94257139D01*
X190366079Y-94366628D01*
X190366092Y-94366635D01*
X190533409Y-94435939D01*
X190587813Y-94479779D01*
X190609878Y-94546073D01*
X190592599Y-94613773D01*
X190541462Y-94661384D01*
X190485957Y-94674500D01*
X190457147Y-94674500D01*
X190374361Y-94696682D01*
X190374358Y-94696683D01*
X190337250Y-94718107D01*
X190337250Y-94718108D01*
X190300138Y-94739535D01*
X190300135Y-94739537D01*
X189739537Y-95300135D01*
X189739535Y-95300138D01*
X189696682Y-95374359D01*
X189674500Y-95457147D01*
X189674500Y-95825169D01*
X189654815Y-95892208D01*
X189635982Y-95912684D01*
X189637031Y-95913733D01*
X189519481Y-96031282D01*
X189519475Y-96031290D01*
X189440426Y-96168209D01*
X189440423Y-96168216D01*
X189399500Y-96320943D01*
X189399500Y-96479057D01*
X189426682Y-96580499D01*
X189440423Y-96631783D01*
X189440426Y-96631790D01*
X189519475Y-96768709D01*
X189519479Y-96768714D01*
X189519480Y-96768716D01*
X189631284Y-96880520D01*
X189631286Y-96880521D01*
X189631290Y-96880524D01*
X189724102Y-96934108D01*
X189768216Y-96959577D01*
X189920943Y-97000500D01*
X189920945Y-97000500D01*
X190079055Y-97000500D01*
X190079057Y-97000500D01*
X190231784Y-96959577D01*
X190368716Y-96880520D01*
X190480520Y-96768716D01*
X190559577Y-96631784D01*
X190600500Y-96479057D01*
X190600500Y-96320943D01*
X190559577Y-96168216D01*
X190559573Y-96168209D01*
X190480524Y-96031290D01*
X190480518Y-96031282D01*
X190362969Y-95913733D01*
X190364198Y-95912503D01*
X190351309Y-95892448D01*
X190332798Y-95867080D01*
X190331977Y-95862366D01*
X190330523Y-95860104D01*
X190325500Y-95825169D01*
X190325500Y-95686188D01*
X190345185Y-95619149D01*
X190361819Y-95598507D01*
X190598507Y-95361819D01*
X190659830Y-95328334D01*
X190686188Y-95325500D01*
X191542851Y-95325500D01*
X191542853Y-95325500D01*
X191625639Y-95303318D01*
X191699862Y-95260465D01*
X192510465Y-94449862D01*
X192553318Y-94375639D01*
X192564147Y-94335222D01*
X192600508Y-94275567D01*
X192663354Y-94245036D01*
X192732730Y-94253329D01*
X192752811Y-94264217D01*
X192906079Y-94366628D01*
X192906092Y-94366635D01*
X193076596Y-94437259D01*
X193088165Y-94442051D01*
X193088169Y-94442051D01*
X193088170Y-94442052D01*
X193281456Y-94480500D01*
X193281459Y-94480500D01*
X193478543Y-94480500D01*
X193608582Y-94454632D01*
X193671835Y-94442051D01*
X193853914Y-94366632D01*
X194017782Y-94257139D01*
X194157139Y-94117782D01*
X194266632Y-93953914D01*
X194342051Y-93771835D01*
X194361057Y-93676285D01*
X194380500Y-93578543D01*
X194380500Y-93381456D01*
X194342052Y-93188170D01*
X194342051Y-93188169D01*
X194342051Y-93188165D01*
X194321223Y-93137881D01*
X194266635Y-93006092D01*
X194266628Y-93006079D01*
X194157139Y-92842218D01*
X194157136Y-92842214D01*
X194017785Y-92702863D01*
X194017777Y-92702857D01*
X193885610Y-92614546D01*
X193840804Y-92560934D01*
X193830500Y-92511444D01*
X193830500Y-91640162D01*
X193850185Y-91573123D01*
X193866822Y-91552477D01*
X193872146Y-91547152D01*
X193872150Y-91547150D01*
X193952793Y-91437882D01*
X193975219Y-91373790D01*
X193997646Y-91309701D01*
X193997646Y-91309699D01*
X194000500Y-91279269D01*
X194000500Y-90220730D01*
X193997646Y-90190300D01*
X193997646Y-90190298D01*
X193960045Y-90082843D01*
X193952793Y-90062118D01*
X193872150Y-89952850D01*
X193762882Y-89872207D01*
X193762881Y-89872206D01*
X193746044Y-89866315D01*
X193689268Y-89825593D01*
X193663522Y-89760640D01*
X193663000Y-89749274D01*
X193663000Y-87353193D01*
X193663000Y-87353191D01*
X193632299Y-87238614D01*
X193619469Y-87216392D01*
X193572990Y-87135886D01*
X192984125Y-86547021D01*
X192971731Y-86524323D01*
X192956036Y-86503763D01*
X192955258Y-86494155D01*
X192950640Y-86485698D01*
X192952484Y-86459899D01*
X192950398Y-86434121D01*
X192955086Y-86423525D01*
X192955624Y-86416006D01*
X192962421Y-86400938D01*
X192966455Y-86393382D01*
X192976760Y-86379199D01*
X193033837Y-86267178D01*
X193034414Y-86266098D01*
X193058053Y-86242010D01*
X193081288Y-86217409D01*
X193082525Y-86217074D01*
X193083353Y-86216231D01*
X193097727Y-86212962D01*
X193143799Y-86200500D01*
X197256201Y-86200500D01*
X197323240Y-86220185D01*
X197366685Y-86268204D01*
X197423240Y-86379199D01*
X197534310Y-86532073D01*
X197667927Y-86665690D01*
X197820801Y-86776760D01*
X197866683Y-86800138D01*
X197989163Y-86862545D01*
X197989165Y-86862545D01*
X197989168Y-86862547D01*
X198025531Y-86874362D01*
X198168881Y-86920940D01*
X198355514Y-86950500D01*
X198355519Y-86950500D01*
X198544486Y-86950500D01*
X198731118Y-86920940D01*
X198910832Y-86862547D01*
X199079199Y-86776760D01*
X199232073Y-86665690D01*
X199365690Y-86532073D01*
X199476760Y-86379199D01*
X199562547Y-86210832D01*
X199620940Y-86031118D01*
X199630138Y-85973044D01*
X199650500Y-85844486D01*
X199650500Y-85655513D01*
X199620940Y-85468881D01*
X199562545Y-85289163D01*
X199476759Y-85120800D01*
X199475240Y-85118709D01*
X199365690Y-84967927D01*
X199232073Y-84834310D01*
X199079199Y-84723240D01*
X198910836Y-84637454D01*
X198731118Y-84579059D01*
X198544486Y-84549500D01*
X198544481Y-84549500D01*
X198355519Y-84549500D01*
X198355514Y-84549500D01*
X198168881Y-84579059D01*
X197989163Y-84637454D01*
X197820800Y-84723240D01*
X197783285Y-84750497D01*
X197667927Y-84834310D01*
X197667925Y-84834312D01*
X197667924Y-84834312D01*
X197534312Y-84967924D01*
X197534312Y-84967925D01*
X197534310Y-84967927D01*
X197496851Y-85019485D01*
X197423240Y-85120800D01*
X197366686Y-85231795D01*
X197318712Y-85282591D01*
X197256201Y-85299500D01*
X193143799Y-85299500D01*
X193076760Y-85279815D01*
X193033314Y-85231795D01*
X192976759Y-85120800D01*
X192975240Y-85118709D01*
X192865690Y-84967927D01*
X192732073Y-84834310D01*
X192579199Y-84723240D01*
X192410836Y-84637454D01*
X192231118Y-84579059D01*
X192044486Y-84549500D01*
X192044481Y-84549500D01*
X191855519Y-84549500D01*
X191855514Y-84549500D01*
X191668881Y-84579059D01*
X191489163Y-84637454D01*
X191320800Y-84723240D01*
X191283285Y-84750497D01*
X191167927Y-84834310D01*
X191167925Y-84834312D01*
X191167924Y-84834312D01*
X191034312Y-84967924D01*
X191034312Y-84967925D01*
X191034310Y-84967927D01*
X190996851Y-85019485D01*
X190923240Y-85120800D01*
X190837454Y-85289163D01*
X190779059Y-85468881D01*
X190749500Y-85655513D01*
X190749500Y-85844486D01*
X190779059Y-86031118D01*
X190837454Y-86210836D01*
X190904650Y-86342714D01*
X190923240Y-86379199D01*
X191034310Y-86532073D01*
X191167927Y-86665690D01*
X191320801Y-86776760D01*
X191366683Y-86800138D01*
X191489163Y-86862545D01*
X191489165Y-86862545D01*
X191489168Y-86862547D01*
X191525531Y-86874362D01*
X191668881Y-86920940D01*
X191855514Y-86950500D01*
X191855519Y-86950500D01*
X192044481Y-86950500D01*
X192049332Y-86950118D01*
X192049479Y-86951996D01*
X192110800Y-86959887D01*
X192148648Y-86985752D01*
X192725681Y-87562784D01*
X192759166Y-87624107D01*
X192762000Y-87650465D01*
X192762000Y-87773035D01*
X192742315Y-87840074D01*
X192689511Y-87885829D01*
X192620353Y-87895773D01*
X192556797Y-87866748D01*
X192530613Y-87835035D01*
X192510467Y-87800141D01*
X192510466Y-87800139D01*
X192510465Y-87800138D01*
X192449862Y-87739535D01*
X192199862Y-87489535D01*
X192162750Y-87468108D01*
X192125640Y-87446682D01*
X192068194Y-87431290D01*
X192042853Y-87424500D01*
X192042852Y-87424500D01*
X190045507Y-87424500D01*
X189978468Y-87404815D01*
X189932713Y-87352011D01*
X189922769Y-87282853D01*
X189951794Y-87219297D01*
X189983506Y-87193113D01*
X190057314Y-87150500D01*
X190150500Y-87057314D01*
X190216392Y-86943186D01*
X190250500Y-86815892D01*
X190250500Y-86684108D01*
X190216392Y-86556814D01*
X190150500Y-86442686D01*
X190111819Y-86404005D01*
X190078334Y-86342682D01*
X190075500Y-86316324D01*
X190075500Y-78957149D01*
X190075500Y-78957147D01*
X190057333Y-78889346D01*
X190058996Y-78819499D01*
X190066619Y-78800968D01*
X190112547Y-78710832D01*
X190170940Y-78531118D01*
X190200500Y-78344486D01*
X190200500Y-78155513D01*
X190170940Y-77968881D01*
X190132573Y-77850801D01*
X190112547Y-77789168D01*
X190112545Y-77789165D01*
X190112545Y-77789163D01*
X190066056Y-77697924D01*
X190026760Y-77620801D01*
X189915690Y-77467927D01*
X189782073Y-77334310D01*
X189629199Y-77223240D01*
X189628210Y-77222736D01*
X189460836Y-77137454D01*
X189281118Y-77079059D01*
X189094486Y-77049500D01*
X189094481Y-77049500D01*
X188905519Y-77049500D01*
X188905514Y-77049500D01*
X188718881Y-77079059D01*
X188539163Y-77137454D01*
X188370800Y-77223240D01*
X188313720Y-77264712D01*
X188217927Y-77334310D01*
X188217925Y-77334312D01*
X188217924Y-77334312D01*
X188084312Y-77467924D01*
X188084312Y-77467925D01*
X188084310Y-77467927D01*
X188036610Y-77533579D01*
X187973240Y-77620800D01*
X187916686Y-77731795D01*
X187868712Y-77782591D01*
X187806201Y-77799500D01*
X183693799Y-77799500D01*
X183626760Y-77779815D01*
X183583314Y-77731795D01*
X183576712Y-77718838D01*
X183526760Y-77620801D01*
X183415690Y-77467927D01*
X183282073Y-77334310D01*
X183129199Y-77223240D01*
X183128210Y-77222736D01*
X182960836Y-77137454D01*
X182781118Y-77079059D01*
X182594486Y-77049500D01*
X182594481Y-77049500D01*
X182405519Y-77049500D01*
X182405514Y-77049500D01*
X182218881Y-77079059D01*
X182039163Y-77137454D01*
X181870800Y-77223240D01*
X181813720Y-77264712D01*
X181717927Y-77334310D01*
X181717925Y-77334312D01*
X181717924Y-77334312D01*
X181584312Y-77467924D01*
X181584312Y-77467925D01*
X181584310Y-77467927D01*
X181536610Y-77533579D01*
X181473240Y-77620800D01*
X181387454Y-77789163D01*
X181329059Y-77968881D01*
X181299500Y-78155513D01*
X181299500Y-78344486D01*
X181329059Y-78531118D01*
X181387454Y-78710836D01*
X181449958Y-78833506D01*
X181473240Y-78879199D01*
X181584310Y-79032073D01*
X181717927Y-79165690D01*
X181870801Y-79276760D01*
X181950347Y-79317290D01*
X182039163Y-79362545D01*
X182039165Y-79362545D01*
X182039168Y-79362547D01*
X182135497Y-79393846D01*
X182218881Y-79420940D01*
X182405514Y-79450500D01*
X182405519Y-79450500D01*
X182594486Y-79450500D01*
X182781118Y-79420940D01*
X182960832Y-79362547D01*
X183129199Y-79276760D01*
X183282073Y-79165690D01*
X183415690Y-79032073D01*
X183526760Y-78879199D01*
X183583314Y-78768204D01*
X183631288Y-78717409D01*
X183693799Y-78700500D01*
X187806201Y-78700500D01*
X187873240Y-78720185D01*
X187916685Y-78768204D01*
X187973240Y-78879199D01*
X188084310Y-79032073D01*
X188217927Y-79165690D01*
X188370801Y-79276760D01*
X188450347Y-79317290D01*
X188539163Y-79362545D01*
X188539165Y-79362545D01*
X188539168Y-79362547D01*
X188635497Y-79393846D01*
X188718881Y-79420940D01*
X188905514Y-79450500D01*
X188905519Y-79450500D01*
X189094486Y-79450500D01*
X189205934Y-79432847D01*
X189281103Y-79420942D01*
X189350395Y-79429896D01*
X189403847Y-79474892D01*
X189424487Y-79541644D01*
X189424500Y-79543415D01*
X189424500Y-86316324D01*
X189404815Y-86383363D01*
X189388181Y-86404005D01*
X189349502Y-86442683D01*
X189349500Y-86442686D01*
X189283608Y-86556812D01*
X189255893Y-86660247D01*
X189249500Y-86684108D01*
X189249500Y-86815892D01*
X189265165Y-86874355D01*
X189283608Y-86943187D01*
X189316554Y-87000250D01*
X189349500Y-87057314D01*
X189442686Y-87150500D01*
X189516494Y-87193113D01*
X189564709Y-87243680D01*
X189577931Y-87312288D01*
X189551963Y-87377152D01*
X189495049Y-87417680D01*
X189454493Y-87424500D01*
X182125098Y-87424500D01*
X182058059Y-87404815D01*
X182037417Y-87388181D01*
X181968717Y-87319481D01*
X181968709Y-87319475D01*
X181831790Y-87240426D01*
X181831786Y-87240424D01*
X181831784Y-87240423D01*
X181679057Y-87199500D01*
X181520943Y-87199500D01*
X181368216Y-87240423D01*
X181368209Y-87240426D01*
X181231290Y-87319475D01*
X181231282Y-87319481D01*
X181119481Y-87431282D01*
X181119475Y-87431290D01*
X181040426Y-87568209D01*
X181040423Y-87568216D01*
X180999500Y-87720943D01*
X180999500Y-87879057D01*
X181039899Y-88029826D01*
X181040423Y-88031783D01*
X181040426Y-88031790D01*
X181119475Y-88168709D01*
X181119479Y-88168714D01*
X181119480Y-88168716D01*
X181231284Y-88280520D01*
X181231286Y-88280521D01*
X181231290Y-88280524D01*
X181329317Y-88337119D01*
X181368216Y-88359577D01*
X181447144Y-88380725D01*
X181506804Y-88417090D01*
X181537333Y-88479937D01*
X181529038Y-88549313D01*
X181484553Y-88603190D01*
X181418001Y-88624465D01*
X181415050Y-88624500D01*
X178995730Y-88624500D01*
X178965300Y-88627353D01*
X178965298Y-88627353D01*
X178837119Y-88672206D01*
X178837117Y-88672207D01*
X178727850Y-88752850D01*
X178647207Y-88862117D01*
X178647206Y-88862119D01*
X178602353Y-88990298D01*
X178602353Y-88990300D01*
X178599500Y-89020730D01*
X178599500Y-89804269D01*
X178602353Y-89834699D01*
X178602353Y-89834701D01*
X178646818Y-89961770D01*
X178647207Y-89962882D01*
X178727850Y-90072150D01*
X178804980Y-90129074D01*
X178833645Y-90150230D01*
X178875895Y-90205878D01*
X178881354Y-90275534D01*
X178848286Y-90337083D01*
X178833645Y-90349770D01*
X178727850Y-90427850D01*
X178647207Y-90537117D01*
X178647206Y-90537119D01*
X178602353Y-90665298D01*
X178602353Y-90665300D01*
X178599500Y-90695730D01*
X178599500Y-91479269D01*
X178602353Y-91509699D01*
X178602353Y-91509701D01*
X178647206Y-91637879D01*
X178647207Y-91637882D01*
X178727850Y-91747150D01*
X178837118Y-91827793D01*
X178879845Y-91842744D01*
X178965299Y-91872646D01*
X178995730Y-91875500D01*
X178995734Y-91875500D01*
X182004270Y-91875500D01*
X182034699Y-91872646D01*
X182034701Y-91872646D01*
X182098790Y-91850219D01*
X182162882Y-91827793D01*
X182272150Y-91747150D01*
X182352793Y-91637882D01*
X182358684Y-91621047D01*
X182372304Y-91602056D01*
X182382013Y-91580797D01*
X182392287Y-91574194D01*
X182399405Y-91564270D01*
X182421131Y-91555657D01*
X182440791Y-91543023D01*
X182459954Y-91540267D01*
X182464358Y-91538522D01*
X182475726Y-91538000D01*
X182625500Y-91538000D01*
X182692539Y-91557685D01*
X182738294Y-91610489D01*
X182749500Y-91662000D01*
X182749500Y-92524807D01*
X182729815Y-92591846D01*
X182694391Y-92627909D01*
X182582218Y-92702860D01*
X182582214Y-92702863D01*
X182442863Y-92842214D01*
X182442860Y-92842218D01*
X182333371Y-93006079D01*
X182333364Y-93006092D01*
X182257950Y-93188160D01*
X182257947Y-93188170D01*
X182219500Y-93381456D01*
X182219500Y-93381459D01*
X182219500Y-93578541D01*
X182219500Y-93578543D01*
X182219499Y-93578543D01*
X182257947Y-93771829D01*
X182257950Y-93771839D01*
X182333364Y-93953907D01*
X182333371Y-93953920D01*
X182442860Y-94117781D01*
X182442863Y-94117785D01*
X182582214Y-94257136D01*
X182582218Y-94257139D01*
X182746079Y-94366628D01*
X182746092Y-94366635D01*
X182916596Y-94437259D01*
X182928165Y-94442051D01*
X182928169Y-94442051D01*
X182928170Y-94442052D01*
X183121456Y-94480500D01*
X183121459Y-94480500D01*
X183318543Y-94480500D01*
X183448582Y-94454632D01*
X183511835Y-94442051D01*
X183693914Y-94366632D01*
X183857782Y-94257139D01*
X183997139Y-94117782D01*
X184106632Y-93953914D01*
X184182051Y-93771835D01*
X184201057Y-93676285D01*
X184220500Y-93578543D01*
X184759499Y-93578543D01*
X184797947Y-93771829D01*
X184797950Y-93771839D01*
X184873364Y-93953907D01*
X184873371Y-93953920D01*
X184982860Y-94117781D01*
X184982863Y-94117785D01*
X185122214Y-94257136D01*
X185122218Y-94257139D01*
X185286079Y-94366628D01*
X185286092Y-94366635D01*
X185456596Y-94437259D01*
X185468165Y-94442051D01*
X185468169Y-94442051D01*
X185468170Y-94442052D01*
X185661456Y-94480500D01*
X185661459Y-94480500D01*
X185858543Y-94480500D01*
X185988582Y-94454632D01*
X186051835Y-94442051D01*
X186233914Y-94366632D01*
X186397782Y-94257139D01*
X186537139Y-94117782D01*
X186646632Y-93953914D01*
X186722051Y-93771835D01*
X186741057Y-93676285D01*
X186760500Y-93578543D01*
X186760500Y-93381456D01*
X186722052Y-93188170D01*
X186722051Y-93188169D01*
X186722051Y-93188165D01*
X186701223Y-93137881D01*
X186646635Y-93006092D01*
X186646628Y-93006079D01*
X186537139Y-92842218D01*
X186537136Y-92842214D01*
X186397785Y-92702863D01*
X186397781Y-92702860D01*
X186233920Y-92593371D01*
X186233907Y-92593364D01*
X186051839Y-92517950D01*
X186051829Y-92517947D01*
X185858543Y-92479500D01*
X185858541Y-92479500D01*
X185661459Y-92479500D01*
X185661457Y-92479500D01*
X185468170Y-92517947D01*
X185468160Y-92517950D01*
X185286092Y-92593364D01*
X185286079Y-92593371D01*
X185122218Y-92702860D01*
X185122214Y-92702863D01*
X184982863Y-92842214D01*
X184982860Y-92842218D01*
X184873371Y-93006079D01*
X184873364Y-93006092D01*
X184797950Y-93188160D01*
X184797947Y-93188170D01*
X184759500Y-93381456D01*
X184759500Y-93381459D01*
X184759500Y-93578541D01*
X184759500Y-93578543D01*
X184759499Y-93578543D01*
X184220500Y-93578543D01*
X184220500Y-93381456D01*
X184182052Y-93188170D01*
X184182051Y-93188169D01*
X184182051Y-93188165D01*
X184161223Y-93137881D01*
X184106635Y-93006092D01*
X184106628Y-93006079D01*
X183997139Y-92842218D01*
X183997136Y-92842214D01*
X183857785Y-92702863D01*
X183857781Y-92702860D01*
X183705609Y-92601181D01*
X183660804Y-92547569D01*
X183650500Y-92498079D01*
X183650500Y-91859500D01*
X183670185Y-91792461D01*
X183722989Y-91746706D01*
X183774500Y-91735500D01*
X183854270Y-91735500D01*
X183884699Y-91732646D01*
X183884701Y-91732646D01*
X183963118Y-91705206D01*
X184012882Y-91687793D01*
X184122150Y-91607150D01*
X184202793Y-91497882D01*
X184231690Y-91415298D01*
X184247646Y-91369701D01*
X184247646Y-91369699D01*
X184250500Y-91339269D01*
X184250500Y-90280730D01*
X184247646Y-90250300D01*
X184247646Y-90250298D01*
X184210981Y-90145517D01*
X184202793Y-90122118D01*
X184122150Y-90012850D01*
X184122148Y-90012849D01*
X184122148Y-90012848D01*
X184052939Y-89961770D01*
X184010688Y-89906123D01*
X184005229Y-89836467D01*
X184038296Y-89774917D01*
X184099390Y-89741016D01*
X184126572Y-89738000D01*
X186476311Y-89738000D01*
X186543350Y-89757685D01*
X186563992Y-89774319D01*
X189138181Y-92348508D01*
X189152884Y-92375435D01*
X189169477Y-92401254D01*
X189170368Y-92407454D01*
X189171666Y-92409831D01*
X189174500Y-92436189D01*
X189174500Y-92640216D01*
X189154815Y-92707255D01*
X189102011Y-92753010D01*
X189032853Y-92762954D01*
X188969297Y-92733929D01*
X188962819Y-92727897D01*
X188937785Y-92702863D01*
X188937781Y-92702860D01*
X188773920Y-92593371D01*
X188773907Y-92593364D01*
X188591839Y-92517950D01*
X188591829Y-92517947D01*
X188398543Y-92479500D01*
X188398541Y-92479500D01*
X188201459Y-92479500D01*
X188201457Y-92479500D01*
X188008170Y-92517947D01*
X188008160Y-92517950D01*
X187826092Y-92593364D01*
X187826079Y-92593371D01*
X187662218Y-92702860D01*
X187662214Y-92702863D01*
X187522863Y-92842214D01*
X187522860Y-92842218D01*
X187413371Y-93006079D01*
X187413364Y-93006092D01*
X187337950Y-93188160D01*
X187337947Y-93188170D01*
X187299500Y-93381456D01*
X187299500Y-93578545D01*
X187330511Y-93734447D01*
X187324284Y-93804038D01*
X187296575Y-93846319D01*
X185879716Y-95263181D01*
X185818393Y-95296666D01*
X185792035Y-95299500D01*
X177166881Y-95299500D01*
X177099842Y-95279815D01*
X177054087Y-95227011D01*
X177044143Y-95157853D01*
X177052319Y-95128049D01*
X177053313Y-95125646D01*
X177053318Y-95125638D01*
X177075500Y-95042853D01*
X177075500Y-94096489D01*
X177095185Y-94029450D01*
X177147989Y-93983695D01*
X177217147Y-93973751D01*
X177280703Y-94002776D01*
X177302602Y-94027599D01*
X177362857Y-94117777D01*
X177362863Y-94117785D01*
X177502214Y-94257136D01*
X177502218Y-94257139D01*
X177666079Y-94366628D01*
X177666092Y-94366635D01*
X177836596Y-94437259D01*
X177848165Y-94442051D01*
X177848169Y-94442051D01*
X177848170Y-94442052D01*
X178041456Y-94480500D01*
X178041459Y-94480500D01*
X178238543Y-94480500D01*
X178368582Y-94454632D01*
X178431835Y-94442051D01*
X178613914Y-94366632D01*
X178777782Y-94257139D01*
X178917139Y-94117782D01*
X179026632Y-93953914D01*
X179102051Y-93771835D01*
X179121057Y-93676285D01*
X179140500Y-93578543D01*
X179679499Y-93578543D01*
X179717947Y-93771829D01*
X179717950Y-93771839D01*
X179793364Y-93953907D01*
X179793371Y-93953920D01*
X179902860Y-94117781D01*
X179902863Y-94117785D01*
X180042214Y-94257136D01*
X180042218Y-94257139D01*
X180206079Y-94366628D01*
X180206092Y-94366635D01*
X180376596Y-94437259D01*
X180388165Y-94442051D01*
X180388169Y-94442051D01*
X180388170Y-94442052D01*
X180581456Y-94480500D01*
X180581459Y-94480500D01*
X180778543Y-94480500D01*
X180908582Y-94454632D01*
X180971835Y-94442051D01*
X181153914Y-94366632D01*
X181317782Y-94257139D01*
X181457139Y-94117782D01*
X181566632Y-93953914D01*
X181642051Y-93771835D01*
X181661057Y-93676285D01*
X181680500Y-93578543D01*
X181680500Y-93381456D01*
X181642052Y-93188170D01*
X181642051Y-93188169D01*
X181642051Y-93188165D01*
X181621223Y-93137881D01*
X181566635Y-93006092D01*
X181566628Y-93006079D01*
X181457139Y-92842218D01*
X181457136Y-92842214D01*
X181317785Y-92702863D01*
X181317781Y-92702860D01*
X181153920Y-92593371D01*
X181153907Y-92593364D01*
X180971839Y-92517950D01*
X180971829Y-92517947D01*
X180778543Y-92479500D01*
X180778541Y-92479500D01*
X180581459Y-92479500D01*
X180581457Y-92479500D01*
X180388170Y-92517947D01*
X180388160Y-92517950D01*
X180206092Y-92593364D01*
X180206079Y-92593371D01*
X180042218Y-92702860D01*
X180042214Y-92702863D01*
X179902863Y-92842214D01*
X179902860Y-92842218D01*
X179793371Y-93006079D01*
X179793364Y-93006092D01*
X179717950Y-93188160D01*
X179717947Y-93188170D01*
X179679500Y-93381456D01*
X179679500Y-93381459D01*
X179679500Y-93578541D01*
X179679500Y-93578543D01*
X179679499Y-93578543D01*
X179140500Y-93578543D01*
X179140500Y-93381456D01*
X179102052Y-93188170D01*
X179102051Y-93188169D01*
X179102051Y-93188165D01*
X179081223Y-93137881D01*
X179026635Y-93006092D01*
X179026628Y-93006079D01*
X178917139Y-92842218D01*
X178917136Y-92842214D01*
X178777785Y-92702863D01*
X178777781Y-92702860D01*
X178613920Y-92593371D01*
X178613907Y-92593364D01*
X178431839Y-92517950D01*
X178431829Y-92517947D01*
X178238543Y-92479500D01*
X178238541Y-92479500D01*
X178041459Y-92479500D01*
X178041457Y-92479500D01*
X177848170Y-92517947D01*
X177848160Y-92517950D01*
X177666092Y-92593364D01*
X177666079Y-92593371D01*
X177502218Y-92702860D01*
X177502214Y-92702863D01*
X177362863Y-92842214D01*
X177362860Y-92842218D01*
X177302602Y-92932401D01*
X177248990Y-92977206D01*
X177179665Y-92985913D01*
X177116637Y-92955758D01*
X177079918Y-92896315D01*
X177075500Y-92863510D01*
X177075500Y-92024500D01*
X177095185Y-91957461D01*
X177147989Y-91911706D01*
X177199500Y-91900500D01*
X177696770Y-91900500D01*
X177727199Y-91897646D01*
X177727201Y-91897646D01*
X177802046Y-91871456D01*
X177855382Y-91852793D01*
X177964650Y-91772150D01*
X178045293Y-91662882D01*
X178082813Y-91555657D01*
X178090146Y-91534701D01*
X178090146Y-91534699D01*
X178093000Y-91504269D01*
X178093000Y-88495730D01*
X178090146Y-88465300D01*
X178090146Y-88465298D01*
X178045293Y-88337119D01*
X178045292Y-88337117D01*
X178042730Y-88333645D01*
X177964650Y-88227850D01*
X177855382Y-88147207D01*
X177855379Y-88147206D01*
X177788106Y-88123666D01*
X177731331Y-88082944D01*
X177705584Y-88017991D01*
X177719041Y-87949430D01*
X177741379Y-87918946D01*
X177923697Y-87736627D01*
X177985018Y-87703144D01*
X178012815Y-87701990D01*
X178012815Y-87700500D01*
X178179055Y-87700500D01*
X178179057Y-87700500D01*
X178331784Y-87659577D01*
X178468716Y-87580520D01*
X178580520Y-87468716D01*
X178659577Y-87331784D01*
X178700500Y-87179057D01*
X178700500Y-87020943D01*
X178659577Y-86868216D01*
X178629368Y-86815892D01*
X178580524Y-86731290D01*
X178580518Y-86731282D01*
X178468717Y-86619481D01*
X178468709Y-86619475D01*
X178331790Y-86540426D01*
X178331786Y-86540424D01*
X178331784Y-86540423D01*
X178179057Y-86499500D01*
X178020943Y-86499500D01*
X177868216Y-86540423D01*
X177868209Y-86540426D01*
X177731290Y-86619475D01*
X177731282Y-86619481D01*
X177619481Y-86731282D01*
X177619475Y-86731290D01*
X177540426Y-86868209D01*
X177540423Y-86868216D01*
X177499500Y-87020943D01*
X177499500Y-87187184D01*
X177496331Y-87187184D01*
X177487856Y-87241485D01*
X177463370Y-87276302D01*
X177044537Y-87695135D01*
X177044535Y-87695138D01*
X177001681Y-87769361D01*
X176993434Y-87800141D01*
X176979500Y-87852143D01*
X176979500Y-87981393D01*
X176959815Y-88048432D01*
X176907011Y-88094187D01*
X176888582Y-88100330D01*
X176754619Y-88147206D01*
X176754617Y-88147207D01*
X176645350Y-88227850D01*
X176567270Y-88333645D01*
X176511622Y-88375895D01*
X176441966Y-88381354D01*
X176380417Y-88348286D01*
X176367730Y-88333645D01*
X176328522Y-88280520D01*
X176289650Y-88227850D01*
X176180382Y-88147207D01*
X176180380Y-88147206D01*
X176045077Y-88099861D01*
X176045570Y-88098451D01*
X175991741Y-88068997D01*
X175958311Y-88007644D01*
X175955500Y-87981393D01*
X175955500Y-87182855D01*
X175955501Y-87182842D01*
X175955501Y-87087148D01*
X175947507Y-87057316D01*
X175933318Y-87004361D01*
X175933317Y-87004360D01*
X175933317Y-87004358D01*
X175914324Y-86971463D01*
X175914322Y-86971461D01*
X175908860Y-86962000D01*
X175890465Y-86930138D01*
X175829862Y-86869535D01*
X175829859Y-86869533D01*
X173631269Y-84670943D01*
X178649500Y-84670943D01*
X178649500Y-84829057D01*
X178686710Y-84967925D01*
X178690423Y-84981783D01*
X178690426Y-84981790D01*
X178769475Y-85118709D01*
X178769479Y-85118714D01*
X178769480Y-85118716D01*
X178881284Y-85230520D01*
X178881286Y-85230521D01*
X178881290Y-85230524D01*
X178982866Y-85289168D01*
X179018216Y-85309577D01*
X179170943Y-85350500D01*
X179170945Y-85350500D01*
X179329055Y-85350500D01*
X179329057Y-85350500D01*
X179481784Y-85309577D01*
X179618716Y-85230520D01*
X179730520Y-85118716D01*
X179730520Y-85118715D01*
X179736267Y-85112969D01*
X179738512Y-85115214D01*
X179782855Y-85082821D01*
X179824830Y-85075500D01*
X182337851Y-85075500D01*
X182337853Y-85075500D01*
X182420639Y-85053318D01*
X182461250Y-85029871D01*
X182473872Y-85022584D01*
X182541772Y-85006110D01*
X182592166Y-85019484D01*
X182612555Y-85029873D01*
X182777299Y-85083402D01*
X182948389Y-85110500D01*
X182948390Y-85110500D01*
X183121610Y-85110500D01*
X183121611Y-85110500D01*
X183292701Y-85083402D01*
X183457445Y-85029873D01*
X183611788Y-84951232D01*
X183751928Y-84849414D01*
X183874414Y-84726928D01*
X183976232Y-84586788D01*
X184054873Y-84432445D01*
X184108402Y-84267701D01*
X184135500Y-84096611D01*
X184135500Y-83923389D01*
X184108402Y-83752299D01*
X184054873Y-83587555D01*
X183976232Y-83433212D01*
X183874414Y-83293072D01*
X183751928Y-83170586D01*
X183611788Y-83068768D01*
X183457445Y-82990127D01*
X183292701Y-82936598D01*
X183292699Y-82936597D01*
X183292698Y-82936597D01*
X183161271Y-82915781D01*
X183121611Y-82909500D01*
X182948389Y-82909500D01*
X182908728Y-82915781D01*
X182777302Y-82936597D01*
X182612552Y-82990128D01*
X182458211Y-83068768D01*
X182378256Y-83126859D01*
X182318072Y-83170586D01*
X182318070Y-83170588D01*
X182318069Y-83170588D01*
X182195588Y-83293069D01*
X182195588Y-83293070D01*
X182195586Y-83293072D01*
X182175804Y-83320300D01*
X182093768Y-83433211D01*
X182015128Y-83587552D01*
X181961597Y-83752302D01*
X181934500Y-83923389D01*
X181934500Y-84096610D01*
X181961598Y-84267707D01*
X181962525Y-84271567D01*
X181959027Y-84341349D01*
X181918356Y-84398161D01*
X181853427Y-84423968D01*
X181841948Y-84424500D01*
X179824830Y-84424500D01*
X179757791Y-84404815D01*
X179737320Y-84385977D01*
X179736267Y-84387031D01*
X179618717Y-84269481D01*
X179618709Y-84269475D01*
X179481790Y-84190426D01*
X179481786Y-84190424D01*
X179481784Y-84190423D01*
X179329057Y-84149500D01*
X179170943Y-84149500D01*
X179018216Y-84190423D01*
X179018209Y-84190426D01*
X178881290Y-84269475D01*
X178881282Y-84269481D01*
X178769481Y-84381282D01*
X178769475Y-84381290D01*
X178690426Y-84518209D01*
X178690423Y-84518216D01*
X178649500Y-84670943D01*
X173631269Y-84670943D01*
X164839038Y-75878711D01*
X194349500Y-75878711D01*
X194349500Y-76121288D01*
X194381161Y-76361785D01*
X194443947Y-76596104D01*
X194496126Y-76722074D01*
X194536776Y-76820212D01*
X194658064Y-77030289D01*
X194658066Y-77030292D01*
X194658067Y-77030293D01*
X194805733Y-77222736D01*
X194805739Y-77222743D01*
X194977256Y-77394260D01*
X194977262Y-77394265D01*
X195169711Y-77541936D01*
X195379788Y-77663224D01*
X195603900Y-77756054D01*
X195838211Y-77818838D01*
X196018586Y-77842584D01*
X196078711Y-77850500D01*
X196078712Y-77850500D01*
X196321289Y-77850500D01*
X196369388Y-77844167D01*
X196561789Y-77818838D01*
X196796100Y-77756054D01*
X197020212Y-77663224D01*
X197230289Y-77541936D01*
X197422738Y-77394265D01*
X197594265Y-77222738D01*
X197741936Y-77030289D01*
X197863224Y-76820212D01*
X197956054Y-76596100D01*
X198018838Y-76361789D01*
X198050500Y-76121288D01*
X198050500Y-75878712D01*
X198018838Y-75638211D01*
X197956054Y-75403900D01*
X197863224Y-75179788D01*
X197741936Y-74969711D01*
X197681018Y-74890321D01*
X197594266Y-74777263D01*
X197594260Y-74777256D01*
X197422743Y-74605739D01*
X197422736Y-74605733D01*
X197230293Y-74458067D01*
X197230292Y-74458066D01*
X197230289Y-74458064D01*
X197020212Y-74336776D01*
X197000872Y-74328765D01*
X196796104Y-74243947D01*
X196561785Y-74181161D01*
X196321289Y-74149500D01*
X196321288Y-74149500D01*
X196078712Y-74149500D01*
X196078711Y-74149500D01*
X195838214Y-74181161D01*
X195603895Y-74243947D01*
X195379794Y-74336773D01*
X195379785Y-74336777D01*
X195169706Y-74458067D01*
X194977263Y-74605733D01*
X194977256Y-74605739D01*
X194805739Y-74777256D01*
X194805733Y-74777263D01*
X194658067Y-74969706D01*
X194536777Y-75179785D01*
X194536773Y-75179794D01*
X194443947Y-75403895D01*
X194381161Y-75638214D01*
X194349500Y-75878711D01*
X164839038Y-75878711D01*
X164639862Y-75679535D01*
X164602750Y-75658108D01*
X164565640Y-75636682D01*
X164524246Y-75625591D01*
X164482853Y-75614500D01*
X164482852Y-75614500D01*
X145246611Y-75614500D01*
X145179572Y-75594815D01*
X145133817Y-75542011D01*
X145128680Y-75528818D01*
X145112548Y-75479170D01*
X145074196Y-75403900D01*
X145026760Y-75310801D01*
X144915690Y-75157927D01*
X144782073Y-75024310D01*
X144629199Y-74913240D01*
X144596280Y-74896467D01*
X144460836Y-74827454D01*
X144281118Y-74769059D01*
X144094486Y-74739500D01*
X144094481Y-74739500D01*
X143905519Y-74739500D01*
X143905514Y-74739500D01*
X143718881Y-74769059D01*
X143539163Y-74827454D01*
X143370800Y-74913240D01*
X143283579Y-74976610D01*
X143217927Y-75024310D01*
X143217925Y-75024312D01*
X143217924Y-75024312D01*
X143084312Y-75157924D01*
X143084312Y-75157925D01*
X143084310Y-75157927D01*
X143036610Y-75223579D01*
X142973240Y-75310800D01*
X142887454Y-75479163D01*
X142829059Y-75658881D01*
X142799500Y-75845513D01*
X142799500Y-76034486D01*
X142829059Y-76221118D01*
X142887454Y-76400836D01*
X142935994Y-76496100D01*
X142973240Y-76569199D01*
X143084310Y-76722073D01*
X143217927Y-76855690D01*
X143370801Y-76966760D01*
X143450347Y-77007290D01*
X143539163Y-77052545D01*
X143539165Y-77052545D01*
X143539168Y-77052547D01*
X143620763Y-77079059D01*
X143660803Y-77092069D01*
X143718478Y-77131507D01*
X143745676Y-77195866D01*
X143733761Y-77264712D01*
X143686516Y-77316188D01*
X143660803Y-77327931D01*
X143539163Y-77367454D01*
X143370800Y-77453240D01*
X143283579Y-77516610D01*
X143217927Y-77564310D01*
X143217925Y-77564312D01*
X143217924Y-77564312D01*
X143084312Y-77697924D01*
X143084312Y-77697925D01*
X143084310Y-77697927D01*
X143046113Y-77750500D01*
X142973240Y-77850800D01*
X142887454Y-78019163D01*
X142829059Y-78198881D01*
X142799500Y-78385513D01*
X142799500Y-78574486D01*
X142829059Y-78761118D01*
X142887454Y-78940836D01*
X142933943Y-79032075D01*
X142973240Y-79109199D01*
X143084310Y-79262073D01*
X143217927Y-79395690D01*
X143370801Y-79506760D01*
X143439265Y-79541644D01*
X143539163Y-79592545D01*
X143539165Y-79592545D01*
X143539168Y-79592547D01*
X143628734Y-79621649D01*
X143660803Y-79632069D01*
X143718478Y-79671507D01*
X143745676Y-79735866D01*
X143733761Y-79804712D01*
X143686516Y-79856188D01*
X143660803Y-79867931D01*
X143539163Y-79907454D01*
X143370800Y-79993240D01*
X143283579Y-80056610D01*
X143217927Y-80104310D01*
X143217925Y-80104312D01*
X143217924Y-80104312D01*
X143084312Y-80237924D01*
X143084312Y-80237925D01*
X143084310Y-80237927D01*
X143036610Y-80303579D01*
X142973240Y-80390800D01*
X142887454Y-80559163D01*
X142829059Y-80738881D01*
X142799500Y-80925513D01*
X142799500Y-81114486D01*
X142829059Y-81301118D01*
X142887454Y-81480836D01*
X142973240Y-81649199D01*
X143084310Y-81802073D01*
X143217927Y-81935690D01*
X143370801Y-82046760D01*
X143450347Y-82087290D01*
X143539163Y-82132545D01*
X143539165Y-82132545D01*
X143539168Y-82132547D01*
X143635497Y-82163846D01*
X143718881Y-82190940D01*
X143905514Y-82220500D01*
X143905519Y-82220500D01*
X144094486Y-82220500D01*
X144281118Y-82190940D01*
X144460832Y-82132547D01*
X144629199Y-82046760D01*
X144782073Y-81935690D01*
X144915690Y-81802073D01*
X145026760Y-81649199D01*
X145112547Y-81480832D01*
X145112548Y-81480829D01*
X145128680Y-81431182D01*
X145168118Y-81373506D01*
X145232476Y-81346308D01*
X145246611Y-81345500D01*
X160333811Y-81345500D01*
X160400850Y-81365185D01*
X160421492Y-81381819D01*
X162891196Y-83851523D01*
X165230622Y-86190948D01*
X165264107Y-86252271D01*
X165259123Y-86321963D01*
X165217251Y-86377896D01*
X165175035Y-86398404D01*
X165170945Y-86399500D01*
X165170943Y-86399500D01*
X165142912Y-86407011D01*
X165018214Y-86440423D01*
X165018209Y-86440426D01*
X164881290Y-86519475D01*
X164881282Y-86519481D01*
X164763733Y-86637031D01*
X164761487Y-86634785D01*
X164717145Y-86667179D01*
X164675170Y-86674500D01*
X164207147Y-86674500D01*
X164124362Y-86696682D01*
X164124355Y-86696685D01*
X164050144Y-86739530D01*
X164050136Y-86739536D01*
X163989536Y-86800136D01*
X163989530Y-86800144D01*
X163946685Y-86874355D01*
X163946682Y-86874362D01*
X163924500Y-86957147D01*
X163924500Y-88011152D01*
X163904815Y-88078191D01*
X163852011Y-88123946D01*
X163841456Y-88128193D01*
X163787117Y-88147207D01*
X163677850Y-88227850D01*
X163599770Y-88333645D01*
X163544122Y-88375895D01*
X163474466Y-88381354D01*
X163412917Y-88348286D01*
X163400230Y-88333645D01*
X163361022Y-88280520D01*
X163322150Y-88227850D01*
X163212882Y-88147207D01*
X163212880Y-88147206D01*
X163084700Y-88102353D01*
X163054270Y-88099500D01*
X163054266Y-88099500D01*
X162270734Y-88099500D01*
X162270730Y-88099500D01*
X162240300Y-88102353D01*
X162240298Y-88102353D01*
X162112119Y-88147206D01*
X162112117Y-88147207D01*
X162002850Y-88227850D01*
X161922207Y-88337117D01*
X161922206Y-88337119D01*
X161877353Y-88465298D01*
X161877353Y-88465300D01*
X161874500Y-88495730D01*
X161874500Y-90276311D01*
X161854815Y-90343350D01*
X161838181Y-90363992D01*
X161239537Y-90962635D01*
X161239533Y-90962641D01*
X161196682Y-91036860D01*
X161196678Y-91036868D01*
X161193126Y-91050131D01*
X161193125Y-91050137D01*
X161174500Y-91119647D01*
X161174500Y-91566324D01*
X161154815Y-91633363D01*
X161138181Y-91654005D01*
X161099502Y-91692683D01*
X161099500Y-91692686D01*
X161033608Y-91806812D01*
X161001177Y-91927850D01*
X160999500Y-91934108D01*
X160999500Y-92065892D01*
X161003204Y-92079715D01*
X161033608Y-92193187D01*
X161060142Y-92239144D01*
X161099500Y-92307314D01*
X161192686Y-92400500D01*
X161306814Y-92466392D01*
X161434108Y-92500500D01*
X161434110Y-92500500D01*
X161565890Y-92500500D01*
X161565892Y-92500500D01*
X161693186Y-92466392D01*
X161807314Y-92400500D01*
X161900500Y-92307314D01*
X161966392Y-92193186D01*
X162000500Y-92065892D01*
X162000500Y-91988497D01*
X162020185Y-91921458D01*
X162072989Y-91875703D01*
X162142147Y-91865759D01*
X162165449Y-91871454D01*
X162240301Y-91897646D01*
X162240300Y-91897646D01*
X162270730Y-91900500D01*
X162270734Y-91900500D01*
X163054270Y-91900500D01*
X163084699Y-91897646D01*
X163084701Y-91897646D01*
X163159546Y-91871456D01*
X163212882Y-91852793D01*
X163322150Y-91772150D01*
X163400230Y-91666355D01*
X163455877Y-91624104D01*
X163525533Y-91618645D01*
X163587083Y-91651712D01*
X163599770Y-91666355D01*
X163677848Y-91772148D01*
X163677849Y-91772148D01*
X163677850Y-91772150D01*
X163787118Y-91852793D01*
X163824173Y-91865759D01*
X163915299Y-91897646D01*
X163945730Y-91900500D01*
X163945734Y-91900500D01*
X164729270Y-91900500D01*
X164759699Y-91897646D01*
X164759701Y-91897646D01*
X164834546Y-91871456D01*
X164887882Y-91852793D01*
X164997150Y-91772150D01*
X165077793Y-91662882D01*
X165115313Y-91555657D01*
X165122646Y-91534701D01*
X165122646Y-91534699D01*
X165125500Y-91504269D01*
X165125500Y-88495730D01*
X165122646Y-88465300D01*
X165122646Y-88465298D01*
X165077793Y-88337119D01*
X165077792Y-88337117D01*
X165075230Y-88333645D01*
X164997150Y-88227850D01*
X164887882Y-88147207D01*
X164887880Y-88147206D01*
X164759700Y-88102353D01*
X164729270Y-88099500D01*
X164729266Y-88099500D01*
X164699500Y-88099500D01*
X164632461Y-88079815D01*
X164586706Y-88027011D01*
X164575500Y-87975500D01*
X164575500Y-87474098D01*
X164595185Y-87407059D01*
X164647989Y-87361304D01*
X164717147Y-87351360D01*
X164780703Y-87380385D01*
X164787181Y-87386417D01*
X164881284Y-87480520D01*
X164881286Y-87480521D01*
X164881290Y-87480524D01*
X165018209Y-87559573D01*
X165018216Y-87559577D01*
X165170943Y-87600500D01*
X165170945Y-87600500D01*
X165329055Y-87600500D01*
X165329057Y-87600500D01*
X165481784Y-87559577D01*
X165618716Y-87480520D01*
X165730520Y-87368716D01*
X165809577Y-87231784D01*
X165850500Y-87079057D01*
X165850500Y-87079051D01*
X165851595Y-87074965D01*
X165887959Y-87015305D01*
X165950806Y-86984775D01*
X166020182Y-86993069D01*
X166059051Y-87019377D01*
X167138181Y-88098507D01*
X167171666Y-88159830D01*
X167174500Y-88186188D01*
X167174500Y-91063810D01*
X167154815Y-91130849D01*
X167138181Y-91151491D01*
X165811972Y-92477699D01*
X165750649Y-92511184D01*
X165700100Y-92511635D01*
X165538545Y-92479500D01*
X165538541Y-92479500D01*
X165341459Y-92479500D01*
X165341457Y-92479500D01*
X165148170Y-92517947D01*
X165148160Y-92517950D01*
X164966092Y-92593364D01*
X164966079Y-92593371D01*
X164802218Y-92702860D01*
X164802214Y-92702863D01*
X164662863Y-92842214D01*
X164662860Y-92842218D01*
X164553371Y-93006079D01*
X164553364Y-93006092D01*
X164477950Y-93188160D01*
X164477947Y-93188170D01*
X164439500Y-93381456D01*
X164439500Y-93381459D01*
X164439500Y-93578541D01*
X164439500Y-93578543D01*
X164439499Y-93578543D01*
X164477947Y-93771828D01*
X164477948Y-93771831D01*
X164477949Y-93771835D01*
X164477951Y-93771839D01*
X164507717Y-93843703D01*
X164509853Y-93863578D01*
X164516839Y-93882308D01*
X164513510Y-93897606D01*
X164515184Y-93913173D01*
X164506236Y-93931048D01*
X164501987Y-93950581D01*
X164485300Y-93972871D01*
X164483909Y-93975651D01*
X164480836Y-93978835D01*
X164408104Y-94051567D01*
X164346781Y-94085052D01*
X164277089Y-94080068D01*
X164258430Y-94071276D01*
X164193186Y-94033608D01*
X164065892Y-93999500D01*
X163953328Y-93999500D01*
X163886289Y-93979815D01*
X163840534Y-93927011D01*
X163830590Y-93857853D01*
X163838767Y-93828047D01*
X163862051Y-93771835D01*
X163881057Y-93676285D01*
X163900500Y-93578543D01*
X163900500Y-93381456D01*
X163862052Y-93188170D01*
X163862051Y-93188169D01*
X163862051Y-93188165D01*
X163841223Y-93137881D01*
X163786635Y-93006092D01*
X163786628Y-93006079D01*
X163677139Y-92842218D01*
X163677136Y-92842214D01*
X163537785Y-92702863D01*
X163537781Y-92702860D01*
X163373920Y-92593371D01*
X163373907Y-92593364D01*
X163191839Y-92517950D01*
X163191829Y-92517947D01*
X162998543Y-92479500D01*
X162998541Y-92479500D01*
X162801459Y-92479500D01*
X162801457Y-92479500D01*
X162608170Y-92517947D01*
X162608160Y-92517950D01*
X162426092Y-92593364D01*
X162426079Y-92593371D01*
X162262218Y-92702860D01*
X162262214Y-92702863D01*
X162122863Y-92842214D01*
X162122860Y-92842218D01*
X162013371Y-93006079D01*
X162013364Y-93006092D01*
X161937950Y-93188160D01*
X161937947Y-93188170D01*
X161899500Y-93381456D01*
X161899500Y-93381459D01*
X161899500Y-93578541D01*
X161899500Y-93578543D01*
X161899499Y-93578543D01*
X161937947Y-93771829D01*
X161937950Y-93771839D01*
X162013364Y-93953907D01*
X162013371Y-93953920D01*
X162122860Y-94117781D01*
X162122863Y-94117785D01*
X162262214Y-94257136D01*
X162262218Y-94257139D01*
X162426079Y-94366628D01*
X162426092Y-94366635D01*
X162596596Y-94437259D01*
X162608165Y-94442051D01*
X162608169Y-94442051D01*
X162608170Y-94442052D01*
X162801456Y-94480500D01*
X162801459Y-94480500D01*
X162998543Y-94480500D01*
X163128582Y-94454632D01*
X163191835Y-94442051D01*
X163328048Y-94385629D01*
X163397517Y-94378161D01*
X163459996Y-94409436D01*
X163495648Y-94469525D01*
X163499500Y-94500191D01*
X163499500Y-94565891D01*
X163533608Y-94693187D01*
X163560368Y-94739535D01*
X163599500Y-94807314D01*
X163692686Y-94900500D01*
X163806814Y-94966392D01*
X163934108Y-95000500D01*
X163934110Y-95000500D01*
X164065890Y-95000500D01*
X164065892Y-95000500D01*
X164193186Y-94966392D01*
X164307314Y-94900500D01*
X164345995Y-94861819D01*
X164407318Y-94828334D01*
X164433676Y-94825500D01*
X164462851Y-94825500D01*
X164462853Y-94825500D01*
X164545639Y-94803318D01*
X164619862Y-94760465D01*
X164941166Y-94439159D01*
X165002486Y-94405677D01*
X165072177Y-94410661D01*
X165076270Y-94412271D01*
X165148165Y-94442051D01*
X165148169Y-94442051D01*
X165148170Y-94442052D01*
X165341456Y-94480500D01*
X165341459Y-94480500D01*
X165538543Y-94480500D01*
X165668582Y-94454632D01*
X165731835Y-94442051D01*
X165803705Y-94412281D01*
X165873169Y-94404813D01*
X165935649Y-94436087D01*
X165938835Y-94439162D01*
X166270407Y-94770734D01*
X166587493Y-95087819D01*
X166620978Y-95149142D01*
X166615994Y-95218833D01*
X166574123Y-95274767D01*
X166508658Y-95299184D01*
X166499812Y-95299500D01*
X155987965Y-95299500D01*
X155920926Y-95279815D01*
X155900284Y-95263181D01*
X153137717Y-92500614D01*
X153104232Y-92439291D01*
X153108356Y-92371981D01*
X153147646Y-92259699D01*
X153150500Y-92229266D01*
X153150500Y-91445734D01*
X153149763Y-91437880D01*
X153147646Y-91415300D01*
X153147646Y-91415298D01*
X153110694Y-91309699D01*
X153102793Y-91287118D01*
X153022150Y-91177850D01*
X153022148Y-91177849D01*
X153022148Y-91177848D01*
X152916355Y-91099770D01*
X152874104Y-91044123D01*
X152868645Y-90974467D01*
X152901712Y-90912917D01*
X152916355Y-90900230D01*
X152944935Y-90879136D01*
X153022150Y-90822150D01*
X153102793Y-90712882D01*
X153131103Y-90631977D01*
X153147646Y-90584701D01*
X153147646Y-90584699D01*
X153150500Y-90554269D01*
X153150500Y-89770731D01*
X153150218Y-89767727D01*
X153163552Y-89699141D01*
X153211849Y-89648652D01*
X153279776Y-89632290D01*
X153345766Y-89655249D01*
X153361356Y-89668459D01*
X156814916Y-93122019D01*
X156848401Y-93183342D01*
X156848852Y-93233891D01*
X156819500Y-93381454D01*
X156819500Y-93381459D01*
X156819500Y-93578541D01*
X156819500Y-93578543D01*
X156819499Y-93578543D01*
X156857947Y-93771829D01*
X156857950Y-93771839D01*
X156933364Y-93953907D01*
X156933371Y-93953920D01*
X157042860Y-94117781D01*
X157042863Y-94117785D01*
X157182214Y-94257136D01*
X157182218Y-94257139D01*
X157346079Y-94366628D01*
X157346092Y-94366635D01*
X157516596Y-94437259D01*
X157528165Y-94442051D01*
X157528169Y-94442051D01*
X157528170Y-94442052D01*
X157721456Y-94480500D01*
X157721459Y-94480500D01*
X157918543Y-94480500D01*
X158048582Y-94454632D01*
X158111835Y-94442051D01*
X158293914Y-94366632D01*
X158457782Y-94257139D01*
X158597139Y-94117782D01*
X158706632Y-93953914D01*
X158782051Y-93771835D01*
X158801057Y-93676285D01*
X158820500Y-93578543D01*
X158820500Y-93381456D01*
X158782052Y-93188170D01*
X158782051Y-93188169D01*
X158782051Y-93188165D01*
X158761223Y-93137881D01*
X158706635Y-93006092D01*
X158706628Y-93006079D01*
X158597139Y-92842218D01*
X158597136Y-92842214D01*
X158457785Y-92702863D01*
X158457781Y-92702860D01*
X158293920Y-92593371D01*
X158293907Y-92593364D01*
X158111839Y-92517950D01*
X158111829Y-92517947D01*
X157918543Y-92479500D01*
X157918541Y-92479500D01*
X157721459Y-92479500D01*
X157721457Y-92479500D01*
X157557211Y-92512171D01*
X157487619Y-92505944D01*
X157445338Y-92478235D01*
X153166818Y-88199715D01*
X153133333Y-88138392D01*
X153130499Y-88112034D01*
X153130499Y-86595739D01*
X153130499Y-86595734D01*
X153127646Y-86565300D01*
X153082793Y-86437117D01*
X153056092Y-86400938D01*
X153002150Y-86327849D01*
X152918479Y-86266098D01*
X152892883Y-86247207D01*
X152892881Y-86247206D01*
X152764701Y-86202353D01*
X152734270Y-86199500D01*
X150925739Y-86199500D01*
X150911751Y-86200811D01*
X150895300Y-86202354D01*
X150895297Y-86202354D01*
X150895296Y-86202355D01*
X150895294Y-86202355D01*
X150767117Y-86247206D01*
X150657849Y-86327849D01*
X150577206Y-86437118D01*
X150532353Y-86565297D01*
X150532353Y-86565299D01*
X150529500Y-86595729D01*
X150529500Y-88404260D01*
X150529970Y-88409268D01*
X150532354Y-88434700D01*
X150532354Y-88434702D01*
X150532355Y-88434703D01*
X150532355Y-88434705D01*
X150577206Y-88562882D01*
X150657849Y-88672150D01*
X150695249Y-88699752D01*
X150767117Y-88752793D01*
X150806724Y-88766652D01*
X150895298Y-88797646D01*
X150902323Y-88798304D01*
X150925733Y-88800500D01*
X152442034Y-88800499D01*
X152509073Y-88820184D01*
X152529715Y-88836818D01*
X152856540Y-89163643D01*
X152890025Y-89224966D01*
X152885041Y-89294658D01*
X152843169Y-89350591D01*
X152777705Y-89375008D01*
X152757291Y-89374783D01*
X152754271Y-89374500D01*
X152754266Y-89374500D01*
X151150465Y-89374500D01*
X151083426Y-89354815D01*
X151062784Y-89338181D01*
X150864116Y-89139513D01*
X150864114Y-89139511D01*
X150811583Y-89109182D01*
X150761388Y-89080201D01*
X150749280Y-89076957D01*
X150737173Y-89073713D01*
X150737170Y-89073712D01*
X150698978Y-89063478D01*
X150646809Y-89049500D01*
X141559309Y-89049500D01*
X141440691Y-89049500D01*
X141326114Y-89080201D01*
X141326112Y-89080201D01*
X141326112Y-89080202D01*
X141223387Y-89139511D01*
X141223384Y-89139513D01*
X141139513Y-89223384D01*
X141139511Y-89223387D01*
X141080201Y-89326114D01*
X141049500Y-89440691D01*
X141049500Y-89440693D01*
X141049500Y-91992034D01*
X141029815Y-92059073D01*
X141013181Y-92079715D01*
X139149714Y-93943181D01*
X139088391Y-93976666D01*
X139062033Y-93979500D01*
X137545739Y-93979500D01*
X137531751Y-93980811D01*
X137515300Y-93982354D01*
X137515297Y-93982354D01*
X137515296Y-93982355D01*
X137515294Y-93982355D01*
X137387117Y-94027206D01*
X137277849Y-94107849D01*
X137197206Y-94217118D01*
X137152353Y-94345297D01*
X137152353Y-94345299D01*
X137149500Y-94375729D01*
X137149500Y-96184260D01*
X137149501Y-96184266D01*
X137152354Y-96214700D01*
X137152354Y-96214702D01*
X137152355Y-96214703D01*
X137152355Y-96214705D01*
X137197206Y-96342882D01*
X137277849Y-96452150D01*
X137332483Y-96492471D01*
X137387117Y-96532793D01*
X137429844Y-96547744D01*
X137515298Y-96577646D01*
X137522323Y-96578304D01*
X137545733Y-96580500D01*
X139354266Y-96580499D01*
X139384700Y-96577646D01*
X139512883Y-96532793D01*
X139622150Y-96452150D01*
X139702793Y-96342883D01*
X139725219Y-96278791D01*
X139747646Y-96214702D01*
X139747646Y-96214700D01*
X139748948Y-96200816D01*
X139750500Y-96184267D01*
X139750499Y-94667963D01*
X139770184Y-94600925D01*
X139786813Y-94580288D01*
X141860489Y-92506614D01*
X141919798Y-92403887D01*
X141919799Y-92403886D01*
X141950500Y-92289309D01*
X141950500Y-90074500D01*
X141970185Y-90007461D01*
X142022989Y-89961706D01*
X142074500Y-89950500D01*
X149225500Y-89950500D01*
X149292539Y-89970185D01*
X149338294Y-90022989D01*
X149349500Y-90074500D01*
X149349500Y-90554269D01*
X149352353Y-90584699D01*
X149352353Y-90584701D01*
X149396974Y-90712216D01*
X149397207Y-90712882D01*
X149477850Y-90822150D01*
X149567795Y-90888532D01*
X149583645Y-90900230D01*
X149625895Y-90955878D01*
X149631354Y-91025534D01*
X149598286Y-91087083D01*
X149583645Y-91099770D01*
X149477850Y-91177850D01*
X149397207Y-91287117D01*
X149397206Y-91287119D01*
X149352353Y-91415298D01*
X149352353Y-91415300D01*
X149349500Y-91445730D01*
X149349500Y-92013000D01*
X149346949Y-92021685D01*
X149348238Y-92030647D01*
X149337259Y-92054687D01*
X149329815Y-92080039D01*
X149322974Y-92085966D01*
X149319213Y-92094203D01*
X149296978Y-92108492D01*
X149277011Y-92125794D01*
X149266496Y-92128081D01*
X149260435Y-92131977D01*
X149225500Y-92137000D01*
X148975726Y-92137000D01*
X148908687Y-92117315D01*
X148862932Y-92064511D01*
X148858684Y-92053953D01*
X148852794Y-92037120D01*
X148852793Y-92037118D01*
X148848017Y-92030647D01*
X148772150Y-91927850D01*
X148662882Y-91847207D01*
X148662880Y-91847206D01*
X148534700Y-91802353D01*
X148504270Y-91799500D01*
X148504266Y-91799500D01*
X145495734Y-91799500D01*
X145495730Y-91799500D01*
X145465300Y-91802353D01*
X145465298Y-91802353D01*
X145337119Y-91847206D01*
X145337117Y-91847207D01*
X145227850Y-91927850D01*
X145147207Y-92037117D01*
X145147206Y-92037119D01*
X145102353Y-92165298D01*
X145102353Y-92165300D01*
X145099500Y-92195730D01*
X145099500Y-92979269D01*
X145102353Y-93009699D01*
X145102353Y-93009701D01*
X145138213Y-93112179D01*
X145147207Y-93137882D01*
X145227850Y-93247150D01*
X145337118Y-93327793D01*
X145379845Y-93342744D01*
X145465299Y-93372646D01*
X145495730Y-93375500D01*
X145495734Y-93375500D01*
X148504270Y-93375500D01*
X148534699Y-93372646D01*
X148534701Y-93372646D01*
X148598790Y-93350219D01*
X148662882Y-93327793D01*
X148772150Y-93247150D01*
X148852793Y-93137882D01*
X148858684Y-93121047D01*
X148899405Y-93064270D01*
X148964358Y-93038522D01*
X148975726Y-93038000D01*
X150559308Y-93038000D01*
X150559309Y-93038000D01*
X150649673Y-93013786D01*
X150673887Y-93007299D01*
X150776614Y-92947989D01*
X151062784Y-92661819D01*
X151124107Y-92628334D01*
X151150465Y-92625500D01*
X151937035Y-92625500D01*
X152004074Y-92645185D01*
X152024716Y-92661819D01*
X153825716Y-94462819D01*
X153859201Y-94524142D01*
X153854217Y-94593834D01*
X153812345Y-94649767D01*
X153746881Y-94674184D01*
X153738035Y-94674500D01*
X153210480Y-94674500D01*
X153143441Y-94654815D01*
X153109968Y-94618371D01*
X153108311Y-94619595D01*
X153102792Y-94612117D01*
X153022150Y-94502850D01*
X152912882Y-94422207D01*
X152912880Y-94422206D01*
X152784700Y-94377353D01*
X152754270Y-94374500D01*
X152754266Y-94374500D01*
X149745734Y-94374500D01*
X149745730Y-94374500D01*
X149715300Y-94377353D01*
X149715298Y-94377353D01*
X149587119Y-94422206D01*
X149587117Y-94422207D01*
X149477850Y-94502850D01*
X149397207Y-94612117D01*
X149397206Y-94612119D01*
X149352353Y-94740298D01*
X149352353Y-94740300D01*
X149349500Y-94770730D01*
X149349500Y-95554269D01*
X149352353Y-95584699D01*
X149352353Y-95584701D01*
X149397206Y-95712880D01*
X149397207Y-95712882D01*
X149477850Y-95822150D01*
X149546662Y-95872935D01*
X149583645Y-95900230D01*
X149625895Y-95955878D01*
X149631354Y-96025534D01*
X149598286Y-96087083D01*
X149583645Y-96099770D01*
X149477850Y-96177850D01*
X149397207Y-96287117D01*
X149397206Y-96287119D01*
X149352353Y-96415298D01*
X149352353Y-96415300D01*
X149349500Y-96445730D01*
X149349500Y-97229269D01*
X149352353Y-97259699D01*
X149352353Y-97259701D01*
X149388087Y-97361819D01*
X149397207Y-97387882D01*
X149477850Y-97497150D01*
X149587118Y-97577793D01*
X149615454Y-97587708D01*
X149672230Y-97628429D01*
X149697977Y-97693382D01*
X149684521Y-97761944D01*
X149636133Y-97812346D01*
X149615461Y-97821787D01*
X149607118Y-97824707D01*
X149607117Y-97824707D01*
X149607116Y-97824708D01*
X149497850Y-97905350D01*
X149417206Y-98014618D01*
X149417205Y-98014620D01*
X149411316Y-98031453D01*
X149370595Y-98088230D01*
X149305642Y-98113978D01*
X149294274Y-98114500D01*
X145383683Y-98114500D01*
X145316644Y-98094815D01*
X145293212Y-98073955D01*
X145292840Y-98074328D01*
X145187482Y-97968970D01*
X145187478Y-97968967D01*
X145068659Y-97889574D01*
X145068650Y-97889569D01*
X144936620Y-97834881D01*
X144936614Y-97834879D01*
X144796457Y-97807000D01*
X144796455Y-97807000D01*
X144203545Y-97807000D01*
X144203543Y-97807000D01*
X144063385Y-97834879D01*
X144063379Y-97834881D01*
X143931349Y-97889569D01*
X143931340Y-97889574D01*
X143812521Y-97968967D01*
X143812517Y-97968970D01*
X143711470Y-98070017D01*
X143711467Y-98070021D01*
X143632074Y-98188840D01*
X143632069Y-98188849D01*
X143577381Y-98320879D01*
X143577379Y-98320885D01*
X143549500Y-98461042D01*
X143549500Y-98461045D01*
X143549500Y-98603955D01*
X143549500Y-98603957D01*
X143549499Y-98603957D01*
X143577379Y-98744114D01*
X143577381Y-98744120D01*
X143632069Y-98876150D01*
X143632074Y-98876159D01*
X143711467Y-98994978D01*
X143711470Y-98994982D01*
X143796307Y-99079819D01*
X143829792Y-99141142D01*
X143824808Y-99210834D01*
X143796307Y-99255181D01*
X143711470Y-99340017D01*
X143711467Y-99340021D01*
X143632074Y-99458840D01*
X143632069Y-99458849D01*
X143577381Y-99590879D01*
X143577379Y-99590885D01*
X143549500Y-99731042D01*
X143549500Y-99873959D01*
X143576757Y-100010988D01*
X143570530Y-100080579D01*
X143553521Y-100110659D01*
X143549511Y-100115884D01*
X143490201Y-100218612D01*
X143490200Y-100218617D01*
X143459500Y-100333191D01*
X143459500Y-101588000D01*
X143439815Y-101655039D01*
X143387011Y-101700794D01*
X143335500Y-101712000D01*
X141225726Y-101712000D01*
X141158687Y-101692315D01*
X141112932Y-101639511D01*
X141108684Y-101628953D01*
X141102794Y-101612120D01*
X141102793Y-101612118D01*
X141084993Y-101588000D01*
X141022150Y-101502850D01*
X140912882Y-101422207D01*
X140912880Y-101422206D01*
X140784700Y-101377353D01*
X140754270Y-101374500D01*
X140754266Y-101374500D01*
X137745734Y-101374500D01*
X137745730Y-101374500D01*
X137715300Y-101377353D01*
X137715298Y-101377353D01*
X137587119Y-101422206D01*
X137587117Y-101422207D01*
X137477850Y-101502850D01*
X137397207Y-101612117D01*
X137397206Y-101612119D01*
X137352353Y-101740298D01*
X137352353Y-101740300D01*
X137349500Y-101770730D01*
X137349500Y-102554269D01*
X137352353Y-102584699D01*
X137352353Y-102584701D01*
X137390483Y-102693666D01*
X137397207Y-102712882D01*
X137411569Y-102732342D01*
X137435541Y-102797969D01*
X137420226Y-102866140D01*
X137370487Y-102915209D01*
X137302115Y-102929597D01*
X137289366Y-102927930D01*
X131959717Y-101947537D01*
X131897346Y-101916049D01*
X131861899Y-101855838D01*
X131858151Y-101825583D01*
X131858151Y-93824500D01*
X131877836Y-93757461D01*
X131930640Y-93711706D01*
X131982151Y-93700500D01*
X135559308Y-93700500D01*
X135559309Y-93700500D01*
X135649673Y-93676286D01*
X135673887Y-93669799D01*
X135776614Y-93610489D01*
X138810489Y-90576614D01*
X138847506Y-90512498D01*
X138898074Y-90464284D01*
X138954893Y-90450500D01*
X139229308Y-90450500D01*
X139229309Y-90450500D01*
X139308194Y-90429362D01*
X139319666Y-90426288D01*
X139319667Y-90426287D01*
X139319673Y-90426286D01*
X139343887Y-90419799D01*
X139446614Y-90360489D01*
X141065049Y-88742052D01*
X141126370Y-88708569D01*
X141191044Y-88711803D01*
X141316117Y-88752442D01*
X141365465Y-88768477D01*
X141466557Y-88784488D01*
X141567648Y-88800500D01*
X141567649Y-88800500D01*
X141772351Y-88800500D01*
X141772352Y-88800500D01*
X141974534Y-88768477D01*
X142169219Y-88705220D01*
X142351610Y-88612287D01*
X142479356Y-88519475D01*
X142517213Y-88491971D01*
X142517215Y-88491968D01*
X142517219Y-88491966D01*
X142661966Y-88347219D01*
X142661968Y-88347215D01*
X142661971Y-88347213D01*
X142748692Y-88227850D01*
X142782287Y-88181610D01*
X142875220Y-87999219D01*
X142938477Y-87804534D01*
X142970500Y-87602352D01*
X142970500Y-87397648D01*
X142947194Y-87250500D01*
X142938477Y-87195465D01*
X142885231Y-87031592D01*
X142875220Y-87000781D01*
X142875218Y-87000778D01*
X142875218Y-87000776D01*
X142810806Y-86874362D01*
X142782287Y-86818390D01*
X142769025Y-86800136D01*
X142661971Y-86652786D01*
X142517213Y-86508028D01*
X142351613Y-86387715D01*
X142351612Y-86387714D01*
X142351610Y-86387713D01*
X142260027Y-86341049D01*
X142169223Y-86294781D01*
X141974534Y-86231522D01*
X141790371Y-86202354D01*
X141772352Y-86199500D01*
X141567648Y-86199500D01*
X141549635Y-86202353D01*
X141365465Y-86231522D01*
X141170776Y-86294781D01*
X140988386Y-86387715D01*
X140822786Y-86508028D01*
X140678028Y-86652786D01*
X140557715Y-86818386D01*
X140464781Y-87000776D01*
X140401522Y-87195465D01*
X140374082Y-87368716D01*
X140369500Y-87397648D01*
X140369500Y-87602352D01*
X140378563Y-87659573D01*
X140401523Y-87804535D01*
X140401523Y-87804538D01*
X140458194Y-87978952D01*
X140460189Y-88048793D01*
X140427944Y-88104951D01*
X139112181Y-89420715D01*
X139050858Y-89454200D01*
X138981166Y-89449216D01*
X138925233Y-89407344D01*
X138900816Y-89341880D01*
X138900500Y-89333034D01*
X138900500Y-86426031D01*
X138920185Y-86358992D01*
X138968205Y-86315546D01*
X139131610Y-86232287D01*
X139172811Y-86202353D01*
X139297213Y-86111971D01*
X139297215Y-86111968D01*
X139297219Y-86111966D01*
X139441966Y-85967219D01*
X139441968Y-85967215D01*
X139441971Y-85967213D01*
X139531136Y-85844486D01*
X139562287Y-85801610D01*
X139655220Y-85619219D01*
X139718477Y-85424534D01*
X139750500Y-85222352D01*
X139750500Y-85017648D01*
X139729448Y-84884732D01*
X139718477Y-84815465D01*
X139673763Y-84677850D01*
X139655220Y-84620781D01*
X139655218Y-84620778D01*
X139655218Y-84620776D01*
X139602957Y-84518209D01*
X139562287Y-84438390D01*
X139520802Y-84381290D01*
X139441971Y-84272786D01*
X139297213Y-84128028D01*
X139131613Y-84007715D01*
X139131612Y-84007714D01*
X139131610Y-84007713D01*
X139074653Y-83978691D01*
X138949223Y-83914781D01*
X138754534Y-83851522D01*
X138579995Y-83823878D01*
X138552352Y-83819500D01*
X138347648Y-83819500D01*
X138323329Y-83823351D01*
X138145465Y-83851522D01*
X137950776Y-83914781D01*
X137768386Y-84007715D01*
X137602786Y-84128028D01*
X137458028Y-84272786D01*
X137337715Y-84438386D01*
X137244781Y-84620776D01*
X137181522Y-84815465D01*
X137149500Y-85017648D01*
X137149500Y-85222351D01*
X137181522Y-85424534D01*
X137244781Y-85619223D01*
X137280691Y-85689699D01*
X137336961Y-85800135D01*
X137337715Y-85801613D01*
X137458028Y-85967213D01*
X137602786Y-86111971D01*
X137768385Y-86232284D01*
X137768387Y-86232285D01*
X137768390Y-86232287D01*
X137931795Y-86315546D01*
X137982591Y-86363521D01*
X137999500Y-86426031D01*
X137999500Y-90062035D01*
X137979815Y-90129074D01*
X137963181Y-90149716D01*
X135349716Y-92763181D01*
X135288393Y-92796666D01*
X135262035Y-92799500D01*
X131982151Y-92799500D01*
X131915112Y-92779815D01*
X131869357Y-92727011D01*
X131858151Y-92675500D01*
X131858151Y-92034738D01*
X131860877Y-92008880D01*
X131884420Y-91898463D01*
X132555066Y-88753164D01*
X132588297Y-88691707D01*
X132649481Y-88657970D01*
X132719193Y-88662667D01*
X132775299Y-88704307D01*
X132797955Y-88754829D01*
X132798631Y-88758227D01*
X132798632Y-88758230D01*
X132842947Y-88824552D01*
X132909269Y-88868867D01*
X132909270Y-88868868D01*
X132967747Y-88880499D01*
X132967750Y-88880500D01*
X132967752Y-88880500D01*
X134912250Y-88880500D01*
X134912251Y-88880499D01*
X134927068Y-88877552D01*
X134970729Y-88868868D01*
X134970729Y-88868867D01*
X134970731Y-88868867D01*
X135037052Y-88824552D01*
X135081367Y-88758231D01*
X135081367Y-88758229D01*
X135081368Y-88758229D01*
X135091245Y-88708569D01*
X135093000Y-88699748D01*
X135093000Y-86660252D01*
X135093000Y-86660249D01*
X135092999Y-86660247D01*
X135081368Y-86601770D01*
X135081367Y-86601769D01*
X135037052Y-86535447D01*
X134970730Y-86491132D01*
X134970729Y-86491131D01*
X134912252Y-86479500D01*
X134912248Y-86479500D01*
X134514500Y-86479500D01*
X134447461Y-86459815D01*
X134401706Y-86407011D01*
X134390500Y-86355500D01*
X134390500Y-85580693D01*
X134390500Y-85580691D01*
X134359799Y-85466114D01*
X134335793Y-85424534D01*
X134300490Y-85363386D01*
X133914114Y-84977011D01*
X133862750Y-84947356D01*
X133811388Y-84917701D01*
X133799280Y-84914457D01*
X133787173Y-84911213D01*
X133696809Y-84887000D01*
X133696808Y-84887000D01*
X133694935Y-84886498D01*
X133635275Y-84850133D01*
X133609987Y-84807678D01*
X133602793Y-84787118D01*
X133522150Y-84677850D01*
X133412882Y-84597207D01*
X133412880Y-84597206D01*
X133284700Y-84552353D01*
X133254270Y-84549500D01*
X133254266Y-84549500D01*
X130245734Y-84549500D01*
X130245730Y-84549500D01*
X130215300Y-84552353D01*
X130215298Y-84552353D01*
X130087119Y-84597206D01*
X130087117Y-84597207D01*
X129977850Y-84677850D01*
X129897206Y-84787118D01*
X129897205Y-84787120D01*
X129891316Y-84803953D01*
X129877695Y-84822943D01*
X129867987Y-84844203D01*
X129857712Y-84850805D01*
X129850595Y-84860730D01*
X129828868Y-84869342D01*
X129809209Y-84881977D01*
X129790045Y-84884732D01*
X129785642Y-84886478D01*
X129774274Y-84887000D01*
X129772000Y-84887000D01*
X129704961Y-84867315D01*
X129659206Y-84814511D01*
X129648000Y-84763000D01*
X129648000Y-84600730D01*
X129645146Y-84570300D01*
X129645146Y-84570298D01*
X129600293Y-84442119D01*
X129600292Y-84442117D01*
X129519650Y-84332850D01*
X129410382Y-84252207D01*
X129410380Y-84252206D01*
X129282200Y-84207353D01*
X129251770Y-84204500D01*
X129251766Y-84204500D01*
X128468234Y-84204500D01*
X128468230Y-84204500D01*
X128437800Y-84207353D01*
X128437798Y-84207353D01*
X128309619Y-84252206D01*
X128309613Y-84252209D01*
X128240533Y-84303193D01*
X128174904Y-84327164D01*
X128106734Y-84311848D01*
X128057666Y-84262108D01*
X128042900Y-84203423D01*
X128042900Y-82874008D01*
X128042899Y-82873992D01*
X128038203Y-82830316D01*
X128034297Y-82812364D01*
X128027002Y-82778825D01*
X128026748Y-82777789D01*
X128024510Y-82768627D01*
X127981500Y-82687915D01*
X127935745Y-82635111D01*
X127935739Y-82635104D01*
X127918157Y-82617160D01*
X127918156Y-82617159D01*
X127918154Y-82617157D01*
X127918152Y-82617156D01*
X127918150Y-82617154D01*
X127838340Y-82572511D01*
X127838335Y-82572509D01*
X127771303Y-82552826D01*
X127771299Y-82552825D01*
X127771298Y-82552825D01*
X127713400Y-82544500D01*
X123338900Y-82544500D01*
X123338892Y-82544500D01*
X123295213Y-82549197D01*
X123243725Y-82560397D01*
X123233527Y-82562890D01*
X123233524Y-82562891D01*
X123152816Y-82605899D01*
X123152813Y-82605901D01*
X123100004Y-82651660D01*
X123082060Y-82669242D01*
X123082054Y-82669249D01*
X123037411Y-82749059D01*
X123037409Y-82749064D01*
X123017726Y-82816096D01*
X123017725Y-82816101D01*
X123017725Y-82816102D01*
X123009402Y-82873992D01*
X123009400Y-82874003D01*
X123009400Y-86943911D01*
X122989715Y-87010950D01*
X122973081Y-87031592D01*
X121641492Y-88363181D01*
X121580169Y-88396666D01*
X121553811Y-88399500D01*
X121520943Y-88399500D01*
X121368216Y-88440423D01*
X121368209Y-88440426D01*
X121231290Y-88519475D01*
X121231282Y-88519481D01*
X121119481Y-88631282D01*
X121119475Y-88631290D01*
X121040426Y-88768209D01*
X121040423Y-88768216D01*
X120999500Y-88920943D01*
X120999500Y-89079057D01*
X121035523Y-89213495D01*
X121040423Y-89231783D01*
X121040426Y-89231790D01*
X121119475Y-89368709D01*
X121119479Y-89368714D01*
X121119480Y-89368716D01*
X121231284Y-89480520D01*
X121231286Y-89480521D01*
X121231290Y-89480524D01*
X121350762Y-89549500D01*
X121368216Y-89559577D01*
X121520943Y-89600500D01*
X121520945Y-89600500D01*
X121679055Y-89600500D01*
X121679057Y-89600500D01*
X121831784Y-89559577D01*
X121968716Y-89480520D01*
X122080520Y-89368716D01*
X122159577Y-89231784D01*
X122200500Y-89079057D01*
X122200500Y-88920943D01*
X122177584Y-88835419D01*
X122179247Y-88765572D01*
X122209676Y-88715649D01*
X122797720Y-88127606D01*
X122859042Y-88094122D01*
X122928734Y-88099106D01*
X122984667Y-88140978D01*
X123009084Y-88206442D01*
X123009400Y-88215288D01*
X123009400Y-89826007D01*
X123014097Y-89869686D01*
X123025297Y-89921174D01*
X123027790Y-89931372D01*
X123027791Y-89931375D01*
X123070799Y-90012083D01*
X123070801Y-90012086D01*
X123116560Y-90064895D01*
X123134142Y-90082839D01*
X123134146Y-90082843D01*
X123134147Y-90082844D01*
X123134149Y-90082845D01*
X123204359Y-90122118D01*
X123213963Y-90127490D01*
X123281002Y-90147175D01*
X123338900Y-90155500D01*
X123338904Y-90155500D01*
X127301507Y-90155500D01*
X127301512Y-90155500D01*
X127336186Y-90152554D01*
X127377428Y-90145494D01*
X127378706Y-90145271D01*
X127462934Y-90109635D01*
X127519610Y-90068774D01*
X127539065Y-90052852D01*
X127590654Y-89977335D01*
X127616241Y-89912319D01*
X127629697Y-89855398D01*
X127677796Y-89318435D01*
X127703383Y-89253421D01*
X127760058Y-89212560D01*
X127801301Y-89205500D01*
X129818237Y-89205500D01*
X129818238Y-89205500D01*
X129840941Y-89202566D01*
X129909950Y-89213495D01*
X129962096Y-89259999D01*
X129980379Y-89314936D01*
X130176999Y-91604982D01*
X130163122Y-91673459D01*
X130114426Y-91723563D01*
X130113674Y-91723984D01*
X123163389Y-95585254D01*
X123163386Y-95585256D01*
X123123214Y-95614435D01*
X123123212Y-95614437D01*
X123079666Y-95654949D01*
X123068233Y-95666460D01*
X123022944Y-95745908D01*
X123022940Y-95745918D01*
X123002715Y-95812786D01*
X123002714Y-95812793D01*
X122993921Y-95870616D01*
X122993580Y-95912684D01*
X122978773Y-97739537D01*
X122977865Y-97851505D01*
X122957638Y-97918383D01*
X122904465Y-97963708D01*
X122853869Y-97974500D01*
X117225726Y-97974500D01*
X117158687Y-97954815D01*
X117112932Y-97902011D01*
X117108684Y-97891453D01*
X117102794Y-97874620D01*
X117102793Y-97874618D01*
X117028584Y-97774068D01*
X117022150Y-97765350D01*
X117022148Y-97765349D01*
X117022148Y-97765348D01*
X116916355Y-97687270D01*
X116874104Y-97631623D01*
X116868645Y-97561967D01*
X116901712Y-97500417D01*
X116916355Y-97487730D01*
X116945268Y-97466391D01*
X117022150Y-97409650D01*
X117102793Y-97300382D01*
X117127676Y-97229269D01*
X117147646Y-97172201D01*
X117147646Y-97172199D01*
X117150500Y-97141769D01*
X117150500Y-96358230D01*
X117147646Y-96327800D01*
X117147646Y-96327798D01*
X117103212Y-96200816D01*
X117102793Y-96199618D01*
X117022150Y-96090350D01*
X116912882Y-96009707D01*
X116912880Y-96009706D01*
X116784700Y-95964853D01*
X116754270Y-95962000D01*
X116754266Y-95962000D01*
X115824500Y-95962000D01*
X115815814Y-95959449D01*
X115806853Y-95960738D01*
X115782812Y-95949759D01*
X115757461Y-95942315D01*
X115751533Y-95935474D01*
X115743297Y-95931713D01*
X115729007Y-95909478D01*
X115711706Y-95889511D01*
X115709418Y-95878996D01*
X115705523Y-95872935D01*
X115700500Y-95838000D01*
X115700500Y-95749500D01*
X115720185Y-95682461D01*
X115772989Y-95636706D01*
X115824500Y-95625500D01*
X116754270Y-95625500D01*
X116784699Y-95622646D01*
X116784701Y-95622646D01*
X116848790Y-95600219D01*
X116912882Y-95577793D01*
X117022150Y-95497150D01*
X117102793Y-95387882D01*
X117132383Y-95303318D01*
X117147646Y-95259701D01*
X117147646Y-95259699D01*
X117150500Y-95229269D01*
X117150500Y-94445730D01*
X117147646Y-94415300D01*
X117147646Y-94415298D01*
X117109668Y-94306767D01*
X117102793Y-94287118D01*
X117022150Y-94177850D01*
X117022148Y-94177849D01*
X117022148Y-94177848D01*
X116916355Y-94099770D01*
X116874104Y-94044123D01*
X116868645Y-93974467D01*
X116901712Y-93912917D01*
X116916355Y-93900230D01*
X116989402Y-93846319D01*
X117022150Y-93822150D01*
X117102793Y-93712882D01*
X117125219Y-93648790D01*
X117147646Y-93584701D01*
X117147646Y-93584699D01*
X117150500Y-93554269D01*
X117150500Y-92770730D01*
X117147646Y-92740300D01*
X117147646Y-92740298D01*
X117108318Y-92627909D01*
X117102793Y-92612118D01*
X117022150Y-92502850D01*
X116912882Y-92422207D01*
X116911521Y-92421730D01*
X116887664Y-92413382D01*
X116830889Y-92372659D01*
X116805144Y-92307706D01*
X116818602Y-92239144D01*
X116840938Y-92208664D01*
X117714799Y-91334803D01*
X117771534Y-91303824D01*
X117771207Y-91302603D01*
X117779055Y-91300500D01*
X117779057Y-91300500D01*
X117931784Y-91259577D01*
X118068716Y-91180520D01*
X118180520Y-91068716D01*
X118259577Y-90931784D01*
X118300500Y-90779057D01*
X118300500Y-90620943D01*
X118259577Y-90468216D01*
X118235369Y-90426286D01*
X118180524Y-90331290D01*
X118180518Y-90331282D01*
X118068717Y-90219481D01*
X118068709Y-90219475D01*
X117931790Y-90140426D01*
X117931786Y-90140424D01*
X117931784Y-90140423D01*
X117779057Y-90099500D01*
X117620943Y-90099500D01*
X117468216Y-90140423D01*
X117468209Y-90140426D01*
X117331290Y-90219475D01*
X117331282Y-90219481D01*
X117219481Y-90331282D01*
X117219475Y-90331290D01*
X117140426Y-90468209D01*
X117140423Y-90468216D01*
X117099500Y-90620943D01*
X117099500Y-90624535D01*
X117098643Y-90627453D01*
X117098439Y-90629003D01*
X117098197Y-90628971D01*
X117079815Y-90691574D01*
X117063181Y-90712216D01*
X115437216Y-92338181D01*
X115375893Y-92371666D01*
X115349535Y-92374500D01*
X113745730Y-92374500D01*
X113715300Y-92377353D01*
X113715298Y-92377353D01*
X113587119Y-92422206D01*
X113587117Y-92422207D01*
X113477850Y-92502850D01*
X113434270Y-92561899D01*
X113378622Y-92604150D01*
X113308966Y-92609608D01*
X113247417Y-92576540D01*
X113213516Y-92515446D01*
X113210500Y-92488265D01*
X113210500Y-91165393D01*
X113210500Y-91165382D01*
X113207751Y-91119237D01*
X113173684Y-90962635D01*
X113164092Y-90918538D01*
X113164090Y-90918531D01*
X113083239Y-90729728D01*
X113083237Y-90729723D01*
X113015068Y-90629003D01*
X112968117Y-90559631D01*
X112968109Y-90559622D01*
X112822877Y-90414390D01*
X112822868Y-90414382D01*
X112652781Y-90299266D01*
X112652777Y-90299263D01*
X112652773Y-90299261D01*
X112652771Y-90299260D01*
X112463968Y-90218409D01*
X112463961Y-90218407D01*
X112263268Y-90174750D01*
X112263267Y-90174749D01*
X112263263Y-90174749D01*
X112217118Y-90172000D01*
X110302882Y-90172000D01*
X110256737Y-90174749D01*
X110256732Y-90174749D01*
X110256731Y-90174750D01*
X110056038Y-90218407D01*
X110056031Y-90218409D01*
X109867228Y-90299260D01*
X109867218Y-90299266D01*
X109697131Y-90414382D01*
X109697122Y-90414390D01*
X109551890Y-90559622D01*
X109551882Y-90559631D01*
X109436766Y-90729718D01*
X109436760Y-90729728D01*
X109355909Y-90918531D01*
X109355907Y-90918538D01*
X109313133Y-91115173D01*
X109312249Y-91119237D01*
X109309500Y-91165382D01*
X109309500Y-93079618D01*
X109312249Y-93125763D01*
X109312249Y-93125767D01*
X109312250Y-93125768D01*
X109355907Y-93326461D01*
X109355909Y-93326468D01*
X109436760Y-93515271D01*
X109436763Y-93515277D01*
X109436766Y-93515281D01*
X109551882Y-93685368D01*
X109551890Y-93685377D01*
X109697122Y-93830609D01*
X109697131Y-93830617D01*
X109745832Y-93863578D01*
X109867223Y-93945737D01*
X109898427Y-93959099D01*
X110056031Y-94026590D01*
X110056038Y-94026592D01*
X110122935Y-94041144D01*
X110256737Y-94070251D01*
X110302882Y-94073000D01*
X110725500Y-94073000D01*
X110792539Y-94092685D01*
X110838294Y-94145489D01*
X110849500Y-94197000D01*
X110849500Y-94859308D01*
X110873712Y-94949672D01*
X110880200Y-94973885D01*
X110880200Y-94973886D01*
X110895566Y-95000500D01*
X110939511Y-95076614D01*
X111123386Y-95260489D01*
X111123387Y-95260490D01*
X111123389Y-95260491D01*
X111171275Y-95288137D01*
X111171277Y-95288139D01*
X111171278Y-95288139D01*
X111226114Y-95319799D01*
X111340691Y-95350500D01*
X113307020Y-95350500D01*
X113374059Y-95370185D01*
X113406790Y-95400867D01*
X113477848Y-95497148D01*
X113477849Y-95497148D01*
X113477850Y-95497150D01*
X113587118Y-95577793D01*
X113629845Y-95592744D01*
X113715299Y-95622646D01*
X113745730Y-95625500D01*
X113745734Y-95625500D01*
X114675500Y-95625500D01*
X114684185Y-95628050D01*
X114693147Y-95626762D01*
X114717187Y-95637740D01*
X114742539Y-95645185D01*
X114748466Y-95652025D01*
X114756703Y-95655787D01*
X114770992Y-95678021D01*
X114788294Y-95697989D01*
X114790581Y-95708503D01*
X114794477Y-95714565D01*
X114799500Y-95749500D01*
X114799500Y-95838000D01*
X114779815Y-95905039D01*
X114727011Y-95950794D01*
X114675500Y-95962000D01*
X113745730Y-95962000D01*
X113715300Y-95964853D01*
X113715298Y-95964853D01*
X113587119Y-96009706D01*
X113587117Y-96009707D01*
X113477850Y-96090350D01*
X113397207Y-96199617D01*
X113397206Y-96199619D01*
X113352353Y-96327798D01*
X113352353Y-96327800D01*
X113349500Y-96358230D01*
X113349500Y-97141769D01*
X113352353Y-97172199D01*
X113352353Y-97172201D01*
X113397206Y-97300380D01*
X113397207Y-97300382D01*
X113477850Y-97409650D01*
X113554732Y-97466391D01*
X113583645Y-97487730D01*
X113625895Y-97543378D01*
X113631354Y-97613034D01*
X113598286Y-97674583D01*
X113583645Y-97687270D01*
X113477850Y-97765350D01*
X113397207Y-97874617D01*
X113397206Y-97874619D01*
X113352353Y-98002798D01*
X113352353Y-98002800D01*
X113349500Y-98033230D01*
X113349500Y-98816769D01*
X113352353Y-98847199D01*
X113352353Y-98847201D01*
X113390693Y-98956766D01*
X113397207Y-98975382D01*
X113477850Y-99084650D01*
X113587118Y-99165293D01*
X113618697Y-99176343D01*
X113715299Y-99210146D01*
X113745730Y-99213000D01*
X113745734Y-99213000D01*
X116754270Y-99213000D01*
X116784699Y-99210146D01*
X116784701Y-99210146D01*
X116848790Y-99187719D01*
X116912882Y-99165293D01*
X117022150Y-99084650D01*
X117102793Y-98975382D01*
X117108684Y-98958547D01*
X117149405Y-98901770D01*
X117214358Y-98876022D01*
X117225726Y-98875500D01*
X122844556Y-98875500D01*
X122911595Y-98895185D01*
X122957350Y-98947989D01*
X122968551Y-99000504D01*
X122912564Y-105907999D01*
X122895520Y-108010832D01*
X122900033Y-108055360D01*
X122900033Y-108055362D01*
X122911234Y-108107876D01*
X122913898Y-108118872D01*
X122913899Y-108118873D01*
X122947744Y-108182387D01*
X122956908Y-108199583D01*
X122956910Y-108199586D01*
X123002669Y-108252395D01*
X123020251Y-108270339D01*
X123020255Y-108270343D01*
X123020256Y-108270344D01*
X123020258Y-108270345D01*
X123100068Y-108314988D01*
X123100072Y-108314990D01*
X123167111Y-108334675D01*
X123225009Y-108343000D01*
X123225013Y-108343000D01*
X125065675Y-108343000D01*
X125065679Y-108343000D01*
X125120497Y-108335554D01*
X125184255Y-108317907D01*
X125184262Y-108317903D01*
X125184265Y-108317903D01*
X125235095Y-108296109D01*
X125235093Y-108296109D01*
X125235100Y-108296107D01*
X130022351Y-105426197D01*
X130089964Y-105408612D01*
X138702330Y-105695691D01*
X138768675Y-105717598D01*
X138812645Y-105771897D01*
X138821688Y-105808396D01*
X139184755Y-109802131D01*
X139184755Y-109802133D01*
X139191664Y-109839436D01*
X139191667Y-109839448D01*
X139191668Y-109839453D01*
X139191669Y-109839456D01*
X139192569Y-109842638D01*
X139204089Y-109883365D01*
X139205350Y-109887642D01*
X139205350Y-109887643D01*
X139250936Y-109966922D01*
X139250941Y-109966928D01*
X139288781Y-110007853D01*
X139298373Y-110018227D01*
X139316535Y-110035606D01*
X139355700Y-110055883D01*
X139397750Y-110077656D01*
X139412323Y-110081429D01*
X139465390Y-110095169D01*
X139523525Y-110101622D01*
X140021505Y-110085557D01*
X140089141Y-110103070D01*
X140136575Y-110154372D01*
X140149500Y-110209493D01*
X140149500Y-111083771D01*
X140182182Y-111248074D01*
X140182184Y-111248082D01*
X140246295Y-111402860D01*
X140339373Y-111542162D01*
X140457837Y-111660626D01*
X140550494Y-111722537D01*
X140597137Y-111753703D01*
X140597138Y-111753703D01*
X140597139Y-111753704D01*
X140597141Y-111753705D01*
X140614605Y-111760939D01*
X140669009Y-111804780D01*
X140691074Y-111871074D01*
X140673795Y-111938773D01*
X140622658Y-111986384D01*
X140567153Y-111999500D01*
X109943601Y-111999500D01*
X109833649Y-112024596D01*
X109822799Y-112029821D01*
X109822798Y-112029820D01*
X109812326Y-112034862D01*
X109807833Y-112036067D01*
X109797805Y-112041856D01*
X109793612Y-112043876D01*
X109793602Y-112043882D01*
X109732031Y-112073534D01*
X109732027Y-112073536D01*
X109710684Y-112090557D01*
X109710682Y-112090559D01*
X109703417Y-112096351D01*
X109694306Y-112101612D01*
X109684411Y-112111506D01*
X109678958Y-112115855D01*
X109678955Y-112115859D01*
X109643853Y-112143853D01*
X109615859Y-112178955D01*
X109611513Y-112184404D01*
X109601612Y-112194306D01*
X109596350Y-112203419D01*
X109590559Y-112210682D01*
X109590557Y-112210682D01*
X109590557Y-112210684D01*
X109573536Y-112232027D01*
X109573534Y-112232031D01*
X109543882Y-112293602D01*
X109541863Y-112297793D01*
X109536067Y-112307833D01*
X109534861Y-112312330D01*
X109529823Y-112322793D01*
X109529821Y-112322799D01*
X109524596Y-112333649D01*
X109499500Y-112443601D01*
X109499500Y-114376000D01*
X109479815Y-114443039D01*
X109427011Y-114488794D01*
X109375500Y-114500000D01*
X100090544Y-114500000D01*
X100023505Y-114480315D01*
X99977750Y-114427511D01*
X99966544Y-114376096D01*
X99944308Y-85652747D01*
X112309500Y-85652747D01*
X112309500Y-89192252D01*
X112321131Y-89250729D01*
X112321132Y-89250730D01*
X112365447Y-89317052D01*
X112431769Y-89361367D01*
X112431770Y-89361368D01*
X112490247Y-89372999D01*
X112490250Y-89373000D01*
X112490252Y-89373000D01*
X116029750Y-89373000D01*
X116029751Y-89372999D01*
X116044568Y-89370052D01*
X116088229Y-89361368D01*
X116088229Y-89361367D01*
X116088231Y-89361367D01*
X116154552Y-89317052D01*
X116198867Y-89250731D01*
X116198867Y-89250729D01*
X116198868Y-89250729D01*
X116210499Y-89192252D01*
X116210500Y-89192250D01*
X116210500Y-88644310D01*
X116230185Y-88577271D01*
X116282989Y-88531516D01*
X116352147Y-88521572D01*
X116415703Y-88550597D01*
X116434265Y-88570670D01*
X116512850Y-88677150D01*
X116622118Y-88757793D01*
X116750302Y-88802646D01*
X116750301Y-88802646D01*
X116754271Y-88803018D01*
X116780735Y-88805500D01*
X118489264Y-88805499D01*
X118519698Y-88802646D01*
X118647882Y-88757793D01*
X118757150Y-88677150D01*
X118837793Y-88567882D01*
X118882646Y-88439698D01*
X118885500Y-88409265D01*
X118885499Y-83350736D01*
X118882646Y-83320302D01*
X118837793Y-83192118D01*
X118757150Y-83082850D01*
X118647882Y-83002207D01*
X118647881Y-83002206D01*
X118519695Y-82957353D01*
X118519698Y-82957353D01*
X118489268Y-82954500D01*
X116780741Y-82954500D01*
X116750301Y-82957354D01*
X116750300Y-82957354D01*
X116622118Y-83002206D01*
X116512850Y-83082850D01*
X116432206Y-83192118D01*
X116387353Y-83320302D01*
X116384500Y-83350731D01*
X116384500Y-85463316D01*
X116364815Y-85530355D01*
X116312011Y-85576110D01*
X116242853Y-85586054D01*
X116179297Y-85557029D01*
X116157397Y-85532206D01*
X116154551Y-85527947D01*
X116088230Y-85483632D01*
X116088229Y-85483631D01*
X116029752Y-85472000D01*
X116029748Y-85472000D01*
X112490252Y-85472000D01*
X112490247Y-85472000D01*
X112431770Y-85483631D01*
X112431769Y-85483632D01*
X112365447Y-85527947D01*
X112321132Y-85594269D01*
X112321131Y-85594270D01*
X112309500Y-85652747D01*
X99944308Y-85652747D01*
X99944303Y-85646756D01*
X99939798Y-79828493D01*
X99936663Y-75778711D01*
X101749500Y-75778711D01*
X101749500Y-76021288D01*
X101781161Y-76261785D01*
X101843947Y-76496104D01*
X101936773Y-76720205D01*
X101936777Y-76720214D01*
X101958974Y-76758661D01*
X102058064Y-76930289D01*
X102058066Y-76930292D01*
X102058067Y-76930293D01*
X102205733Y-77122736D01*
X102205739Y-77122743D01*
X102377256Y-77294260D01*
X102377263Y-77294266D01*
X102421136Y-77327931D01*
X102569711Y-77441936D01*
X102779788Y-77563224D01*
X103003900Y-77656054D01*
X103238211Y-77718838D01*
X103418586Y-77742584D01*
X103478711Y-77750500D01*
X103478712Y-77750500D01*
X103721289Y-77750500D01*
X103769388Y-77744167D01*
X103961789Y-77718838D01*
X104196100Y-77656054D01*
X104420212Y-77563224D01*
X104630289Y-77441936D01*
X104822738Y-77294265D01*
X104994265Y-77122738D01*
X105141936Y-76930289D01*
X105263224Y-76720212D01*
X105356054Y-76496100D01*
X105418838Y-76261789D01*
X105450500Y-76021288D01*
X105450500Y-75778712D01*
X105418838Y-75538211D01*
X105356054Y-75303900D01*
X105263224Y-75079788D01*
X105141936Y-74869711D01*
X104994265Y-74677262D01*
X104994260Y-74677256D01*
X104822743Y-74505739D01*
X104822736Y-74505733D01*
X104630293Y-74358067D01*
X104630292Y-74358066D01*
X104630289Y-74358064D01*
X104420212Y-74236776D01*
X104420205Y-74236773D01*
X104196104Y-74143947D01*
X103961785Y-74081161D01*
X103721289Y-74049500D01*
X103721288Y-74049500D01*
X103478712Y-74049500D01*
X103478711Y-74049500D01*
X103238214Y-74081161D01*
X103003895Y-74143947D01*
X102779794Y-74236773D01*
X102779785Y-74236777D01*
X102569706Y-74358067D01*
X102377263Y-74505733D01*
X102377256Y-74505739D01*
X102205739Y-74677256D01*
X102205733Y-74677263D01*
X102058067Y-74869706D01*
X101936777Y-75079785D01*
X101936773Y-75079794D01*
X101843947Y-75303895D01*
X101781161Y-75538214D01*
X101749500Y-75778711D01*
X99936663Y-75778711D01*
X99936261Y-75259736D01*
X99936430Y-75253191D01*
X99951118Y-74972995D01*
X99951720Y-74965689D01*
X99958874Y-74902194D01*
X99959596Y-74896864D01*
X99998339Y-74652263D01*
X99999905Y-74644153D01*
X100012801Y-74587648D01*
X100013886Y-74583272D01*
X100079728Y-74337551D01*
X100082439Y-74328765D01*
X100097699Y-74285155D01*
X100098900Y-74281880D01*
X100194531Y-74032754D01*
X100198553Y-74023440D01*
X100208844Y-74002070D01*
X100209933Y-73999870D01*
X100339947Y-73744705D01*
X100346423Y-73733489D01*
X100512378Y-73477940D01*
X100519990Y-73467462D01*
X100711755Y-73230649D01*
X100720423Y-73221022D01*
X100935892Y-73005550D01*
X100945517Y-72996884D01*
X101182326Y-72805115D01*
X101192801Y-72797505D01*
X101448348Y-72631547D01*
X101459562Y-72625071D01*
X101714705Y-72495065D01*
X101716983Y-72493936D01*
X101738293Y-72483673D01*
X101747613Y-72479649D01*
X101996638Y-72384052D01*
X102000114Y-72382778D01*
X102036828Y-72369930D01*
X102043589Y-72367564D01*
X102052418Y-72364840D01*
X102298121Y-72298999D01*
X102302533Y-72297905D01*
X102358969Y-72285022D01*
X102367108Y-72283450D01*
X102611693Y-72244705D01*
X102617075Y-72243976D01*
X102680525Y-72236825D01*
X102687849Y-72236221D01*
X102959208Y-72221993D01*
X102967209Y-72221574D01*
X102973683Y-72221404D01*
X103021496Y-72221397D01*
X196946760Y-72210500D01*
X196953237Y-72210669D01*
G37*
%TD.AperFunction*%
%TD*%
M02*
